%TF.GenerationSoftware,KiCad,Pcbnew,10.0.3*%
%TF.CreationDate,2026-07-16T15:21:02-05:00*%
%TF.ProjectId,chronos_helios_adapter,6368726f-6e6f-4735-9f68-656c696f735f,3*%
%TF.SameCoordinates,Original*%
%TF.FileFunction,Drillmap*%
%TF.FilePolarity,Positive*%
%FSLAX45Y45*%
G04 Gerber Fmt 4.5, Leading zero omitted, Abs format (unit mm)*
G04 Created by KiCad (PCBNEW 10.0.3) date 2026-07-16 15:21:02*
%MOMM*%
%LPD*%
G01*
G04 APERTURE LIST*
%ADD10C,0.100000*%
%ADD11C,0.200000*%
G04 APERTURE END LIST*
D10*
X9800000Y-9800000D02*
X12600000Y-9800000D01*
X12600000Y-12600000D01*
X9800000Y-12600000D01*
X9800000Y-9800000D01*
D11*
D10*
X10165000Y-10165000D02*
X10195000Y-10195000D01*
X10195000Y-10165000D02*
X10165000Y-10195000D01*
X10165000Y-12205000D02*
X10195000Y-12235000D01*
X10195000Y-12205000D02*
X10165000Y-12235000D01*
X10205000Y-10995000D02*
X10235000Y-11025000D01*
X10235000Y-10995000D02*
X10205000Y-11025000D01*
X10485000Y-11990000D02*
X10515000Y-12020000D01*
X10515000Y-11990000D02*
X10485000Y-12020000D01*
X10515000Y-11075000D02*
X10545000Y-11105000D01*
X10545000Y-11075000D02*
X10515000Y-11105000D01*
X10655000Y-10480000D02*
X10685000Y-10510000D01*
X10685000Y-10480000D02*
X10655000Y-10510000D01*
X10660000Y-11835000D02*
X10690000Y-11865000D01*
X10690000Y-11835000D02*
X10660000Y-11865000D01*
X10710000Y-11905000D02*
X10740000Y-11935000D01*
X10740000Y-11905000D02*
X10710000Y-11935000D01*
X10860000Y-11835000D02*
X10890000Y-11865000D01*
X10890000Y-11835000D02*
X10860000Y-11865000D01*
X10885000Y-10935000D02*
X10915000Y-10965000D01*
X10915000Y-10935000D02*
X10885000Y-10965000D01*
X11010000Y-11905000D02*
X11040000Y-11935000D01*
X11040000Y-11905000D02*
X11010000Y-11935000D01*
X11085000Y-10675000D02*
X11115000Y-10705000D01*
X11115000Y-10675000D02*
X11085000Y-10705000D01*
X11110000Y-11515000D02*
X11140000Y-11545000D01*
X11140000Y-11515000D02*
X11110000Y-11545000D01*
X11160000Y-11835000D02*
X11190000Y-11865000D01*
X11190000Y-11835000D02*
X11160000Y-11865000D01*
X11235000Y-10615000D02*
X11265000Y-10645000D01*
X11265000Y-10615000D02*
X11235000Y-10645000D01*
X11260000Y-11905000D02*
X11290000Y-11935000D01*
X11290000Y-11905000D02*
X11260000Y-11935000D01*
X11385000Y-10675000D02*
X11415000Y-10705000D01*
X11415000Y-10675000D02*
X11385000Y-10705000D01*
X11410000Y-11835000D02*
X11440000Y-11865000D01*
X11440000Y-11835000D02*
X11410000Y-11865000D01*
X11710000Y-11905000D02*
X11740000Y-11935000D01*
X11740000Y-11905000D02*
X11710000Y-11935000D01*
X11715000Y-10480000D02*
X11745000Y-10510000D01*
X11745000Y-10480000D02*
X11715000Y-10510000D01*
X11885000Y-11990000D02*
X11915000Y-12020000D01*
X11915000Y-11990000D02*
X11885000Y-12020000D01*
X12035000Y-10995000D02*
X12065000Y-11025000D01*
X12065000Y-10995000D02*
X12035000Y-11025000D01*
X12205000Y-10165000D02*
X12235000Y-10195000D01*
X12235000Y-10165000D02*
X12205000Y-10195000D01*
X12205000Y-12205000D02*
X12235000Y-12235000D01*
X12235000Y-12205000D02*
X12205000Y-12235000D01*
D11*
X10055777Y-12916484D02*
X10055777Y-12716484D01*
X10055777Y-12716484D02*
X10103396Y-12716484D01*
X10103396Y-12716484D02*
X10131967Y-12726008D01*
X10131967Y-12726008D02*
X10151015Y-12745055D01*
X10151015Y-12745055D02*
X10160539Y-12764103D01*
X10160539Y-12764103D02*
X10170063Y-12802198D01*
X10170063Y-12802198D02*
X10170063Y-12830769D01*
X10170063Y-12830769D02*
X10160539Y-12868865D01*
X10160539Y-12868865D02*
X10151015Y-12887912D01*
X10151015Y-12887912D02*
X10131967Y-12906960D01*
X10131967Y-12906960D02*
X10103396Y-12916484D01*
X10103396Y-12916484D02*
X10055777Y-12916484D01*
X10255777Y-12916484D02*
X10255777Y-12783150D01*
X10255777Y-12821246D02*
X10265301Y-12802198D01*
X10265301Y-12802198D02*
X10274824Y-12792674D01*
X10274824Y-12792674D02*
X10293872Y-12783150D01*
X10293872Y-12783150D02*
X10312920Y-12783150D01*
X10379586Y-12916484D02*
X10379586Y-12783150D01*
X10379586Y-12716484D02*
X10370063Y-12726008D01*
X10370063Y-12726008D02*
X10379586Y-12735531D01*
X10379586Y-12735531D02*
X10389110Y-12726008D01*
X10389110Y-12726008D02*
X10379586Y-12716484D01*
X10379586Y-12716484D02*
X10379586Y-12735531D01*
X10503396Y-12916484D02*
X10484348Y-12906960D01*
X10484348Y-12906960D02*
X10474824Y-12887912D01*
X10474824Y-12887912D02*
X10474824Y-12716484D01*
X10608158Y-12916484D02*
X10589110Y-12906960D01*
X10589110Y-12906960D02*
X10579586Y-12887912D01*
X10579586Y-12887912D02*
X10579586Y-12716484D01*
X10836729Y-12916484D02*
X10836729Y-12716484D01*
X10836729Y-12716484D02*
X10903396Y-12859341D01*
X10903396Y-12859341D02*
X10970063Y-12716484D01*
X10970063Y-12716484D02*
X10970063Y-12916484D01*
X11151015Y-12916484D02*
X11151015Y-12811722D01*
X11151015Y-12811722D02*
X11141491Y-12792674D01*
X11141491Y-12792674D02*
X11122444Y-12783150D01*
X11122444Y-12783150D02*
X11084348Y-12783150D01*
X11084348Y-12783150D02*
X11065301Y-12792674D01*
X11151015Y-12906960D02*
X11131967Y-12916484D01*
X11131967Y-12916484D02*
X11084348Y-12916484D01*
X11084348Y-12916484D02*
X11065301Y-12906960D01*
X11065301Y-12906960D02*
X11055777Y-12887912D01*
X11055777Y-12887912D02*
X11055777Y-12868865D01*
X11055777Y-12868865D02*
X11065301Y-12849817D01*
X11065301Y-12849817D02*
X11084348Y-12840293D01*
X11084348Y-12840293D02*
X11131967Y-12840293D01*
X11131967Y-12840293D02*
X11151015Y-12830769D01*
X11246253Y-12783150D02*
X11246253Y-12983150D01*
X11246253Y-12792674D02*
X11265301Y-12783150D01*
X11265301Y-12783150D02*
X11303396Y-12783150D01*
X11303396Y-12783150D02*
X11322443Y-12792674D01*
X11322443Y-12792674D02*
X11331967Y-12802198D01*
X11331967Y-12802198D02*
X11341491Y-12821246D01*
X11341491Y-12821246D02*
X11341491Y-12878388D01*
X11341491Y-12878388D02*
X11331967Y-12897436D01*
X11331967Y-12897436D02*
X11322443Y-12906960D01*
X11322443Y-12906960D02*
X11303396Y-12916484D01*
X11303396Y-12916484D02*
X11265301Y-12916484D01*
X11265301Y-12916484D02*
X11246253Y-12906960D01*
X11427205Y-12897436D02*
X11436729Y-12906960D01*
X11436729Y-12906960D02*
X11427205Y-12916484D01*
X11427205Y-12916484D02*
X11417682Y-12906960D01*
X11417682Y-12906960D02*
X11427205Y-12897436D01*
X11427205Y-12897436D02*
X11427205Y-12916484D01*
X11427205Y-12792674D02*
X11436729Y-12802198D01*
X11436729Y-12802198D02*
X11427205Y-12811722D01*
X11427205Y-12811722D02*
X11417682Y-12802198D01*
X11417682Y-12802198D02*
X11427205Y-12792674D01*
X11427205Y-12792674D02*
X11427205Y-12811722D01*
D10*
X9765000Y-13230000D02*
X9795000Y-13260000D01*
X9795000Y-13230000D02*
X9765000Y-13260000D01*
D11*
X10093872Y-13136484D02*
X10112920Y-13136484D01*
X10112920Y-13136484D02*
X10131967Y-13146008D01*
X10131967Y-13146008D02*
X10141491Y-13155531D01*
X10141491Y-13155531D02*
X10151015Y-13174579D01*
X10151015Y-13174579D02*
X10160539Y-13212674D01*
X10160539Y-13212674D02*
X10160539Y-13260293D01*
X10160539Y-13260293D02*
X10151015Y-13298388D01*
X10151015Y-13298388D02*
X10141491Y-13317436D01*
X10141491Y-13317436D02*
X10131967Y-13326960D01*
X10131967Y-13326960D02*
X10112920Y-13336484D01*
X10112920Y-13336484D02*
X10093872Y-13336484D01*
X10093872Y-13336484D02*
X10074824Y-13326960D01*
X10074824Y-13326960D02*
X10065301Y-13317436D01*
X10065301Y-13317436D02*
X10055777Y-13298388D01*
X10055777Y-13298388D02*
X10046253Y-13260293D01*
X10046253Y-13260293D02*
X10046253Y-13212674D01*
X10046253Y-13212674D02*
X10055777Y-13174579D01*
X10055777Y-13174579D02*
X10065301Y-13155531D01*
X10065301Y-13155531D02*
X10074824Y-13146008D01*
X10074824Y-13146008D02*
X10093872Y-13136484D01*
X10246253Y-13317436D02*
X10255777Y-13326960D01*
X10255777Y-13326960D02*
X10246253Y-13336484D01*
X10246253Y-13336484D02*
X10236729Y-13326960D01*
X10236729Y-13326960D02*
X10246253Y-13317436D01*
X10246253Y-13317436D02*
X10246253Y-13336484D01*
X10322444Y-13136484D02*
X10446253Y-13136484D01*
X10446253Y-13136484D02*
X10379586Y-13212674D01*
X10379586Y-13212674D02*
X10408158Y-13212674D01*
X10408158Y-13212674D02*
X10427205Y-13222198D01*
X10427205Y-13222198D02*
X10436729Y-13231722D01*
X10436729Y-13231722D02*
X10446253Y-13250769D01*
X10446253Y-13250769D02*
X10446253Y-13298388D01*
X10446253Y-13298388D02*
X10436729Y-13317436D01*
X10436729Y-13317436D02*
X10427205Y-13326960D01*
X10427205Y-13326960D02*
X10408158Y-13336484D01*
X10408158Y-13336484D02*
X10351015Y-13336484D01*
X10351015Y-13336484D02*
X10331967Y-13326960D01*
X10331967Y-13326960D02*
X10322444Y-13317436D01*
X10570063Y-13136484D02*
X10589110Y-13136484D01*
X10589110Y-13136484D02*
X10608158Y-13146008D01*
X10608158Y-13146008D02*
X10617682Y-13155531D01*
X10617682Y-13155531D02*
X10627205Y-13174579D01*
X10627205Y-13174579D02*
X10636729Y-13212674D01*
X10636729Y-13212674D02*
X10636729Y-13260293D01*
X10636729Y-13260293D02*
X10627205Y-13298388D01*
X10627205Y-13298388D02*
X10617682Y-13317436D01*
X10617682Y-13317436D02*
X10608158Y-13326960D01*
X10608158Y-13326960D02*
X10589110Y-13336484D01*
X10589110Y-13336484D02*
X10570063Y-13336484D01*
X10570063Y-13336484D02*
X10551015Y-13326960D01*
X10551015Y-13326960D02*
X10541491Y-13317436D01*
X10541491Y-13317436D02*
X10531967Y-13298388D01*
X10531967Y-13298388D02*
X10522444Y-13260293D01*
X10522444Y-13260293D02*
X10522444Y-13212674D01*
X10522444Y-13212674D02*
X10531967Y-13174579D01*
X10531967Y-13174579D02*
X10541491Y-13155531D01*
X10541491Y-13155531D02*
X10551015Y-13146008D01*
X10551015Y-13146008D02*
X10570063Y-13136484D01*
X10760539Y-13136484D02*
X10779586Y-13136484D01*
X10779586Y-13136484D02*
X10798634Y-13146008D01*
X10798634Y-13146008D02*
X10808158Y-13155531D01*
X10808158Y-13155531D02*
X10817682Y-13174579D01*
X10817682Y-13174579D02*
X10827205Y-13212674D01*
X10827205Y-13212674D02*
X10827205Y-13260293D01*
X10827205Y-13260293D02*
X10817682Y-13298388D01*
X10817682Y-13298388D02*
X10808158Y-13317436D01*
X10808158Y-13317436D02*
X10798634Y-13326960D01*
X10798634Y-13326960D02*
X10779586Y-13336484D01*
X10779586Y-13336484D02*
X10760539Y-13336484D01*
X10760539Y-13336484D02*
X10741491Y-13326960D01*
X10741491Y-13326960D02*
X10731967Y-13317436D01*
X10731967Y-13317436D02*
X10722444Y-13298388D01*
X10722444Y-13298388D02*
X10712920Y-13260293D01*
X10712920Y-13260293D02*
X10712920Y-13212674D01*
X10712920Y-13212674D02*
X10722444Y-13174579D01*
X10722444Y-13174579D02*
X10731967Y-13155531D01*
X10731967Y-13155531D02*
X10741491Y-13146008D01*
X10741491Y-13146008D02*
X10760539Y-13136484D01*
X10912920Y-13336484D02*
X10912920Y-13203150D01*
X10912920Y-13222198D02*
X10922444Y-13212674D01*
X10922444Y-13212674D02*
X10941491Y-13203150D01*
X10941491Y-13203150D02*
X10970063Y-13203150D01*
X10970063Y-13203150D02*
X10989110Y-13212674D01*
X10989110Y-13212674D02*
X10998634Y-13231722D01*
X10998634Y-13231722D02*
X10998634Y-13336484D01*
X10998634Y-13231722D02*
X11008158Y-13212674D01*
X11008158Y-13212674D02*
X11027205Y-13203150D01*
X11027205Y-13203150D02*
X11055777Y-13203150D01*
X11055777Y-13203150D02*
X11074825Y-13212674D01*
X11074825Y-13212674D02*
X11084348Y-13231722D01*
X11084348Y-13231722D02*
X11084348Y-13336484D01*
X11179586Y-13336484D02*
X11179586Y-13203150D01*
X11179586Y-13222198D02*
X11189110Y-13212674D01*
X11189110Y-13212674D02*
X11208158Y-13203150D01*
X11208158Y-13203150D02*
X11236729Y-13203150D01*
X11236729Y-13203150D02*
X11255777Y-13212674D01*
X11255777Y-13212674D02*
X11265301Y-13231722D01*
X11265301Y-13231722D02*
X11265301Y-13336484D01*
X11265301Y-13231722D02*
X11274824Y-13212674D01*
X11274824Y-13212674D02*
X11293872Y-13203150D01*
X11293872Y-13203150D02*
X11322443Y-13203150D01*
X11322443Y-13203150D02*
X11341491Y-13212674D01*
X11341491Y-13212674D02*
X11351015Y-13231722D01*
X11351015Y-13231722D02*
X11351015Y-13336484D01*
X11741491Y-13126960D02*
X11570063Y-13384103D01*
X11998634Y-13136484D02*
X12017682Y-13136484D01*
X12017682Y-13136484D02*
X12036729Y-13146008D01*
X12036729Y-13146008D02*
X12046253Y-13155531D01*
X12046253Y-13155531D02*
X12055777Y-13174579D01*
X12055777Y-13174579D02*
X12065301Y-13212674D01*
X12065301Y-13212674D02*
X12065301Y-13260293D01*
X12065301Y-13260293D02*
X12055777Y-13298388D01*
X12055777Y-13298388D02*
X12046253Y-13317436D01*
X12046253Y-13317436D02*
X12036729Y-13326960D01*
X12036729Y-13326960D02*
X12017682Y-13336484D01*
X12017682Y-13336484D02*
X11998634Y-13336484D01*
X11998634Y-13336484D02*
X11979586Y-13326960D01*
X11979586Y-13326960D02*
X11970063Y-13317436D01*
X11970063Y-13317436D02*
X11960539Y-13298388D01*
X11960539Y-13298388D02*
X11951015Y-13260293D01*
X11951015Y-13260293D02*
X11951015Y-13212674D01*
X11951015Y-13212674D02*
X11960539Y-13174579D01*
X11960539Y-13174579D02*
X11970063Y-13155531D01*
X11970063Y-13155531D02*
X11979586Y-13146008D01*
X11979586Y-13146008D02*
X11998634Y-13136484D01*
X12151015Y-13317436D02*
X12160539Y-13326960D01*
X12160539Y-13326960D02*
X12151015Y-13336484D01*
X12151015Y-13336484D02*
X12141491Y-13326960D01*
X12141491Y-13326960D02*
X12151015Y-13317436D01*
X12151015Y-13317436D02*
X12151015Y-13336484D01*
X12284348Y-13136484D02*
X12303396Y-13136484D01*
X12303396Y-13136484D02*
X12322444Y-13146008D01*
X12322444Y-13146008D02*
X12331967Y-13155531D01*
X12331967Y-13155531D02*
X12341491Y-13174579D01*
X12341491Y-13174579D02*
X12351015Y-13212674D01*
X12351015Y-13212674D02*
X12351015Y-13260293D01*
X12351015Y-13260293D02*
X12341491Y-13298388D01*
X12341491Y-13298388D02*
X12331967Y-13317436D01*
X12331967Y-13317436D02*
X12322444Y-13326960D01*
X12322444Y-13326960D02*
X12303396Y-13336484D01*
X12303396Y-13336484D02*
X12284348Y-13336484D01*
X12284348Y-13336484D02*
X12265301Y-13326960D01*
X12265301Y-13326960D02*
X12255777Y-13317436D01*
X12255777Y-13317436D02*
X12246253Y-13298388D01*
X12246253Y-13298388D02*
X12236729Y-13260293D01*
X12236729Y-13260293D02*
X12236729Y-13212674D01*
X12236729Y-13212674D02*
X12246253Y-13174579D01*
X12246253Y-13174579D02*
X12255777Y-13155531D01*
X12255777Y-13155531D02*
X12265301Y-13146008D01*
X12265301Y-13146008D02*
X12284348Y-13136484D01*
X12541491Y-13336484D02*
X12427206Y-13336484D01*
X12484348Y-13336484D02*
X12484348Y-13136484D01*
X12484348Y-13136484D02*
X12465301Y-13165055D01*
X12465301Y-13165055D02*
X12446253Y-13184103D01*
X12446253Y-13184103D02*
X12427206Y-13193627D01*
X12731967Y-13336484D02*
X12617682Y-13336484D01*
X12674825Y-13336484D02*
X12674825Y-13136484D01*
X12674825Y-13136484D02*
X12655777Y-13165055D01*
X12655777Y-13165055D02*
X12636729Y-13184103D01*
X12636729Y-13184103D02*
X12617682Y-13193627D01*
X12846253Y-13222198D02*
X12827206Y-13212674D01*
X12827206Y-13212674D02*
X12817682Y-13203150D01*
X12817682Y-13203150D02*
X12808158Y-13184103D01*
X12808158Y-13184103D02*
X12808158Y-13174579D01*
X12808158Y-13174579D02*
X12817682Y-13155531D01*
X12817682Y-13155531D02*
X12827206Y-13146008D01*
X12827206Y-13146008D02*
X12846253Y-13136484D01*
X12846253Y-13136484D02*
X12884348Y-13136484D01*
X12884348Y-13136484D02*
X12903396Y-13146008D01*
X12903396Y-13146008D02*
X12912920Y-13155531D01*
X12912920Y-13155531D02*
X12922444Y-13174579D01*
X12922444Y-13174579D02*
X12922444Y-13184103D01*
X12922444Y-13184103D02*
X12912920Y-13203150D01*
X12912920Y-13203150D02*
X12903396Y-13212674D01*
X12903396Y-13212674D02*
X12884348Y-13222198D01*
X12884348Y-13222198D02*
X12846253Y-13222198D01*
X12846253Y-13222198D02*
X12827206Y-13231722D01*
X12827206Y-13231722D02*
X12817682Y-13241246D01*
X12817682Y-13241246D02*
X12808158Y-13260293D01*
X12808158Y-13260293D02*
X12808158Y-13298388D01*
X12808158Y-13298388D02*
X12817682Y-13317436D01*
X12817682Y-13317436D02*
X12827206Y-13326960D01*
X12827206Y-13326960D02*
X12846253Y-13336484D01*
X12846253Y-13336484D02*
X12884348Y-13336484D01*
X12884348Y-13336484D02*
X12903396Y-13326960D01*
X12903396Y-13326960D02*
X12912920Y-13317436D01*
X12912920Y-13317436D02*
X12922444Y-13298388D01*
X12922444Y-13298388D02*
X12922444Y-13260293D01*
X12922444Y-13260293D02*
X12912920Y-13241246D01*
X12912920Y-13241246D02*
X12903396Y-13231722D01*
X12903396Y-13231722D02*
X12884348Y-13222198D01*
X12998634Y-13136484D02*
X12998634Y-13174579D01*
X13074825Y-13136484D02*
X13074825Y-13174579D01*
X13370063Y-13412674D02*
X13360539Y-13403150D01*
X13360539Y-13403150D02*
X13341491Y-13374579D01*
X13341491Y-13374579D02*
X13331968Y-13355531D01*
X13331968Y-13355531D02*
X13322444Y-13326960D01*
X13322444Y-13326960D02*
X13312920Y-13279341D01*
X13312920Y-13279341D02*
X13312920Y-13241246D01*
X13312920Y-13241246D02*
X13322444Y-13193627D01*
X13322444Y-13193627D02*
X13331968Y-13165055D01*
X13331968Y-13165055D02*
X13341491Y-13146008D01*
X13341491Y-13146008D02*
X13360539Y-13117436D01*
X13360539Y-13117436D02*
X13370063Y-13107912D01*
X13436729Y-13155531D02*
X13446253Y-13146008D01*
X13446253Y-13146008D02*
X13465301Y-13136484D01*
X13465301Y-13136484D02*
X13512920Y-13136484D01*
X13512920Y-13136484D02*
X13531968Y-13146008D01*
X13531968Y-13146008D02*
X13541491Y-13155531D01*
X13541491Y-13155531D02*
X13551015Y-13174579D01*
X13551015Y-13174579D02*
X13551015Y-13193627D01*
X13551015Y-13193627D02*
X13541491Y-13222198D01*
X13541491Y-13222198D02*
X13427206Y-13336484D01*
X13427206Y-13336484D02*
X13551015Y-13336484D01*
X13722444Y-13203150D02*
X13722444Y-13336484D01*
X13674825Y-13126960D02*
X13627206Y-13269817D01*
X13627206Y-13269817D02*
X13751015Y-13269817D01*
X13979587Y-13336484D02*
X13979587Y-13136484D01*
X14065301Y-13336484D02*
X14065301Y-13231722D01*
X14065301Y-13231722D02*
X14055777Y-13212674D01*
X14055777Y-13212674D02*
X14036730Y-13203150D01*
X14036730Y-13203150D02*
X14008158Y-13203150D01*
X14008158Y-13203150D02*
X13989110Y-13212674D01*
X13989110Y-13212674D02*
X13979587Y-13222198D01*
X14189110Y-13336484D02*
X14170063Y-13326960D01*
X14170063Y-13326960D02*
X14160539Y-13317436D01*
X14160539Y-13317436D02*
X14151015Y-13298388D01*
X14151015Y-13298388D02*
X14151015Y-13241246D01*
X14151015Y-13241246D02*
X14160539Y-13222198D01*
X14160539Y-13222198D02*
X14170063Y-13212674D01*
X14170063Y-13212674D02*
X14189110Y-13203150D01*
X14189110Y-13203150D02*
X14217682Y-13203150D01*
X14217682Y-13203150D02*
X14236730Y-13212674D01*
X14236730Y-13212674D02*
X14246253Y-13222198D01*
X14246253Y-13222198D02*
X14255777Y-13241246D01*
X14255777Y-13241246D02*
X14255777Y-13298388D01*
X14255777Y-13298388D02*
X14246253Y-13317436D01*
X14246253Y-13317436D02*
X14236730Y-13326960D01*
X14236730Y-13326960D02*
X14217682Y-13336484D01*
X14217682Y-13336484D02*
X14189110Y-13336484D01*
X14370063Y-13336484D02*
X14351015Y-13326960D01*
X14351015Y-13326960D02*
X14341491Y-13307912D01*
X14341491Y-13307912D02*
X14341491Y-13136484D01*
X14522444Y-13326960D02*
X14503396Y-13336484D01*
X14503396Y-13336484D02*
X14465301Y-13336484D01*
X14465301Y-13336484D02*
X14446253Y-13326960D01*
X14446253Y-13326960D02*
X14436730Y-13307912D01*
X14436730Y-13307912D02*
X14436730Y-13231722D01*
X14436730Y-13231722D02*
X14446253Y-13212674D01*
X14446253Y-13212674D02*
X14465301Y-13203150D01*
X14465301Y-13203150D02*
X14503396Y-13203150D01*
X14503396Y-13203150D02*
X14522444Y-13212674D01*
X14522444Y-13212674D02*
X14531968Y-13231722D01*
X14531968Y-13231722D02*
X14531968Y-13250769D01*
X14531968Y-13250769D02*
X14436730Y-13269817D01*
X14608158Y-13326960D02*
X14627206Y-13336484D01*
X14627206Y-13336484D02*
X14665301Y-13336484D01*
X14665301Y-13336484D02*
X14684349Y-13326960D01*
X14684349Y-13326960D02*
X14693872Y-13307912D01*
X14693872Y-13307912D02*
X14693872Y-13298388D01*
X14693872Y-13298388D02*
X14684349Y-13279341D01*
X14684349Y-13279341D02*
X14665301Y-13269817D01*
X14665301Y-13269817D02*
X14636730Y-13269817D01*
X14636730Y-13269817D02*
X14617682Y-13260293D01*
X14617682Y-13260293D02*
X14608158Y-13241246D01*
X14608158Y-13241246D02*
X14608158Y-13231722D01*
X14608158Y-13231722D02*
X14617682Y-13212674D01*
X14617682Y-13212674D02*
X14636730Y-13203150D01*
X14636730Y-13203150D02*
X14665301Y-13203150D01*
X14665301Y-13203150D02*
X14684349Y-13212674D01*
X14760539Y-13412674D02*
X14770063Y-13403150D01*
X14770063Y-13403150D02*
X14789111Y-13374579D01*
X14789111Y-13374579D02*
X14798634Y-13355531D01*
X14798634Y-13355531D02*
X14808158Y-13326960D01*
X14808158Y-13326960D02*
X14817682Y-13279341D01*
X14817682Y-13279341D02*
X14817682Y-13241246D01*
X14817682Y-13241246D02*
X14808158Y-13193627D01*
X14808158Y-13193627D02*
X14798634Y-13165055D01*
X14798634Y-13165055D02*
X14789111Y-13146008D01*
X14789111Y-13146008D02*
X14770063Y-13117436D01*
X14770063Y-13117436D02*
X14760539Y-13107912D01*
M02*
