%TF.GenerationSoftware,KiCad,Pcbnew,10.0.3*%
%TF.CreationDate,2026-07-16T15:21:02-05:00*%
%TF.ProjectId,chronos_helios_adapter,6368726f-6e6f-4735-9f68-656c696f735f,3*%
%TF.SameCoordinates,Original*%
%TF.FileFunction,Legend,Top*%
%TF.FilePolarity,Positive*%
%FSLAX46Y46*%
G04 Gerber Fmt 4.6, Leading zero omitted, Abs format (unit mm)*
G04 Created by KiCad (PCBNEW 10.0.3) date 2026-07-16 15:21:02*
%MOMM*%
%LPD*%
G01*
G04 APERTURE LIST*
G04 Aperture macros list*
%AMRoundRect*
0 Rectangle with rounded corners*
0 $1 Rounding radius*
0 $2 $3 $4 $5 $6 $7 $8 $9 X,Y pos of 4 corners*
0 Add a 4 corners polygon primitive as box body*
4,1,4,$2,$3,$4,$5,$6,$7,$8,$9,$2,$3,0*
0 Add four circle primitives for the rounded corners*
1,1,$1+$1,$2,$3*
1,1,$1+$1,$4,$5*
1,1,$1+$1,$6,$7*
1,1,$1+$1,$8,$9*
0 Add four rect primitives between the rounded corners*
20,1,$1+$1,$2,$3,$4,$5,0*
20,1,$1+$1,$4,$5,$6,$7,0*
20,1,$1+$1,$6,$7,$8,$9,0*
20,1,$1+$1,$8,$9,$2,$3,0*%
G04 Aperture macros list end*
%ADD10C,0.130000*%
%ADD11C,0.150000*%
%ADD12C,0.275000*%
%ADD13C,0.300000*%
%ADD14C,1.600000*%
%ADD15RoundRect,0.050000X-0.150000X-0.650000X0.150000X-0.650000X0.150000X0.650000X-0.150000X0.650000X0*%
%ADD16RoundRect,0.050000X-1.050000X-1.450000X1.050000X-1.450000X1.050000X1.450000X-1.050000X1.450000X0*%
%ADD17C,2.300000*%
%ADD18RoundRect,0.050000X-0.600000X-0.500000X0.600000X-0.500000X0.600000X0.500000X-0.600000X0.500000X0*%
%ADD19RoundRect,0.050000X0.150000X0.650000X-0.150000X0.650000X-0.150000X-0.650000X0.150000X-0.650000X0*%
%ADD20RoundRect,0.050000X1.050000X1.450000X-1.050000X1.450000X-1.050000X-1.450000X1.050000X-1.450000X0*%
G04 APERTURE END LIST*
D10*
X102052381Y-106463335D02*
X102319048Y-107263335D01*
X102319048Y-107263335D02*
X102585714Y-106463335D01*
X102776190Y-106463335D02*
X103271428Y-106463335D01*
X103271428Y-106463335D02*
X103004762Y-106768097D01*
X103004762Y-106768097D02*
X103119047Y-106768097D01*
X103119047Y-106768097D02*
X103195238Y-106806192D01*
X103195238Y-106806192D02*
X103233333Y-106844287D01*
X103233333Y-106844287D02*
X103271428Y-106920478D01*
X103271428Y-106920478D02*
X103271428Y-107110954D01*
X103271428Y-107110954D02*
X103233333Y-107187144D01*
X103233333Y-107187144D02*
X103195238Y-107225240D01*
X103195238Y-107225240D02*
X103119047Y-107263335D01*
X103119047Y-107263335D02*
X102890476Y-107263335D01*
X102890476Y-107263335D02*
X102814285Y-107225240D01*
X102814285Y-107225240D02*
X102776190Y-107187144D01*
X103538095Y-106463335D02*
X104033333Y-106463335D01*
X104033333Y-106463335D02*
X103766667Y-106768097D01*
X103766667Y-106768097D02*
X103880952Y-106768097D01*
X103880952Y-106768097D02*
X103957143Y-106806192D01*
X103957143Y-106806192D02*
X103995238Y-106844287D01*
X103995238Y-106844287D02*
X104033333Y-106920478D01*
X104033333Y-106920478D02*
X104033333Y-107110954D01*
X104033333Y-107110954D02*
X103995238Y-107187144D01*
X103995238Y-107187144D02*
X103957143Y-107225240D01*
X103957143Y-107225240D02*
X103880952Y-107263335D01*
X103880952Y-107263335D02*
X103652381Y-107263335D01*
X103652381Y-107263335D02*
X103576190Y-107225240D01*
X103576190Y-107225240D02*
X103538095Y-107187144D01*
X104376191Y-107263335D02*
X104376191Y-106463335D01*
X104376191Y-106844287D02*
X104833334Y-106844287D01*
X104833334Y-107263335D02*
X104833334Y-106463335D01*
X103409523Y-114163335D02*
X103904761Y-114163335D01*
X103904761Y-114163335D02*
X103638095Y-114468097D01*
X103638095Y-114468097D02*
X103752380Y-114468097D01*
X103752380Y-114468097D02*
X103828571Y-114506192D01*
X103828571Y-114506192D02*
X103866666Y-114544287D01*
X103866666Y-114544287D02*
X103904761Y-114620478D01*
X103904761Y-114620478D02*
X103904761Y-114810954D01*
X103904761Y-114810954D02*
X103866666Y-114887144D01*
X103866666Y-114887144D02*
X103828571Y-114925240D01*
X103828571Y-114925240D02*
X103752380Y-114963335D01*
X103752380Y-114963335D02*
X103523809Y-114963335D01*
X103523809Y-114963335D02*
X103447618Y-114925240D01*
X103447618Y-114925240D02*
X103409523Y-114887144D01*
X104133333Y-114163335D02*
X104400000Y-114963335D01*
X104400000Y-114963335D02*
X104666666Y-114163335D01*
X104857142Y-114163335D02*
X105352380Y-114163335D01*
X105352380Y-114163335D02*
X105085714Y-114468097D01*
X105085714Y-114468097D02*
X105199999Y-114468097D01*
X105199999Y-114468097D02*
X105276190Y-114506192D01*
X105276190Y-114506192D02*
X105314285Y-114544287D01*
X105314285Y-114544287D02*
X105352380Y-114620478D01*
X105352380Y-114620478D02*
X105352380Y-114810954D01*
X105352380Y-114810954D02*
X105314285Y-114887144D01*
X105314285Y-114887144D02*
X105276190Y-114925240D01*
X105276190Y-114925240D02*
X105199999Y-114963335D01*
X105199999Y-114963335D02*
X104971428Y-114963335D01*
X104971428Y-114963335D02*
X104895237Y-114925240D01*
X104895237Y-114925240D02*
X104857142Y-114887144D01*
X106152381Y-114887144D02*
X106114285Y-114925240D01*
X106114285Y-114925240D02*
X106000000Y-114963335D01*
X106000000Y-114963335D02*
X105923809Y-114963335D01*
X105923809Y-114963335D02*
X105809523Y-114925240D01*
X105809523Y-114925240D02*
X105733333Y-114849049D01*
X105733333Y-114849049D02*
X105695238Y-114772859D01*
X105695238Y-114772859D02*
X105657142Y-114620478D01*
X105657142Y-114620478D02*
X105657142Y-114506192D01*
X105657142Y-114506192D02*
X105695238Y-114353811D01*
X105695238Y-114353811D02*
X105733333Y-114277620D01*
X105733333Y-114277620D02*
X105809523Y-114201430D01*
X105809523Y-114201430D02*
X105923809Y-114163335D01*
X105923809Y-114163335D02*
X106000000Y-114163335D01*
X106000000Y-114163335D02*
X106114285Y-114201430D01*
X106114285Y-114201430D02*
X106152381Y-114239525D01*
X103352381Y-99387144D02*
X103314285Y-99425240D01*
X103314285Y-99425240D02*
X103200000Y-99463335D01*
X103200000Y-99463335D02*
X103123809Y-99463335D01*
X103123809Y-99463335D02*
X103009523Y-99425240D01*
X103009523Y-99425240D02*
X102933333Y-99349049D01*
X102933333Y-99349049D02*
X102895238Y-99272859D01*
X102895238Y-99272859D02*
X102857142Y-99120478D01*
X102857142Y-99120478D02*
X102857142Y-99006192D01*
X102857142Y-99006192D02*
X102895238Y-98853811D01*
X102895238Y-98853811D02*
X102933333Y-98777620D01*
X102933333Y-98777620D02*
X103009523Y-98701430D01*
X103009523Y-98701430D02*
X103123809Y-98663335D01*
X103123809Y-98663335D02*
X103200000Y-98663335D01*
X103200000Y-98663335D02*
X103314285Y-98701430D01*
X103314285Y-98701430D02*
X103352381Y-98739525D01*
X103695238Y-99463335D02*
X103695238Y-98663335D01*
X103695238Y-99044287D02*
X104152381Y-99044287D01*
X104152381Y-99463335D02*
X104152381Y-98663335D01*
X104990476Y-99463335D02*
X104723809Y-99082382D01*
X104533333Y-99463335D02*
X104533333Y-98663335D01*
X104533333Y-98663335D02*
X104838095Y-98663335D01*
X104838095Y-98663335D02*
X104914285Y-98701430D01*
X104914285Y-98701430D02*
X104952380Y-98739525D01*
X104952380Y-98739525D02*
X104990476Y-98815716D01*
X104990476Y-98815716D02*
X104990476Y-98930001D01*
X104990476Y-98930001D02*
X104952380Y-99006192D01*
X104952380Y-99006192D02*
X104914285Y-99044287D01*
X104914285Y-99044287D02*
X104838095Y-99082382D01*
X104838095Y-99082382D02*
X104533333Y-99082382D01*
X105485714Y-98663335D02*
X105638095Y-98663335D01*
X105638095Y-98663335D02*
X105714285Y-98701430D01*
X105714285Y-98701430D02*
X105790476Y-98777620D01*
X105790476Y-98777620D02*
X105828571Y-98930001D01*
X105828571Y-98930001D02*
X105828571Y-99196668D01*
X105828571Y-99196668D02*
X105790476Y-99349049D01*
X105790476Y-99349049D02*
X105714285Y-99425240D01*
X105714285Y-99425240D02*
X105638095Y-99463335D01*
X105638095Y-99463335D02*
X105485714Y-99463335D01*
X105485714Y-99463335D02*
X105409523Y-99425240D01*
X105409523Y-99425240D02*
X105333333Y-99349049D01*
X105333333Y-99349049D02*
X105295237Y-99196668D01*
X105295237Y-99196668D02*
X105295237Y-98930001D01*
X105295237Y-98930001D02*
X105333333Y-98777620D01*
X105333333Y-98777620D02*
X105409523Y-98701430D01*
X105409523Y-98701430D02*
X105485714Y-98663335D01*
X106171428Y-99463335D02*
X106171428Y-98663335D01*
X106171428Y-98663335D02*
X106628571Y-99463335D01*
X106628571Y-99463335D02*
X106628571Y-98663335D01*
X107161904Y-98663335D02*
X107314285Y-98663335D01*
X107314285Y-98663335D02*
X107390475Y-98701430D01*
X107390475Y-98701430D02*
X107466666Y-98777620D01*
X107466666Y-98777620D02*
X107504761Y-98930001D01*
X107504761Y-98930001D02*
X107504761Y-99196668D01*
X107504761Y-99196668D02*
X107466666Y-99349049D01*
X107466666Y-99349049D02*
X107390475Y-99425240D01*
X107390475Y-99425240D02*
X107314285Y-99463335D01*
X107314285Y-99463335D02*
X107161904Y-99463335D01*
X107161904Y-99463335D02*
X107085713Y-99425240D01*
X107085713Y-99425240D02*
X107009523Y-99349049D01*
X107009523Y-99349049D02*
X106971427Y-99196668D01*
X106971427Y-99196668D02*
X106971427Y-98930001D01*
X106971427Y-98930001D02*
X107009523Y-98777620D01*
X107009523Y-98777620D02*
X107085713Y-98701430D01*
X107085713Y-98701430D02*
X107161904Y-98663335D01*
X107809522Y-99425240D02*
X107923808Y-99463335D01*
X107923808Y-99463335D02*
X108114284Y-99463335D01*
X108114284Y-99463335D02*
X108190475Y-99425240D01*
X108190475Y-99425240D02*
X108228570Y-99387144D01*
X108228570Y-99387144D02*
X108266665Y-99310954D01*
X108266665Y-99310954D02*
X108266665Y-99234763D01*
X108266665Y-99234763D02*
X108228570Y-99158573D01*
X108228570Y-99158573D02*
X108190475Y-99120478D01*
X108190475Y-99120478D02*
X108114284Y-99082382D01*
X108114284Y-99082382D02*
X107961903Y-99044287D01*
X107961903Y-99044287D02*
X107885713Y-99006192D01*
X107885713Y-99006192D02*
X107847618Y-98968097D01*
X107847618Y-98968097D02*
X107809522Y-98891906D01*
X107809522Y-98891906D02*
X107809522Y-98815716D01*
X107809522Y-98815716D02*
X107847618Y-98739525D01*
X107847618Y-98739525D02*
X107885713Y-98701430D01*
X107885713Y-98701430D02*
X107961903Y-98663335D01*
X107961903Y-98663335D02*
X108152380Y-98663335D01*
X108152380Y-98663335D02*
X108266665Y-98701430D01*
X108609523Y-99158573D02*
X109219047Y-99158573D01*
X109599999Y-99463335D02*
X109599999Y-98663335D01*
X109599999Y-99044287D02*
X110057142Y-99044287D01*
X110057142Y-99463335D02*
X110057142Y-98663335D01*
X110438094Y-99044287D02*
X110704760Y-99044287D01*
X110819046Y-99463335D02*
X110438094Y-99463335D01*
X110438094Y-99463335D02*
X110438094Y-98663335D01*
X110438094Y-98663335D02*
X110819046Y-98663335D01*
X111542856Y-99463335D02*
X111161904Y-99463335D01*
X111161904Y-99463335D02*
X111161904Y-98663335D01*
X111809523Y-99463335D02*
X111809523Y-98663335D01*
X112342856Y-98663335D02*
X112495237Y-98663335D01*
X112495237Y-98663335D02*
X112571427Y-98701430D01*
X112571427Y-98701430D02*
X112647618Y-98777620D01*
X112647618Y-98777620D02*
X112685713Y-98930001D01*
X112685713Y-98930001D02*
X112685713Y-99196668D01*
X112685713Y-99196668D02*
X112647618Y-99349049D01*
X112647618Y-99349049D02*
X112571427Y-99425240D01*
X112571427Y-99425240D02*
X112495237Y-99463335D01*
X112495237Y-99463335D02*
X112342856Y-99463335D01*
X112342856Y-99463335D02*
X112266665Y-99425240D01*
X112266665Y-99425240D02*
X112190475Y-99349049D01*
X112190475Y-99349049D02*
X112152379Y-99196668D01*
X112152379Y-99196668D02*
X112152379Y-98930001D01*
X112152379Y-98930001D02*
X112190475Y-98777620D01*
X112190475Y-98777620D02*
X112266665Y-98701430D01*
X112266665Y-98701430D02*
X112342856Y-98663335D01*
X112990474Y-99425240D02*
X113104760Y-99463335D01*
X113104760Y-99463335D02*
X113295236Y-99463335D01*
X113295236Y-99463335D02*
X113371427Y-99425240D01*
X113371427Y-99425240D02*
X113409522Y-99387144D01*
X113409522Y-99387144D02*
X113447617Y-99310954D01*
X113447617Y-99310954D02*
X113447617Y-99234763D01*
X113447617Y-99234763D02*
X113409522Y-99158573D01*
X113409522Y-99158573D02*
X113371427Y-99120478D01*
X113371427Y-99120478D02*
X113295236Y-99082382D01*
X113295236Y-99082382D02*
X113142855Y-99044287D01*
X113142855Y-99044287D02*
X113066665Y-99006192D01*
X113066665Y-99006192D02*
X113028570Y-98968097D01*
X113028570Y-98968097D02*
X112990474Y-98891906D01*
X112990474Y-98891906D02*
X112990474Y-98815716D01*
X112990474Y-98815716D02*
X113028570Y-98739525D01*
X113028570Y-98739525D02*
X113066665Y-98701430D01*
X113066665Y-98701430D02*
X113142855Y-98663335D01*
X113142855Y-98663335D02*
X113333332Y-98663335D01*
X113333332Y-98663335D02*
X113447617Y-98701430D01*
X114361903Y-99234763D02*
X114742856Y-99234763D01*
X114285713Y-99463335D02*
X114552380Y-98663335D01*
X114552380Y-98663335D02*
X114819046Y-99463335D01*
X115085713Y-99463335D02*
X115085713Y-98663335D01*
X115085713Y-98663335D02*
X115276189Y-98663335D01*
X115276189Y-98663335D02*
X115390475Y-98701430D01*
X115390475Y-98701430D02*
X115466665Y-98777620D01*
X115466665Y-98777620D02*
X115504760Y-98853811D01*
X115504760Y-98853811D02*
X115542856Y-99006192D01*
X115542856Y-99006192D02*
X115542856Y-99120478D01*
X115542856Y-99120478D02*
X115504760Y-99272859D01*
X115504760Y-99272859D02*
X115466665Y-99349049D01*
X115466665Y-99349049D02*
X115390475Y-99425240D01*
X115390475Y-99425240D02*
X115276189Y-99463335D01*
X115276189Y-99463335D02*
X115085713Y-99463335D01*
X115847617Y-99234763D02*
X116228570Y-99234763D01*
X115771427Y-99463335D02*
X116038094Y-98663335D01*
X116038094Y-98663335D02*
X116304760Y-99463335D01*
X116571427Y-99463335D02*
X116571427Y-98663335D01*
X116571427Y-98663335D02*
X116876189Y-98663335D01*
X116876189Y-98663335D02*
X116952379Y-98701430D01*
X116952379Y-98701430D02*
X116990474Y-98739525D01*
X116990474Y-98739525D02*
X117028570Y-98815716D01*
X117028570Y-98815716D02*
X117028570Y-98930001D01*
X117028570Y-98930001D02*
X116990474Y-99006192D01*
X116990474Y-99006192D02*
X116952379Y-99044287D01*
X116952379Y-99044287D02*
X116876189Y-99082382D01*
X116876189Y-99082382D02*
X116571427Y-99082382D01*
X117257141Y-98663335D02*
X117714284Y-98663335D01*
X117485712Y-99463335D02*
X117485712Y-98663335D01*
X117980951Y-99044287D02*
X118247617Y-99044287D01*
X118361903Y-99463335D02*
X117980951Y-99463335D01*
X117980951Y-99463335D02*
X117980951Y-98663335D01*
X117980951Y-98663335D02*
X118361903Y-98663335D01*
X119161904Y-99463335D02*
X118895237Y-99082382D01*
X118704761Y-99463335D02*
X118704761Y-98663335D01*
X118704761Y-98663335D02*
X119009523Y-98663335D01*
X119009523Y-98663335D02*
X119085713Y-98701430D01*
X119085713Y-98701430D02*
X119123808Y-98739525D01*
X119123808Y-98739525D02*
X119161904Y-98815716D01*
X119161904Y-98815716D02*
X119161904Y-98930001D01*
X119161904Y-98930001D02*
X119123808Y-99006192D01*
X119123808Y-99006192D02*
X119085713Y-99044287D01*
X119085713Y-99044287D02*
X119009523Y-99082382D01*
X119009523Y-99082382D02*
X118704761Y-99082382D01*
X120038094Y-98930001D02*
X120228570Y-99463335D01*
X120228570Y-99463335D02*
X120419047Y-98930001D01*
X120647618Y-98663335D02*
X121142856Y-98663335D01*
X121142856Y-98663335D02*
X120876190Y-98968097D01*
X120876190Y-98968097D02*
X120990475Y-98968097D01*
X120990475Y-98968097D02*
X121066666Y-99006192D01*
X121066666Y-99006192D02*
X121104761Y-99044287D01*
X121104761Y-99044287D02*
X121142856Y-99120478D01*
X121142856Y-99120478D02*
X121142856Y-99310954D01*
X121142856Y-99310954D02*
X121104761Y-99387144D01*
X121104761Y-99387144D02*
X121066666Y-99425240D01*
X121066666Y-99425240D02*
X120990475Y-99463335D01*
X120990475Y-99463335D02*
X120761904Y-99463335D01*
X120761904Y-99463335D02*
X120685713Y-99425240D01*
X120685713Y-99425240D02*
X120647618Y-99387144D01*
X103352380Y-99789525D02*
X103504761Y-99675240D01*
X103504761Y-99675240D02*
X103657142Y-99789525D01*
X104533333Y-100513335D02*
X104533333Y-99713335D01*
X104533333Y-100094287D02*
X104990476Y-100094287D01*
X104990476Y-100513335D02*
X104990476Y-99713335D01*
X105371428Y-100094287D02*
X105638094Y-100094287D01*
X105752380Y-100513335D02*
X105371428Y-100513335D01*
X105371428Y-100513335D02*
X105371428Y-99713335D01*
X105371428Y-99713335D02*
X105752380Y-99713335D01*
X106476190Y-100513335D02*
X106095238Y-100513335D01*
X106095238Y-100513335D02*
X106095238Y-99713335D01*
X106742857Y-100513335D02*
X106742857Y-99713335D01*
X107276190Y-99713335D02*
X107428571Y-99713335D01*
X107428571Y-99713335D02*
X107504761Y-99751430D01*
X107504761Y-99751430D02*
X107580952Y-99827620D01*
X107580952Y-99827620D02*
X107619047Y-99980001D01*
X107619047Y-99980001D02*
X107619047Y-100246668D01*
X107619047Y-100246668D02*
X107580952Y-100399049D01*
X107580952Y-100399049D02*
X107504761Y-100475240D01*
X107504761Y-100475240D02*
X107428571Y-100513335D01*
X107428571Y-100513335D02*
X107276190Y-100513335D01*
X107276190Y-100513335D02*
X107199999Y-100475240D01*
X107199999Y-100475240D02*
X107123809Y-100399049D01*
X107123809Y-100399049D02*
X107085713Y-100246668D01*
X107085713Y-100246668D02*
X107085713Y-99980001D01*
X107085713Y-99980001D02*
X107123809Y-99827620D01*
X107123809Y-99827620D02*
X107199999Y-99751430D01*
X107199999Y-99751430D02*
X107276190Y-99713335D01*
X107923808Y-100475240D02*
X108038094Y-100513335D01*
X108038094Y-100513335D02*
X108228570Y-100513335D01*
X108228570Y-100513335D02*
X108304761Y-100475240D01*
X108304761Y-100475240D02*
X108342856Y-100437144D01*
X108342856Y-100437144D02*
X108380951Y-100360954D01*
X108380951Y-100360954D02*
X108380951Y-100284763D01*
X108380951Y-100284763D02*
X108342856Y-100208573D01*
X108342856Y-100208573D02*
X108304761Y-100170478D01*
X108304761Y-100170478D02*
X108228570Y-100132382D01*
X108228570Y-100132382D02*
X108076189Y-100094287D01*
X108076189Y-100094287D02*
X107999999Y-100056192D01*
X107999999Y-100056192D02*
X107961904Y-100018097D01*
X107961904Y-100018097D02*
X107923808Y-99941906D01*
X107923808Y-99941906D02*
X107923808Y-99865716D01*
X107923808Y-99865716D02*
X107961904Y-99789525D01*
X107961904Y-99789525D02*
X107999999Y-99751430D01*
X107999999Y-99751430D02*
X108076189Y-99713335D01*
X108076189Y-99713335D02*
X108266666Y-99713335D01*
X108266666Y-99713335D02*
X108380951Y-99751430D01*
X109790476Y-100437144D02*
X109752380Y-100475240D01*
X109752380Y-100475240D02*
X109638095Y-100513335D01*
X109638095Y-100513335D02*
X109561904Y-100513335D01*
X109561904Y-100513335D02*
X109447618Y-100475240D01*
X109447618Y-100475240D02*
X109371428Y-100399049D01*
X109371428Y-100399049D02*
X109333333Y-100322859D01*
X109333333Y-100322859D02*
X109295237Y-100170478D01*
X109295237Y-100170478D02*
X109295237Y-100056192D01*
X109295237Y-100056192D02*
X109333333Y-99903811D01*
X109333333Y-99903811D02*
X109371428Y-99827620D01*
X109371428Y-99827620D02*
X109447618Y-99751430D01*
X109447618Y-99751430D02*
X109561904Y-99713335D01*
X109561904Y-99713335D02*
X109638095Y-99713335D01*
X109638095Y-99713335D02*
X109752380Y-99751430D01*
X109752380Y-99751430D02*
X109790476Y-99789525D01*
X110095237Y-100284763D02*
X110476190Y-100284763D01*
X110019047Y-100513335D02*
X110285714Y-99713335D01*
X110285714Y-99713335D02*
X110552380Y-100513335D01*
X110819047Y-100513335D02*
X110819047Y-99713335D01*
X110819047Y-99713335D02*
X111085713Y-100284763D01*
X111085713Y-100284763D02*
X111352380Y-99713335D01*
X111352380Y-99713335D02*
X111352380Y-100513335D01*
X112152380Y-100513335D02*
X111695237Y-100513335D01*
X111923809Y-100513335D02*
X111923809Y-99713335D01*
X111923809Y-99713335D02*
X111847618Y-99827620D01*
X111847618Y-99827620D02*
X111771428Y-99903811D01*
X111771428Y-99903811D02*
X111695237Y-99941906D01*
X112495238Y-100437144D02*
X112533333Y-100475240D01*
X112533333Y-100475240D02*
X112495238Y-100513335D01*
X112495238Y-100513335D02*
X112457142Y-100475240D01*
X112457142Y-100475240D02*
X112495238Y-100437144D01*
X112495238Y-100437144D02*
X112495238Y-100513335D01*
X112495238Y-100018097D02*
X112533333Y-100056192D01*
X112533333Y-100056192D02*
X112495238Y-100094287D01*
X112495238Y-100094287D02*
X112457142Y-100056192D01*
X112457142Y-100056192D02*
X112495238Y-100018097D01*
X112495238Y-100018097D02*
X112495238Y-100094287D01*
X113904761Y-100513335D02*
X113447618Y-100513335D01*
X113676190Y-100513335D02*
X113676190Y-99713335D01*
X113676190Y-99713335D02*
X113599999Y-99827620D01*
X113599999Y-99827620D02*
X113523809Y-99903811D01*
X113523809Y-99903811D02*
X113447618Y-99941906D01*
X114628571Y-99713335D02*
X114247619Y-99713335D01*
X114247619Y-99713335D02*
X114209523Y-100094287D01*
X114209523Y-100094287D02*
X114247619Y-100056192D01*
X114247619Y-100056192D02*
X114323809Y-100018097D01*
X114323809Y-100018097D02*
X114514285Y-100018097D01*
X114514285Y-100018097D02*
X114590476Y-100056192D01*
X114590476Y-100056192D02*
X114628571Y-100094287D01*
X114628571Y-100094287D02*
X114666666Y-100170478D01*
X114666666Y-100170478D02*
X114666666Y-100360954D01*
X114666666Y-100360954D02*
X114628571Y-100437144D01*
X114628571Y-100437144D02*
X114590476Y-100475240D01*
X114590476Y-100475240D02*
X114514285Y-100513335D01*
X114514285Y-100513335D02*
X114323809Y-100513335D01*
X114323809Y-100513335D02*
X114247619Y-100475240D01*
X114247619Y-100475240D02*
X114209523Y-100437144D01*
X115009524Y-100513335D02*
X115009524Y-99713335D01*
X115009524Y-99713335D02*
X115314286Y-99713335D01*
X115314286Y-99713335D02*
X115390476Y-99751430D01*
X115390476Y-99751430D02*
X115428571Y-99789525D01*
X115428571Y-99789525D02*
X115466667Y-99865716D01*
X115466667Y-99865716D02*
X115466667Y-99980001D01*
X115466667Y-99980001D02*
X115428571Y-100056192D01*
X115428571Y-100056192D02*
X115390476Y-100094287D01*
X115390476Y-100094287D02*
X115314286Y-100132382D01*
X115314286Y-100132382D02*
X115009524Y-100132382D01*
X116304762Y-99713335D02*
X116761905Y-99713335D01*
X116533333Y-100513335D02*
X116533333Y-99713335D01*
X117180953Y-100132382D02*
X117180953Y-100513335D01*
X116914286Y-99713335D02*
X117180953Y-100132382D01*
X117180953Y-100132382D02*
X117447619Y-99713335D01*
X117714286Y-100513335D02*
X117714286Y-99713335D01*
X117714286Y-99713335D02*
X118019048Y-99713335D01*
X118019048Y-99713335D02*
X118095238Y-99751430D01*
X118095238Y-99751430D02*
X118133333Y-99789525D01*
X118133333Y-99789525D02*
X118171429Y-99865716D01*
X118171429Y-99865716D02*
X118171429Y-99980001D01*
X118171429Y-99980001D02*
X118133333Y-100056192D01*
X118133333Y-100056192D02*
X118095238Y-100094287D01*
X118095238Y-100094287D02*
X118019048Y-100132382D01*
X118019048Y-100132382D02*
X117714286Y-100132382D01*
X118514286Y-100094287D02*
X118780952Y-100094287D01*
X118895238Y-100513335D02*
X118514286Y-100513335D01*
X118514286Y-100513335D02*
X118514286Y-99713335D01*
X118514286Y-99713335D02*
X118895238Y-99713335D01*
X119238096Y-100208573D02*
X119847620Y-100208573D01*
X120190476Y-100284763D02*
X120571429Y-100284763D01*
X120114286Y-100513335D02*
X120380953Y-99713335D01*
X120380953Y-99713335D02*
X120647619Y-100513335D01*
X103447618Y-124830001D02*
X103638094Y-125363335D01*
X103638094Y-125363335D02*
X103828571Y-124830001D01*
X105200000Y-125287144D02*
X105161904Y-125325240D01*
X105161904Y-125325240D02*
X105047619Y-125363335D01*
X105047619Y-125363335D02*
X104971428Y-125363335D01*
X104971428Y-125363335D02*
X104857142Y-125325240D01*
X104857142Y-125325240D02*
X104780952Y-125249049D01*
X104780952Y-125249049D02*
X104742857Y-125172859D01*
X104742857Y-125172859D02*
X104704761Y-125020478D01*
X104704761Y-125020478D02*
X104704761Y-124906192D01*
X104704761Y-124906192D02*
X104742857Y-124753811D01*
X104742857Y-124753811D02*
X104780952Y-124677620D01*
X104780952Y-124677620D02*
X104857142Y-124601430D01*
X104857142Y-124601430D02*
X104971428Y-124563335D01*
X104971428Y-124563335D02*
X105047619Y-124563335D01*
X105047619Y-124563335D02*
X105161904Y-124601430D01*
X105161904Y-124601430D02*
X105200000Y-124639525D01*
X105542857Y-125363335D02*
X105542857Y-124563335D01*
X105542857Y-124944287D02*
X106000000Y-124944287D01*
X106000000Y-125363335D02*
X106000000Y-124563335D01*
X106838095Y-125363335D02*
X106571428Y-124982382D01*
X106380952Y-125363335D02*
X106380952Y-124563335D01*
X106380952Y-124563335D02*
X106685714Y-124563335D01*
X106685714Y-124563335D02*
X106761904Y-124601430D01*
X106761904Y-124601430D02*
X106799999Y-124639525D01*
X106799999Y-124639525D02*
X106838095Y-124715716D01*
X106838095Y-124715716D02*
X106838095Y-124830001D01*
X106838095Y-124830001D02*
X106799999Y-124906192D01*
X106799999Y-124906192D02*
X106761904Y-124944287D01*
X106761904Y-124944287D02*
X106685714Y-124982382D01*
X106685714Y-124982382D02*
X106380952Y-124982382D01*
X107333333Y-124563335D02*
X107485714Y-124563335D01*
X107485714Y-124563335D02*
X107561904Y-124601430D01*
X107561904Y-124601430D02*
X107638095Y-124677620D01*
X107638095Y-124677620D02*
X107676190Y-124830001D01*
X107676190Y-124830001D02*
X107676190Y-125096668D01*
X107676190Y-125096668D02*
X107638095Y-125249049D01*
X107638095Y-125249049D02*
X107561904Y-125325240D01*
X107561904Y-125325240D02*
X107485714Y-125363335D01*
X107485714Y-125363335D02*
X107333333Y-125363335D01*
X107333333Y-125363335D02*
X107257142Y-125325240D01*
X107257142Y-125325240D02*
X107180952Y-125249049D01*
X107180952Y-125249049D02*
X107142856Y-125096668D01*
X107142856Y-125096668D02*
X107142856Y-124830001D01*
X107142856Y-124830001D02*
X107180952Y-124677620D01*
X107180952Y-124677620D02*
X107257142Y-124601430D01*
X107257142Y-124601430D02*
X107333333Y-124563335D01*
X108019047Y-125363335D02*
X108019047Y-124563335D01*
X108019047Y-124563335D02*
X108476190Y-125363335D01*
X108476190Y-125363335D02*
X108476190Y-124563335D01*
X109009523Y-124563335D02*
X109161904Y-124563335D01*
X109161904Y-124563335D02*
X109238094Y-124601430D01*
X109238094Y-124601430D02*
X109314285Y-124677620D01*
X109314285Y-124677620D02*
X109352380Y-124830001D01*
X109352380Y-124830001D02*
X109352380Y-125096668D01*
X109352380Y-125096668D02*
X109314285Y-125249049D01*
X109314285Y-125249049D02*
X109238094Y-125325240D01*
X109238094Y-125325240D02*
X109161904Y-125363335D01*
X109161904Y-125363335D02*
X109009523Y-125363335D01*
X109009523Y-125363335D02*
X108933332Y-125325240D01*
X108933332Y-125325240D02*
X108857142Y-125249049D01*
X108857142Y-125249049D02*
X108819046Y-125096668D01*
X108819046Y-125096668D02*
X108819046Y-124830001D01*
X108819046Y-124830001D02*
X108857142Y-124677620D01*
X108857142Y-124677620D02*
X108933332Y-124601430D01*
X108933332Y-124601430D02*
X109009523Y-124563335D01*
X109657141Y-125325240D02*
X109771427Y-125363335D01*
X109771427Y-125363335D02*
X109961903Y-125363335D01*
X109961903Y-125363335D02*
X110038094Y-125325240D01*
X110038094Y-125325240D02*
X110076189Y-125287144D01*
X110076189Y-125287144D02*
X110114284Y-125210954D01*
X110114284Y-125210954D02*
X110114284Y-125134763D01*
X110114284Y-125134763D02*
X110076189Y-125058573D01*
X110076189Y-125058573D02*
X110038094Y-125020478D01*
X110038094Y-125020478D02*
X109961903Y-124982382D01*
X109961903Y-124982382D02*
X109809522Y-124944287D01*
X109809522Y-124944287D02*
X109733332Y-124906192D01*
X109733332Y-124906192D02*
X109695237Y-124868097D01*
X109695237Y-124868097D02*
X109657141Y-124791906D01*
X109657141Y-124791906D02*
X109657141Y-124715716D01*
X109657141Y-124715716D02*
X109695237Y-124639525D01*
X109695237Y-124639525D02*
X109733332Y-124601430D01*
X109733332Y-124601430D02*
X109809522Y-124563335D01*
X109809522Y-124563335D02*
X109999999Y-124563335D01*
X109999999Y-124563335D02*
X110114284Y-124601430D01*
X111295237Y-124563335D02*
X111295237Y-125134763D01*
X111295237Y-125134763D02*
X111257142Y-125249049D01*
X111257142Y-125249049D02*
X111180951Y-125325240D01*
X111180951Y-125325240D02*
X111066666Y-125363335D01*
X111066666Y-125363335D02*
X110990475Y-125363335D01*
X111599999Y-124563335D02*
X112133333Y-124563335D01*
X112133333Y-124563335D02*
X111790475Y-125363335D01*
X112438095Y-125287144D02*
X112476190Y-125325240D01*
X112476190Y-125325240D02*
X112438095Y-125363335D01*
X112438095Y-125363335D02*
X112399999Y-125325240D01*
X112399999Y-125325240D02*
X112438095Y-125287144D01*
X112438095Y-125287144D02*
X112438095Y-125363335D01*
X112438095Y-124868097D02*
X112476190Y-124906192D01*
X112476190Y-124906192D02*
X112438095Y-124944287D01*
X112438095Y-124944287D02*
X112399999Y-124906192D01*
X112399999Y-124906192D02*
X112438095Y-124868097D01*
X112438095Y-124868097D02*
X112438095Y-124944287D01*
X113390475Y-124639525D02*
X113428571Y-124601430D01*
X113428571Y-124601430D02*
X113504761Y-124563335D01*
X113504761Y-124563335D02*
X113695237Y-124563335D01*
X113695237Y-124563335D02*
X113771428Y-124601430D01*
X113771428Y-124601430D02*
X113809523Y-124639525D01*
X113809523Y-124639525D02*
X113847618Y-124715716D01*
X113847618Y-124715716D02*
X113847618Y-124791906D01*
X113847618Y-124791906D02*
X113809523Y-124906192D01*
X113809523Y-124906192D02*
X113352380Y-125363335D01*
X113352380Y-125363335D02*
X113847618Y-125363335D01*
X114152380Y-124639525D02*
X114190476Y-124601430D01*
X114190476Y-124601430D02*
X114266666Y-124563335D01*
X114266666Y-124563335D02*
X114457142Y-124563335D01*
X114457142Y-124563335D02*
X114533333Y-124601430D01*
X114533333Y-124601430D02*
X114571428Y-124639525D01*
X114571428Y-124639525D02*
X114609523Y-124715716D01*
X114609523Y-124715716D02*
X114609523Y-124791906D01*
X114609523Y-124791906D02*
X114571428Y-124906192D01*
X114571428Y-124906192D02*
X114114285Y-125363335D01*
X114114285Y-125363335D02*
X114609523Y-125363335D01*
X114952381Y-125363335D02*
X114952381Y-124563335D01*
X114952381Y-124563335D02*
X115257143Y-124563335D01*
X115257143Y-124563335D02*
X115333333Y-124601430D01*
X115333333Y-124601430D02*
X115371428Y-124639525D01*
X115371428Y-124639525D02*
X115409524Y-124715716D01*
X115409524Y-124715716D02*
X115409524Y-124830001D01*
X115409524Y-124830001D02*
X115371428Y-124906192D01*
X115371428Y-124906192D02*
X115333333Y-124944287D01*
X115333333Y-124944287D02*
X115257143Y-124982382D01*
X115257143Y-124982382D02*
X114952381Y-124982382D01*
X116247619Y-124563335D02*
X116704762Y-124563335D01*
X116476190Y-125363335D02*
X116476190Y-124563335D01*
X117123810Y-124982382D02*
X117123810Y-125363335D01*
X116857143Y-124563335D02*
X117123810Y-124982382D01*
X117123810Y-124982382D02*
X117390476Y-124563335D01*
X117657143Y-125363335D02*
X117657143Y-124563335D01*
X117657143Y-124563335D02*
X117961905Y-124563335D01*
X117961905Y-124563335D02*
X118038095Y-124601430D01*
X118038095Y-124601430D02*
X118076190Y-124639525D01*
X118076190Y-124639525D02*
X118114286Y-124715716D01*
X118114286Y-124715716D02*
X118114286Y-124830001D01*
X118114286Y-124830001D02*
X118076190Y-124906192D01*
X118076190Y-124906192D02*
X118038095Y-124944287D01*
X118038095Y-124944287D02*
X117961905Y-124982382D01*
X117961905Y-124982382D02*
X117657143Y-124982382D01*
X118457143Y-124944287D02*
X118723809Y-124944287D01*
X118838095Y-125363335D02*
X118457143Y-125363335D01*
X118457143Y-125363335D02*
X118457143Y-124563335D01*
X118457143Y-124563335D02*
X118838095Y-124563335D01*
X119180953Y-125058573D02*
X119790477Y-125058573D01*
X120133333Y-125134763D02*
X120514286Y-125134763D01*
X120057143Y-125363335D02*
X120323810Y-124563335D01*
X120323810Y-124563335D02*
X120590476Y-125363335D01*
X118609523Y-107925240D02*
X118723809Y-107963335D01*
X118723809Y-107963335D02*
X118914285Y-107963335D01*
X118914285Y-107963335D02*
X118990476Y-107925240D01*
X118990476Y-107925240D02*
X119028571Y-107887144D01*
X119028571Y-107887144D02*
X119066666Y-107810954D01*
X119066666Y-107810954D02*
X119066666Y-107734763D01*
X119066666Y-107734763D02*
X119028571Y-107658573D01*
X119028571Y-107658573D02*
X118990476Y-107620478D01*
X118990476Y-107620478D02*
X118914285Y-107582382D01*
X118914285Y-107582382D02*
X118761904Y-107544287D01*
X118761904Y-107544287D02*
X118685714Y-107506192D01*
X118685714Y-107506192D02*
X118647619Y-107468097D01*
X118647619Y-107468097D02*
X118609523Y-107391906D01*
X118609523Y-107391906D02*
X118609523Y-107315716D01*
X118609523Y-107315716D02*
X118647619Y-107239525D01*
X118647619Y-107239525D02*
X118685714Y-107201430D01*
X118685714Y-107201430D02*
X118761904Y-107163335D01*
X118761904Y-107163335D02*
X118952381Y-107163335D01*
X118952381Y-107163335D02*
X119066666Y-107201430D01*
X119409524Y-107544287D02*
X119676190Y-107544287D01*
X119790476Y-107963335D02*
X119409524Y-107963335D01*
X119409524Y-107963335D02*
X119409524Y-107163335D01*
X119409524Y-107163335D02*
X119790476Y-107163335D01*
X120133334Y-107963335D02*
X120133334Y-107163335D01*
X120133334Y-107163335D02*
X120590477Y-107963335D01*
X120590477Y-107963335D02*
X120590477Y-107163335D01*
X120933333Y-107925240D02*
X121047619Y-107963335D01*
X121047619Y-107963335D02*
X121238095Y-107963335D01*
X121238095Y-107963335D02*
X121314286Y-107925240D01*
X121314286Y-107925240D02*
X121352381Y-107887144D01*
X121352381Y-107887144D02*
X121390476Y-107810954D01*
X121390476Y-107810954D02*
X121390476Y-107734763D01*
X121390476Y-107734763D02*
X121352381Y-107658573D01*
X121352381Y-107658573D02*
X121314286Y-107620478D01*
X121314286Y-107620478D02*
X121238095Y-107582382D01*
X121238095Y-107582382D02*
X121085714Y-107544287D01*
X121085714Y-107544287D02*
X121009524Y-107506192D01*
X121009524Y-107506192D02*
X120971429Y-107468097D01*
X120971429Y-107468097D02*
X120933333Y-107391906D01*
X120933333Y-107391906D02*
X120933333Y-107315716D01*
X120933333Y-107315716D02*
X120971429Y-107239525D01*
X120971429Y-107239525D02*
X121009524Y-107201430D01*
X121009524Y-107201430D02*
X121085714Y-107163335D01*
X121085714Y-107163335D02*
X121276191Y-107163335D01*
X121276191Y-107163335D02*
X121390476Y-107201430D01*
D11*
X102142856Y-116569771D02*
X102485714Y-116569771D01*
X102314285Y-117169771D02*
X102314285Y-116569771D01*
X102685714Y-117169771D02*
X102685714Y-116569771D01*
X102685714Y-116569771D02*
X102914285Y-116569771D01*
X102914285Y-116569771D02*
X102971428Y-116598342D01*
X102971428Y-116598342D02*
X102999999Y-116626914D01*
X102999999Y-116626914D02*
X103028571Y-116684057D01*
X103028571Y-116684057D02*
X103028571Y-116769771D01*
X103028571Y-116769771D02*
X102999999Y-116826914D01*
X102999999Y-116826914D02*
X102971428Y-116855485D01*
X102971428Y-116855485D02*
X102914285Y-116884057D01*
X102914285Y-116884057D02*
X102685714Y-116884057D01*
X103599999Y-117169771D02*
X103257142Y-117169771D01*
X103428571Y-117169771D02*
X103428571Y-116569771D01*
X103428571Y-116569771D02*
X103371428Y-116655485D01*
X103371428Y-116655485D02*
X103314285Y-116712628D01*
X103314285Y-116712628D02*
X103257142Y-116741200D01*
X120966666Y-116354819D02*
X120966666Y-117069104D01*
X120966666Y-117069104D02*
X120919047Y-117211961D01*
X120919047Y-117211961D02*
X120823809Y-117307200D01*
X120823809Y-117307200D02*
X120680952Y-117354819D01*
X120680952Y-117354819D02*
X120585714Y-117354819D01*
X121966666Y-117354819D02*
X121395238Y-117354819D01*
X121680952Y-117354819D02*
X121680952Y-116354819D01*
X121680952Y-116354819D02*
X121585714Y-116497676D01*
X121585714Y-116497676D02*
X121490476Y-116592914D01*
X121490476Y-116592914D02*
X121395238Y-116640533D01*
X106442856Y-110669771D02*
X106785714Y-110669771D01*
X106614285Y-111269771D02*
X106614285Y-110669771D01*
X106985714Y-111269771D02*
X106985714Y-110669771D01*
X106985714Y-110669771D02*
X107214285Y-110669771D01*
X107214285Y-110669771D02*
X107271428Y-110698342D01*
X107271428Y-110698342D02*
X107299999Y-110726914D01*
X107299999Y-110726914D02*
X107328571Y-110784057D01*
X107328571Y-110784057D02*
X107328571Y-110869771D01*
X107328571Y-110869771D02*
X107299999Y-110926914D01*
X107299999Y-110926914D02*
X107271428Y-110955485D01*
X107271428Y-110955485D02*
X107214285Y-110984057D01*
X107214285Y-110984057D02*
X106985714Y-110984057D01*
X107842857Y-110869771D02*
X107842857Y-111269771D01*
X107699999Y-110641200D02*
X107557142Y-111069771D01*
X107557142Y-111069771D02*
X107928571Y-111069771D01*
X123242857Y-121569771D02*
X123242857Y-120969771D01*
X123242857Y-121255485D02*
X123585714Y-121255485D01*
X123585714Y-121569771D02*
X123585714Y-120969771D01*
X124128571Y-121169771D02*
X124128571Y-121569771D01*
X123985713Y-120941200D02*
X123842856Y-121369771D01*
X123842856Y-121369771D02*
X124214285Y-121369771D01*
X118742856Y-108419771D02*
X119085714Y-108419771D01*
X118914285Y-109019771D02*
X118914285Y-108419771D01*
X119285714Y-109019771D02*
X119285714Y-108419771D01*
X119285714Y-108419771D02*
X119514285Y-108419771D01*
X119514285Y-108419771D02*
X119571428Y-108448342D01*
X119571428Y-108448342D02*
X119599999Y-108476914D01*
X119599999Y-108476914D02*
X119628571Y-108534057D01*
X119628571Y-108534057D02*
X119628571Y-108619771D01*
X119628571Y-108619771D02*
X119599999Y-108676914D01*
X119599999Y-108676914D02*
X119571428Y-108705485D01*
X119571428Y-108705485D02*
X119514285Y-108734057D01*
X119514285Y-108734057D02*
X119285714Y-108734057D01*
X119828571Y-108419771D02*
X120199999Y-108419771D01*
X120199999Y-108419771D02*
X119999999Y-108648342D01*
X119999999Y-108648342D02*
X120085714Y-108648342D01*
X120085714Y-108648342D02*
X120142857Y-108676914D01*
X120142857Y-108676914D02*
X120171428Y-108705485D01*
X120171428Y-108705485D02*
X120199999Y-108762628D01*
X120199999Y-108762628D02*
X120199999Y-108905485D01*
X120199999Y-108905485D02*
X120171428Y-108962628D01*
X120171428Y-108962628D02*
X120142857Y-108991200D01*
X120142857Y-108991200D02*
X120085714Y-109019771D01*
X120085714Y-109019771D02*
X119914285Y-109019771D01*
X119914285Y-109019771D02*
X119857142Y-108991200D01*
X119857142Y-108991200D02*
X119828571Y-108962628D01*
X99842857Y-121569771D02*
X99842857Y-120969771D01*
X99842857Y-121255485D02*
X100185714Y-121255485D01*
X100185714Y-121569771D02*
X100185714Y-120969771D01*
X100414285Y-120969771D02*
X100785713Y-120969771D01*
X100785713Y-120969771D02*
X100585713Y-121198342D01*
X100585713Y-121198342D02*
X100671428Y-121198342D01*
X100671428Y-121198342D02*
X100728571Y-121226914D01*
X100728571Y-121226914D02*
X100757142Y-121255485D01*
X100757142Y-121255485D02*
X100785713Y-121312628D01*
X100785713Y-121312628D02*
X100785713Y-121455485D01*
X100785713Y-121455485D02*
X100757142Y-121512628D01*
X100757142Y-121512628D02*
X100728571Y-121541200D01*
X100728571Y-121541200D02*
X100671428Y-121569771D01*
X100671428Y-121569771D02*
X100499999Y-121569771D01*
X100499999Y-121569771D02*
X100442856Y-121541200D01*
X100442856Y-121541200D02*
X100414285Y-121512628D01*
X99842857Y-102969771D02*
X99842857Y-102369771D01*
X99842857Y-102655485D02*
X100185714Y-102655485D01*
X100185714Y-102969771D02*
X100185714Y-102369771D01*
X100785713Y-102969771D02*
X100442856Y-102969771D01*
X100614285Y-102969771D02*
X100614285Y-102369771D01*
X100614285Y-102369771D02*
X100557142Y-102455485D01*
X100557142Y-102455485D02*
X100499999Y-102512628D01*
X100499999Y-102512628D02*
X100442856Y-102541200D01*
X106642856Y-109019771D02*
X106985714Y-109019771D01*
X106814285Y-109619771D02*
X106814285Y-109019771D01*
X107185714Y-109619771D02*
X107185714Y-109019771D01*
X107185714Y-109019771D02*
X107414285Y-109019771D01*
X107414285Y-109019771D02*
X107471428Y-109048342D01*
X107471428Y-109048342D02*
X107499999Y-109076914D01*
X107499999Y-109076914D02*
X107528571Y-109134057D01*
X107528571Y-109134057D02*
X107528571Y-109219771D01*
X107528571Y-109219771D02*
X107499999Y-109276914D01*
X107499999Y-109276914D02*
X107471428Y-109305485D01*
X107471428Y-109305485D02*
X107414285Y-109334057D01*
X107414285Y-109334057D02*
X107185714Y-109334057D01*
X107757142Y-109076914D02*
X107785714Y-109048342D01*
X107785714Y-109048342D02*
X107842857Y-109019771D01*
X107842857Y-109019771D02*
X107985714Y-109019771D01*
X107985714Y-109019771D02*
X108042857Y-109048342D01*
X108042857Y-109048342D02*
X108071428Y-109076914D01*
X108071428Y-109076914D02*
X108099999Y-109134057D01*
X108099999Y-109134057D02*
X108099999Y-109191200D01*
X108099999Y-109191200D02*
X108071428Y-109276914D01*
X108071428Y-109276914D02*
X107728571Y-109619771D01*
X107728571Y-109619771D02*
X108099999Y-109619771D01*
X102241200Y-110785714D02*
X102269771Y-110700000D01*
X102269771Y-110700000D02*
X102269771Y-110557142D01*
X102269771Y-110557142D02*
X102241200Y-110500000D01*
X102241200Y-110500000D02*
X102212628Y-110471428D01*
X102212628Y-110471428D02*
X102155485Y-110442857D01*
X102155485Y-110442857D02*
X102098342Y-110442857D01*
X102098342Y-110442857D02*
X102041200Y-110471428D01*
X102041200Y-110471428D02*
X102012628Y-110500000D01*
X102012628Y-110500000D02*
X101984057Y-110557142D01*
X101984057Y-110557142D02*
X101955485Y-110671428D01*
X101955485Y-110671428D02*
X101926914Y-110728571D01*
X101926914Y-110728571D02*
X101898342Y-110757142D01*
X101898342Y-110757142D02*
X101841200Y-110785714D01*
X101841200Y-110785714D02*
X101784057Y-110785714D01*
X101784057Y-110785714D02*
X101726914Y-110757142D01*
X101726914Y-110757142D02*
X101698342Y-110728571D01*
X101698342Y-110728571D02*
X101669771Y-110671428D01*
X101669771Y-110671428D02*
X101669771Y-110528571D01*
X101669771Y-110528571D02*
X101698342Y-110442857D01*
X101669771Y-110014285D02*
X102098342Y-110014285D01*
X102098342Y-110014285D02*
X102184057Y-110042856D01*
X102184057Y-110042856D02*
X102241200Y-110099999D01*
X102241200Y-110099999D02*
X102269771Y-110185713D01*
X102269771Y-110185713D02*
X102269771Y-110242856D01*
X102269771Y-109414285D02*
X102269771Y-109757142D01*
X102269771Y-109585713D02*
X101669771Y-109585713D01*
X101669771Y-109585713D02*
X101755485Y-109642856D01*
X101755485Y-109642856D02*
X101812628Y-109699999D01*
X101812628Y-109699999D02*
X101841200Y-109757142D01*
X123242857Y-102969771D02*
X123242857Y-102369771D01*
X123242857Y-102655485D02*
X123585714Y-102655485D01*
X123585714Y-102969771D02*
X123585714Y-102369771D01*
X123842856Y-102426914D02*
X123871428Y-102398342D01*
X123871428Y-102398342D02*
X123928571Y-102369771D01*
X123928571Y-102369771D02*
X124071428Y-102369771D01*
X124071428Y-102369771D02*
X124128571Y-102398342D01*
X124128571Y-102398342D02*
X124157142Y-102426914D01*
X124157142Y-102426914D02*
X124185713Y-102484057D01*
X124185713Y-102484057D02*
X124185713Y-102541200D01*
X124185713Y-102541200D02*
X124157142Y-102626914D01*
X124157142Y-102626914D02*
X123814285Y-102969771D01*
X123814285Y-102969771D02*
X124185713Y-102969771D01*
X119566666Y-104954819D02*
X119566666Y-105669104D01*
X119566666Y-105669104D02*
X119519047Y-105811961D01*
X119519047Y-105811961D02*
X119423809Y-105907200D01*
X119423809Y-105907200D02*
X119280952Y-105954819D01*
X119280952Y-105954819D02*
X119185714Y-105954819D01*
X119995238Y-105050057D02*
X120042857Y-105002438D01*
X120042857Y-105002438D02*
X120138095Y-104954819D01*
X120138095Y-104954819D02*
X120376190Y-104954819D01*
X120376190Y-104954819D02*
X120471428Y-105002438D01*
X120471428Y-105002438D02*
X120519047Y-105050057D01*
X120519047Y-105050057D02*
X120566666Y-105145295D01*
X120566666Y-105145295D02*
X120566666Y-105240533D01*
X120566666Y-105240533D02*
X120519047Y-105383390D01*
X120519047Y-105383390D02*
X119947619Y-105954819D01*
X119947619Y-105954819D02*
X120566666Y-105954819D01*
%TO.C,J1*%
X104850000Y-117700000D02*
X104850000Y-118450000D01*
X104850000Y-121760000D02*
X104850000Y-123500000D01*
X104850000Y-123500000D02*
X119150000Y-123500000D01*
X119150000Y-117700000D02*
X119150000Y-118450000D01*
X119150000Y-123500000D02*
X119150000Y-121760000D01*
D12*
X106887500Y-116050000D02*
G75*
G02*
X106612500Y-116050000I-137500J0D01*
G01*
X106612500Y-116050000D02*
G75*
G02*
X106887500Y-116050000I137500J0D01*
G01*
%TO.C,H4*%
D11*
X125050000Y-123700000D02*
G75*
G02*
X122350000Y-123700000I-1350000J0D01*
G01*
X122350000Y-123700000D02*
G75*
G02*
X125050000Y-123700000I1350000J0D01*
G01*
%TO.C,H3*%
X101650000Y-123700000D02*
G75*
G02*
X98950000Y-123700000I-1350000J0D01*
G01*
X98950000Y-123700000D02*
G75*
G02*
X101650000Y-123700000I1350000J0D01*
G01*
%TO.C,H1*%
X101650000Y-100300000D02*
G75*
G02*
X98950000Y-100300000I-1350000J0D01*
G01*
X98950000Y-100300000D02*
G75*
G02*
X101650000Y-100300000I1350000J0D01*
G01*
%TO.C,SJ1*%
X102600000Y-108600000D02*
X104400000Y-108600000D01*
X104400000Y-111600000D01*
X102600000Y-111600000D01*
X102600000Y-108600000D01*
%TO.C,H2*%
X125050000Y-100300000D02*
G75*
G02*
X122350000Y-100300000I-1350000J0D01*
G01*
X122350000Y-100300000D02*
G75*
G02*
X125050000Y-100300000I1350000J0D01*
G01*
%TO.C,J2*%
X106600000Y-103200000D02*
X106600000Y-101000000D01*
X117400000Y-101000000D02*
X106600000Y-101000000D01*
X117400000Y-103200000D02*
X117400000Y-101000000D01*
D13*
X116250000Y-108900000D02*
G75*
G02*
X115950000Y-108900000I-150000J0D01*
G01*
X115950000Y-108900000D02*
G75*
G02*
X116250000Y-108900000I150000J0D01*
G01*
%TD*%
%LPC*%
D14*
%TO.C,TP1*%
X104800000Y-116000000D03*
%TD*%
D15*
%TO.C,J1*%
X106750000Y-117150000D03*
X107250000Y-117150000D03*
X107750000Y-117150000D03*
X108250000Y-117150000D03*
X108750000Y-117150000D03*
X109250000Y-117150000D03*
X109750000Y-117150000D03*
X110250000Y-117150000D03*
X110750000Y-117150000D03*
X111250000Y-117150000D03*
X111750000Y-117150000D03*
X112250000Y-117150000D03*
X112750000Y-117150000D03*
X113250000Y-117150000D03*
X113750000Y-117150000D03*
X114250000Y-117150000D03*
X114750000Y-117150000D03*
X115250000Y-117150000D03*
X115750000Y-117150000D03*
X116250000Y-117150000D03*
X116750000Y-117150000D03*
X117250000Y-117150000D03*
D16*
X105000000Y-120050000D03*
X119000000Y-120050000D03*
%TD*%
D14*
%TO.C,TP4*%
X105300000Y-110100000D03*
%TD*%
D17*
%TO.C,H4*%
X123700000Y-123700000D03*
%TD*%
D14*
%TO.C,TP3*%
X117600000Y-107850000D03*
%TD*%
D17*
%TO.C,H3*%
X100300000Y-123700000D03*
%TD*%
%TO.C,H1*%
X100300000Y-100300000D03*
%TD*%
D14*
%TO.C,TP2*%
X106200000Y-107850000D03*
%TD*%
D18*
%TO.C,SJ1*%
X103500000Y-110750000D03*
X103500000Y-109450000D03*
%TD*%
D17*
%TO.C,H2*%
X123700000Y-100300000D03*
%TD*%
D19*
%TO.C,J2*%
X115500000Y-107850000D03*
X115000000Y-107850000D03*
X114500000Y-107850000D03*
X114000000Y-107850000D03*
X113500000Y-107850000D03*
X113000000Y-107850000D03*
X112500000Y-107850000D03*
X112000000Y-107850000D03*
X111500000Y-107850000D03*
X111000000Y-107850000D03*
X110500000Y-107850000D03*
X110000000Y-107850000D03*
X109500000Y-107850000D03*
X109000000Y-107850000D03*
X108500000Y-107850000D03*
D20*
X117300000Y-104950000D03*
X106700000Y-104950000D03*
%TD*%
%LPD*%
M02*
