%TF.GenerationSoftware,KiCad,Pcbnew,10.0.3*%
%TF.CreationDate,2026-07-16T14:58:08-05:00*%
%TF.ProjectId,chronos_helios_adapter,6368726f-6e6f-4735-9f68-656c696f735f,2*%
%TF.SameCoordinates,Original*%
%TF.FileFunction,Paste,Top*%
%TF.FilePolarity,Positive*%
%FSLAX46Y46*%
G04 Gerber Fmt 4.6, Leading zero omitted, Abs format (unit mm)*
G04 Created by KiCad (PCBNEW 10.0.3) date 2026-07-16 14:58:08*
%MOMM*%
%LPD*%
G01*
G04 APERTURE LIST*
%ADD10R,0.300000X1.300000*%
%ADD11R,2.100000X2.900000*%
G04 APERTURE END LIST*
D10*
%TO.C,J1*%
X106750000Y-117150000D03*
X107250000Y-117150000D03*
X107750000Y-117150000D03*
X108250000Y-117150000D03*
X108750000Y-117150000D03*
X109250000Y-117150000D03*
X109750000Y-117150000D03*
X110250000Y-117150000D03*
X110750000Y-117150000D03*
X111250000Y-117150000D03*
X111750000Y-117150000D03*
X112250000Y-117150000D03*
X112750000Y-117150000D03*
X113250000Y-117150000D03*
X113750000Y-117150000D03*
X114250000Y-117150000D03*
X114750000Y-117150000D03*
X115250000Y-117150000D03*
X115750000Y-117150000D03*
X116250000Y-117150000D03*
X116750000Y-117150000D03*
X117250000Y-117150000D03*
D11*
X105000000Y-120050000D03*
X119000000Y-120050000D03*
%TD*%
D10*
%TO.C,J2*%
X115500000Y-107850000D03*
X115000000Y-107850000D03*
X114500000Y-107850000D03*
X114000000Y-107850000D03*
X113500000Y-107850000D03*
X113000000Y-107850000D03*
X112500000Y-107850000D03*
X112000000Y-107850000D03*
X111500000Y-107850000D03*
X111000000Y-107850000D03*
X110500000Y-107850000D03*
X110000000Y-107850000D03*
X109500000Y-107850000D03*
X109000000Y-107850000D03*
X108500000Y-107850000D03*
D11*
X117300000Y-104950000D03*
X106700000Y-104950000D03*
%TD*%
M02*
