%TF.GenerationSoftware,KiCad,Pcbnew,10.0.3*%
%TF.CreationDate,2026-07-16T14:07:11-05:00*%
%TF.ProjectId,chronos_helios_adapter,6368726f-6e6f-4735-9f68-656c696f735f,1*%
%TF.SameCoordinates,Original*%
%TF.FileFunction,Copper,L3,Inr*%
%TF.FilePolarity,Positive*%
%FSLAX46Y46*%
G04 Gerber Fmt 4.6, Leading zero omitted, Abs format (unit mm)*
G04 Created by KiCad (PCBNEW 10.0.3) date 2026-07-16 14:07:11*
%MOMM*%
%LPD*%
G01*
G04 APERTURE LIST*
%TA.AperFunction,ViaPad*%
%ADD10C,0.600000*%
%TD*%
G04 APERTURE END LIST*
D10*
%TO.N,GND*%
X107250000Y-115300000D03*
X102200000Y-110100000D03*
X115750000Y-106600000D03*
X110250000Y-114400000D03*
X108250000Y-106600000D03*
X114250000Y-106600000D03*
X114250000Y-114400000D03*
X111250000Y-106600000D03*
X111750000Y-114400000D03*
X112750000Y-115300000D03*
X112750000Y-106600000D03*
X105300000Y-110900000D03*
X106750000Y-114400000D03*
X108750000Y-114400000D03*
X119500000Y-110100000D03*
X109750000Y-106600000D03*
X117250000Y-114400000D03*
%TO.N,I2C_SDA*%
X107250000Y-110200000D03*
X111250000Y-111400000D03*
%TD*%
%TA.AperFunction,Conductor*%
%TO.N,GND*%
G36*
X125443039Y-98519685D02*
G01*
X125488794Y-98572489D01*
X125500000Y-98624000D01*
X125500000Y-122376000D01*
X125480315Y-122443039D01*
X125427511Y-122488794D01*
X125376000Y-122500000D01*
X98624000Y-122500000D01*
X98556961Y-122480315D01*
X98511206Y-122427511D01*
X98500000Y-122376000D01*
X98500000Y-120593713D01*
X98949500Y-120593713D01*
X98949500Y-120806286D01*
X98982753Y-121016239D01*
X99048444Y-121218414D01*
X99144951Y-121407820D01*
X99269890Y-121579786D01*
X99420213Y-121730109D01*
X99592179Y-121855048D01*
X99592181Y-121855049D01*
X99592184Y-121855051D01*
X99781588Y-121951557D01*
X99983757Y-122017246D01*
X100193713Y-122050500D01*
X100193714Y-122050500D01*
X100406286Y-122050500D01*
X100406287Y-122050500D01*
X100616243Y-122017246D01*
X100818412Y-121951557D01*
X101007816Y-121855051D01*
X101029789Y-121839086D01*
X101179786Y-121730109D01*
X101179788Y-121730106D01*
X101179792Y-121730104D01*
X101330104Y-121579792D01*
X101330106Y-121579788D01*
X101330109Y-121579786D01*
X101455048Y-121407820D01*
X101455047Y-121407820D01*
X101455051Y-121407816D01*
X101551557Y-121218412D01*
X101617246Y-121016243D01*
X101650500Y-120806287D01*
X101650500Y-120593713D01*
X122349500Y-120593713D01*
X122349500Y-120806286D01*
X122382753Y-121016239D01*
X122448444Y-121218414D01*
X122544951Y-121407820D01*
X122669890Y-121579786D01*
X122820213Y-121730109D01*
X122992179Y-121855048D01*
X122992181Y-121855049D01*
X122992184Y-121855051D01*
X123181588Y-121951557D01*
X123383757Y-122017246D01*
X123593713Y-122050500D01*
X123593714Y-122050500D01*
X123806286Y-122050500D01*
X123806287Y-122050500D01*
X124016243Y-122017246D01*
X124218412Y-121951557D01*
X124407816Y-121855051D01*
X124429789Y-121839086D01*
X124579786Y-121730109D01*
X124579788Y-121730106D01*
X124579792Y-121730104D01*
X124730104Y-121579792D01*
X124730106Y-121579788D01*
X124730109Y-121579786D01*
X124855048Y-121407820D01*
X124855047Y-121407820D01*
X124855051Y-121407816D01*
X124951557Y-121218412D01*
X125017246Y-121016243D01*
X125050500Y-120806287D01*
X125050500Y-120593713D01*
X125017246Y-120383757D01*
X124951557Y-120181588D01*
X124855051Y-119992184D01*
X124855049Y-119992181D01*
X124855048Y-119992179D01*
X124730109Y-119820213D01*
X124579786Y-119669890D01*
X124407820Y-119544951D01*
X124218414Y-119448444D01*
X124218413Y-119448443D01*
X124218412Y-119448443D01*
X124016243Y-119382754D01*
X124016241Y-119382753D01*
X124016240Y-119382753D01*
X123854957Y-119357208D01*
X123806287Y-119349500D01*
X123593713Y-119349500D01*
X123545042Y-119357208D01*
X123383760Y-119382753D01*
X123181585Y-119448444D01*
X122992179Y-119544951D01*
X122820213Y-119669890D01*
X122669890Y-119820213D01*
X122544951Y-119992179D01*
X122448444Y-120181585D01*
X122382753Y-120383760D01*
X122349500Y-120593713D01*
X101650500Y-120593713D01*
X101617246Y-120383757D01*
X101551557Y-120181588D01*
X101455051Y-119992184D01*
X101455049Y-119992181D01*
X101455048Y-119992179D01*
X101330109Y-119820213D01*
X101179786Y-119669890D01*
X101007820Y-119544951D01*
X100818414Y-119448444D01*
X100818413Y-119448443D01*
X100818412Y-119448443D01*
X100616243Y-119382754D01*
X100616241Y-119382753D01*
X100616240Y-119382753D01*
X100454957Y-119357208D01*
X100406287Y-119349500D01*
X100193713Y-119349500D01*
X100145042Y-119357208D01*
X99983760Y-119382753D01*
X99781585Y-119448444D01*
X99592179Y-119544951D01*
X99420213Y-119669890D01*
X99269890Y-119820213D01*
X99144951Y-119992179D01*
X99048444Y-120181585D01*
X98982753Y-120383760D01*
X98949500Y-120593713D01*
X98500000Y-120593713D01*
X98500000Y-111327525D01*
X110699500Y-111327525D01*
X110699500Y-111472475D01*
X110737016Y-111612485D01*
X110737017Y-111612488D01*
X110809488Y-111738011D01*
X110809490Y-111738013D01*
X110809491Y-111738015D01*
X110911985Y-111840509D01*
X110911986Y-111840510D01*
X110911988Y-111840511D01*
X111037511Y-111912982D01*
X111037512Y-111912982D01*
X111037515Y-111912984D01*
X111177525Y-111950500D01*
X111177528Y-111950500D01*
X111322472Y-111950500D01*
X111322475Y-111950500D01*
X111462485Y-111912984D01*
X111588015Y-111840509D01*
X111690509Y-111738015D01*
X111762984Y-111612485D01*
X111800500Y-111472475D01*
X111800500Y-111327525D01*
X111762984Y-111187515D01*
X111690509Y-111061985D01*
X111588015Y-110959491D01*
X111588013Y-110959490D01*
X111588011Y-110959488D01*
X111462488Y-110887017D01*
X111462489Y-110887017D01*
X111451006Y-110883940D01*
X111322475Y-110849500D01*
X111177525Y-110849500D01*
X111048993Y-110883940D01*
X111037511Y-110887017D01*
X110911988Y-110959488D01*
X110911982Y-110959493D01*
X110809493Y-111061982D01*
X110809488Y-111061988D01*
X110737017Y-111187511D01*
X110737016Y-111187515D01*
X110699500Y-111327525D01*
X98500000Y-111327525D01*
X98500000Y-110127525D01*
X106699500Y-110127525D01*
X106699500Y-110272475D01*
X106737016Y-110412485D01*
X106737017Y-110412488D01*
X106809488Y-110538011D01*
X106809490Y-110538013D01*
X106809491Y-110538015D01*
X106911985Y-110640509D01*
X106911986Y-110640510D01*
X106911988Y-110640511D01*
X107037511Y-110712982D01*
X107037512Y-110712982D01*
X107037515Y-110712984D01*
X107177525Y-110750500D01*
X107177528Y-110750500D01*
X107322472Y-110750500D01*
X107322475Y-110750500D01*
X107462485Y-110712984D01*
X107588015Y-110640509D01*
X107690509Y-110538015D01*
X107762984Y-110412485D01*
X107800500Y-110272475D01*
X107800500Y-110127525D01*
X107762984Y-109987515D01*
X107690509Y-109861985D01*
X107588015Y-109759491D01*
X107588013Y-109759490D01*
X107588011Y-109759488D01*
X107462488Y-109687017D01*
X107462489Y-109687017D01*
X107451006Y-109683940D01*
X107322475Y-109649500D01*
X107177525Y-109649500D01*
X107048993Y-109683940D01*
X107037511Y-109687017D01*
X106911988Y-109759488D01*
X106911982Y-109759493D01*
X106809493Y-109861982D01*
X106809488Y-109861988D01*
X106737017Y-109987511D01*
X106737016Y-109987515D01*
X106699500Y-110127525D01*
X98500000Y-110127525D01*
X98500000Y-100193713D01*
X98949500Y-100193713D01*
X98949500Y-100406286D01*
X98982753Y-100616239D01*
X99048444Y-100818414D01*
X99144951Y-101007820D01*
X99269890Y-101179786D01*
X99420213Y-101330109D01*
X99592179Y-101455048D01*
X99592181Y-101455049D01*
X99592184Y-101455051D01*
X99781588Y-101551557D01*
X99983757Y-101617246D01*
X100193713Y-101650500D01*
X100193714Y-101650500D01*
X100406286Y-101650500D01*
X100406287Y-101650500D01*
X100616243Y-101617246D01*
X100818412Y-101551557D01*
X101007816Y-101455051D01*
X101029789Y-101439086D01*
X101179786Y-101330109D01*
X101179788Y-101330106D01*
X101179792Y-101330104D01*
X101330104Y-101179792D01*
X101330106Y-101179788D01*
X101330109Y-101179786D01*
X101455048Y-101007820D01*
X101455047Y-101007820D01*
X101455051Y-101007816D01*
X101551557Y-100818412D01*
X101617246Y-100616243D01*
X101650500Y-100406287D01*
X101650500Y-100193713D01*
X122349500Y-100193713D01*
X122349500Y-100406286D01*
X122382753Y-100616239D01*
X122448444Y-100818414D01*
X122544951Y-101007820D01*
X122669890Y-101179786D01*
X122820213Y-101330109D01*
X122992179Y-101455048D01*
X122992181Y-101455049D01*
X122992184Y-101455051D01*
X123181588Y-101551557D01*
X123383757Y-101617246D01*
X123593713Y-101650500D01*
X123593714Y-101650500D01*
X123806286Y-101650500D01*
X123806287Y-101650500D01*
X124016243Y-101617246D01*
X124218412Y-101551557D01*
X124407816Y-101455051D01*
X124429789Y-101439086D01*
X124579786Y-101330109D01*
X124579788Y-101330106D01*
X124579792Y-101330104D01*
X124730104Y-101179792D01*
X124730106Y-101179788D01*
X124730109Y-101179786D01*
X124855048Y-101007820D01*
X124855047Y-101007820D01*
X124855051Y-101007816D01*
X124951557Y-100818412D01*
X125017246Y-100616243D01*
X125050500Y-100406287D01*
X125050500Y-100193713D01*
X125017246Y-99983757D01*
X124951557Y-99781588D01*
X124855051Y-99592184D01*
X124855049Y-99592181D01*
X124855048Y-99592179D01*
X124730109Y-99420213D01*
X124579786Y-99269890D01*
X124407820Y-99144951D01*
X124218414Y-99048444D01*
X124218413Y-99048443D01*
X124218412Y-99048443D01*
X124016243Y-98982754D01*
X124016241Y-98982753D01*
X124016240Y-98982753D01*
X123854957Y-98957208D01*
X123806287Y-98949500D01*
X123593713Y-98949500D01*
X123545042Y-98957208D01*
X123383760Y-98982753D01*
X123181585Y-99048444D01*
X122992179Y-99144951D01*
X122820213Y-99269890D01*
X122669890Y-99420213D01*
X122544951Y-99592179D01*
X122448444Y-99781585D01*
X122382753Y-99983760D01*
X122349500Y-100193713D01*
X101650500Y-100193713D01*
X101617246Y-99983757D01*
X101551557Y-99781588D01*
X101455051Y-99592184D01*
X101455049Y-99592181D01*
X101455048Y-99592179D01*
X101330109Y-99420213D01*
X101179786Y-99269890D01*
X101007820Y-99144951D01*
X100818414Y-99048444D01*
X100818413Y-99048443D01*
X100818412Y-99048443D01*
X100616243Y-98982754D01*
X100616241Y-98982753D01*
X100616240Y-98982753D01*
X100454957Y-98957208D01*
X100406287Y-98949500D01*
X100193713Y-98949500D01*
X100145042Y-98957208D01*
X99983760Y-98982753D01*
X99781585Y-99048444D01*
X99592179Y-99144951D01*
X99420213Y-99269890D01*
X99269890Y-99420213D01*
X99144951Y-99592179D01*
X99048444Y-99781585D01*
X98982753Y-99983760D01*
X98949500Y-100193713D01*
X98500000Y-100193713D01*
X98500000Y-98624000D01*
X98519685Y-98556961D01*
X98572489Y-98511206D01*
X98624000Y-98500000D01*
X125376000Y-98500000D01*
X125443039Y-98519685D01*
G37*
%TD.AperFunction*%
%TD*%
M02*
