%TF.GenerationSoftware,KiCad,Pcbnew,10.0.3*%
%TF.CreationDate,2026-07-16T14:07:11-05:00*%
%TF.ProjectId,chronos_helios_adapter,6368726f-6e6f-4735-9f68-656c696f735f,1*%
%TF.SameCoordinates,Original*%
%TF.FileFunction,Legend,Bot*%
%TF.FilePolarity,Positive*%
%FSLAX46Y46*%
G04 Gerber Fmt 4.6, Leading zero omitted, Abs format (unit mm)*
G04 Created by KiCad (PCBNEW 10.0.3) date 2026-07-16 14:07:11*
%MOMM*%
%LPD*%
G01*
G04 APERTURE LIST*
%ADD10C,0.150000*%
%ADD11C,2.300000*%
G04 APERTURE END LIST*
D10*
X123483331Y-107368483D02*
X123516664Y-107401817D01*
X123516664Y-107401817D02*
X123616664Y-107435150D01*
X123616664Y-107435150D02*
X123683331Y-107435150D01*
X123683331Y-107435150D02*
X123783331Y-107401817D01*
X123783331Y-107401817D02*
X123849998Y-107335150D01*
X123849998Y-107335150D02*
X123883331Y-107268483D01*
X123883331Y-107268483D02*
X123916664Y-107135150D01*
X123916664Y-107135150D02*
X123916664Y-107035150D01*
X123916664Y-107035150D02*
X123883331Y-106901817D01*
X123883331Y-106901817D02*
X123849998Y-106835150D01*
X123849998Y-106835150D02*
X123783331Y-106768483D01*
X123783331Y-106768483D02*
X123683331Y-106735150D01*
X123683331Y-106735150D02*
X123616664Y-106735150D01*
X123616664Y-106735150D02*
X123516664Y-106768483D01*
X123516664Y-106768483D02*
X123483331Y-106801817D01*
X123183331Y-107435150D02*
X123183331Y-106735150D01*
X123183331Y-107068483D02*
X122783331Y-107068483D01*
X122783331Y-107435150D02*
X122783331Y-106735150D01*
X122049998Y-107435150D02*
X122283331Y-107101817D01*
X122449998Y-107435150D02*
X122449998Y-106735150D01*
X122449998Y-106735150D02*
X122183331Y-106735150D01*
X122183331Y-106735150D02*
X122116665Y-106768483D01*
X122116665Y-106768483D02*
X122083331Y-106801817D01*
X122083331Y-106801817D02*
X122049998Y-106868483D01*
X122049998Y-106868483D02*
X122049998Y-106968483D01*
X122049998Y-106968483D02*
X122083331Y-107035150D01*
X122083331Y-107035150D02*
X122116665Y-107068483D01*
X122116665Y-107068483D02*
X122183331Y-107101817D01*
X122183331Y-107101817D02*
X122449998Y-107101817D01*
X121616665Y-106735150D02*
X121483331Y-106735150D01*
X121483331Y-106735150D02*
X121416665Y-106768483D01*
X121416665Y-106768483D02*
X121349998Y-106835150D01*
X121349998Y-106835150D02*
X121316665Y-106968483D01*
X121316665Y-106968483D02*
X121316665Y-107201817D01*
X121316665Y-107201817D02*
X121349998Y-107335150D01*
X121349998Y-107335150D02*
X121416665Y-107401817D01*
X121416665Y-107401817D02*
X121483331Y-107435150D01*
X121483331Y-107435150D02*
X121616665Y-107435150D01*
X121616665Y-107435150D02*
X121683331Y-107401817D01*
X121683331Y-107401817D02*
X121749998Y-107335150D01*
X121749998Y-107335150D02*
X121783331Y-107201817D01*
X121783331Y-107201817D02*
X121783331Y-106968483D01*
X121783331Y-106968483D02*
X121749998Y-106835150D01*
X121749998Y-106835150D02*
X121683331Y-106768483D01*
X121683331Y-106768483D02*
X121616665Y-106735150D01*
X121016665Y-107435150D02*
X121016665Y-106735150D01*
X121016665Y-106735150D02*
X120616665Y-107435150D01*
X120616665Y-107435150D02*
X120616665Y-106735150D01*
X120149999Y-106735150D02*
X120016665Y-106735150D01*
X120016665Y-106735150D02*
X119949999Y-106768483D01*
X119949999Y-106768483D02*
X119883332Y-106835150D01*
X119883332Y-106835150D02*
X119849999Y-106968483D01*
X119849999Y-106968483D02*
X119849999Y-107201817D01*
X119849999Y-107201817D02*
X119883332Y-107335150D01*
X119883332Y-107335150D02*
X119949999Y-107401817D01*
X119949999Y-107401817D02*
X120016665Y-107435150D01*
X120016665Y-107435150D02*
X120149999Y-107435150D01*
X120149999Y-107435150D02*
X120216665Y-107401817D01*
X120216665Y-107401817D02*
X120283332Y-107335150D01*
X120283332Y-107335150D02*
X120316665Y-107201817D01*
X120316665Y-107201817D02*
X120316665Y-106968483D01*
X120316665Y-106968483D02*
X120283332Y-106835150D01*
X120283332Y-106835150D02*
X120216665Y-106768483D01*
X120216665Y-106768483D02*
X120149999Y-106735150D01*
X119583332Y-107401817D02*
X119483332Y-107435150D01*
X119483332Y-107435150D02*
X119316666Y-107435150D01*
X119316666Y-107435150D02*
X119249999Y-107401817D01*
X119249999Y-107401817D02*
X119216666Y-107368483D01*
X119216666Y-107368483D02*
X119183332Y-107301817D01*
X119183332Y-107301817D02*
X119183332Y-107235150D01*
X119183332Y-107235150D02*
X119216666Y-107168483D01*
X119216666Y-107168483D02*
X119249999Y-107135150D01*
X119249999Y-107135150D02*
X119316666Y-107101817D01*
X119316666Y-107101817D02*
X119449999Y-107068483D01*
X119449999Y-107068483D02*
X119516666Y-107035150D01*
X119516666Y-107035150D02*
X119549999Y-107001817D01*
X119549999Y-107001817D02*
X119583332Y-106935150D01*
X119583332Y-106935150D02*
X119583332Y-106868483D01*
X119583332Y-106868483D02*
X119549999Y-106801817D01*
X119549999Y-106801817D02*
X119516666Y-106768483D01*
X119516666Y-106768483D02*
X119449999Y-106735150D01*
X119449999Y-106735150D02*
X119283332Y-106735150D01*
X119283332Y-106735150D02*
X119183332Y-106768483D01*
X118149999Y-106735150D02*
X118149999Y-107235150D01*
X118149999Y-107235150D02*
X118183332Y-107335150D01*
X118183332Y-107335150D02*
X118249999Y-107401817D01*
X118249999Y-107401817D02*
X118349999Y-107435150D01*
X118349999Y-107435150D02*
X118416666Y-107435150D01*
X117883333Y-106735150D02*
X117416666Y-106735150D01*
X117416666Y-106735150D02*
X117716666Y-107435150D01*
X116083333Y-106968483D02*
X116616666Y-107168483D01*
X116616666Y-107168483D02*
X116083333Y-107368483D01*
X115749999Y-107168483D02*
X115216666Y-107168483D01*
X114883332Y-106968483D02*
X114349999Y-107168483D01*
X114349999Y-107168483D02*
X114883332Y-107368483D01*
X113483332Y-107435150D02*
X113483332Y-106735150D01*
X113483332Y-107068483D02*
X113083332Y-107068483D01*
X113083332Y-107435150D02*
X113083332Y-106735150D01*
X112749999Y-107068483D02*
X112516666Y-107068483D01*
X112416666Y-107435150D02*
X112749999Y-107435150D01*
X112749999Y-107435150D02*
X112749999Y-106735150D01*
X112749999Y-106735150D02*
X112416666Y-106735150D01*
X111783333Y-107435150D02*
X112116666Y-107435150D01*
X112116666Y-107435150D02*
X112116666Y-106735150D01*
X111549999Y-107435150D02*
X111549999Y-106735150D01*
X111083333Y-106735150D02*
X110949999Y-106735150D01*
X110949999Y-106735150D02*
X110883333Y-106768483D01*
X110883333Y-106768483D02*
X110816666Y-106835150D01*
X110816666Y-106835150D02*
X110783333Y-106968483D01*
X110783333Y-106968483D02*
X110783333Y-107201817D01*
X110783333Y-107201817D02*
X110816666Y-107335150D01*
X110816666Y-107335150D02*
X110883333Y-107401817D01*
X110883333Y-107401817D02*
X110949999Y-107435150D01*
X110949999Y-107435150D02*
X111083333Y-107435150D01*
X111083333Y-107435150D02*
X111149999Y-107401817D01*
X111149999Y-107401817D02*
X111216666Y-107335150D01*
X111216666Y-107335150D02*
X111249999Y-107201817D01*
X111249999Y-107201817D02*
X111249999Y-106968483D01*
X111249999Y-106968483D02*
X111216666Y-106835150D01*
X111216666Y-106835150D02*
X111149999Y-106768483D01*
X111149999Y-106768483D02*
X111083333Y-106735150D01*
X110516666Y-107401817D02*
X110416666Y-107435150D01*
X110416666Y-107435150D02*
X110250000Y-107435150D01*
X110250000Y-107435150D02*
X110183333Y-107401817D01*
X110183333Y-107401817D02*
X110150000Y-107368483D01*
X110150000Y-107368483D02*
X110116666Y-107301817D01*
X110116666Y-107301817D02*
X110116666Y-107235150D01*
X110116666Y-107235150D02*
X110150000Y-107168483D01*
X110150000Y-107168483D02*
X110183333Y-107135150D01*
X110183333Y-107135150D02*
X110250000Y-107101817D01*
X110250000Y-107101817D02*
X110383333Y-107068483D01*
X110383333Y-107068483D02*
X110450000Y-107035150D01*
X110450000Y-107035150D02*
X110483333Y-107001817D01*
X110483333Y-107001817D02*
X110516666Y-106935150D01*
X110516666Y-106935150D02*
X110516666Y-106868483D01*
X110516666Y-106868483D02*
X110483333Y-106801817D01*
X110483333Y-106801817D02*
X110450000Y-106768483D01*
X110450000Y-106768483D02*
X110383333Y-106735150D01*
X110383333Y-106735150D02*
X110216666Y-106735150D01*
X110216666Y-106735150D02*
X110116666Y-106768483D01*
X108883333Y-107368483D02*
X108916666Y-107401817D01*
X108916666Y-107401817D02*
X109016666Y-107435150D01*
X109016666Y-107435150D02*
X109083333Y-107435150D01*
X109083333Y-107435150D02*
X109183333Y-107401817D01*
X109183333Y-107401817D02*
X109250000Y-107335150D01*
X109250000Y-107335150D02*
X109283333Y-107268483D01*
X109283333Y-107268483D02*
X109316666Y-107135150D01*
X109316666Y-107135150D02*
X109316666Y-107035150D01*
X109316666Y-107035150D02*
X109283333Y-106901817D01*
X109283333Y-106901817D02*
X109250000Y-106835150D01*
X109250000Y-106835150D02*
X109183333Y-106768483D01*
X109183333Y-106768483D02*
X109083333Y-106735150D01*
X109083333Y-106735150D02*
X109016666Y-106735150D01*
X109016666Y-106735150D02*
X108916666Y-106768483D01*
X108916666Y-106768483D02*
X108883333Y-106801817D01*
X108616666Y-107235150D02*
X108283333Y-107235150D01*
X108683333Y-107435150D02*
X108450000Y-106735150D01*
X108450000Y-106735150D02*
X108216666Y-107435150D01*
X107983333Y-107435150D02*
X107983333Y-106735150D01*
X107983333Y-106735150D02*
X107750000Y-107235150D01*
X107750000Y-107235150D02*
X107516666Y-106735150D01*
X107516666Y-106735150D02*
X107516666Y-107435150D01*
X106816666Y-107435150D02*
X107216666Y-107435150D01*
X107016666Y-107435150D02*
X107016666Y-106735150D01*
X107016666Y-106735150D02*
X107083333Y-106835150D01*
X107083333Y-106835150D02*
X107150000Y-106901817D01*
X107150000Y-106901817D02*
X107216666Y-106935150D01*
X106016666Y-107235150D02*
X105683333Y-107235150D01*
X106083333Y-107435150D02*
X105850000Y-106735150D01*
X105850000Y-106735150D02*
X105616666Y-107435150D01*
X105383333Y-107435150D02*
X105383333Y-106735150D01*
X105383333Y-106735150D02*
X105216666Y-106735150D01*
X105216666Y-106735150D02*
X105116666Y-106768483D01*
X105116666Y-106768483D02*
X105050000Y-106835150D01*
X105050000Y-106835150D02*
X105016666Y-106901817D01*
X105016666Y-106901817D02*
X104983333Y-107035150D01*
X104983333Y-107035150D02*
X104983333Y-107135150D01*
X104983333Y-107135150D02*
X105016666Y-107268483D01*
X105016666Y-107268483D02*
X105050000Y-107335150D01*
X105050000Y-107335150D02*
X105116666Y-107401817D01*
X105116666Y-107401817D02*
X105216666Y-107435150D01*
X105216666Y-107435150D02*
X105383333Y-107435150D01*
X104716666Y-107235150D02*
X104383333Y-107235150D01*
X104783333Y-107435150D02*
X104550000Y-106735150D01*
X104550000Y-106735150D02*
X104316666Y-107435150D01*
X104083333Y-107435150D02*
X104083333Y-106735150D01*
X104083333Y-106735150D02*
X103816666Y-106735150D01*
X103816666Y-106735150D02*
X103750000Y-106768483D01*
X103750000Y-106768483D02*
X103716666Y-106801817D01*
X103716666Y-106801817D02*
X103683333Y-106868483D01*
X103683333Y-106868483D02*
X103683333Y-106968483D01*
X103683333Y-106968483D02*
X103716666Y-107035150D01*
X103716666Y-107035150D02*
X103750000Y-107068483D01*
X103750000Y-107068483D02*
X103816666Y-107101817D01*
X103816666Y-107101817D02*
X104083333Y-107101817D01*
X103483333Y-106735150D02*
X103083333Y-106735150D01*
X103283333Y-107435150D02*
X103283333Y-106735150D01*
X102850000Y-107068483D02*
X102616667Y-107068483D01*
X102516667Y-107435150D02*
X102850000Y-107435150D01*
X102850000Y-107435150D02*
X102850000Y-106735150D01*
X102850000Y-106735150D02*
X102516667Y-106735150D01*
X101816667Y-107435150D02*
X102050000Y-107101817D01*
X102216667Y-107435150D02*
X102216667Y-106735150D01*
X102216667Y-106735150D02*
X101950000Y-106735150D01*
X101950000Y-106735150D02*
X101883334Y-106768483D01*
X101883334Y-106768483D02*
X101850000Y-106801817D01*
X101850000Y-106801817D02*
X101816667Y-106868483D01*
X101816667Y-106868483D02*
X101816667Y-106968483D01*
X101816667Y-106968483D02*
X101850000Y-107035150D01*
X101850000Y-107035150D02*
X101883334Y-107068483D01*
X101883334Y-107068483D02*
X101950000Y-107101817D01*
X101950000Y-107101817D02*
X102216667Y-107101817D01*
X101050001Y-106968483D02*
X100883334Y-107435150D01*
X100883334Y-107435150D02*
X100716667Y-106968483D01*
X100083334Y-107435150D02*
X100483334Y-107435150D01*
X100283334Y-107435150D02*
X100283334Y-106735150D01*
X100283334Y-106735150D02*
X100350001Y-106835150D01*
X100350001Y-106835150D02*
X100416668Y-106901817D01*
X100416668Y-106901817D02*
X100483334Y-106935150D01*
X125366663Y-107862111D02*
X125366663Y-108362111D01*
X125366663Y-108362111D02*
X125399996Y-108462111D01*
X125399996Y-108462111D02*
X125466663Y-108528778D01*
X125466663Y-108528778D02*
X125566663Y-108562111D01*
X125566663Y-108562111D02*
X125633330Y-108562111D01*
X124666663Y-108562111D02*
X125066663Y-108562111D01*
X124866663Y-108562111D02*
X124866663Y-107862111D01*
X124866663Y-107862111D02*
X124933330Y-107962111D01*
X124933330Y-107962111D02*
X124999997Y-108028778D01*
X124999997Y-108028778D02*
X125066663Y-108062111D01*
X124366663Y-108495444D02*
X124333330Y-108528778D01*
X124333330Y-108528778D02*
X124366663Y-108562111D01*
X124366663Y-108562111D02*
X124399996Y-108528778D01*
X124399996Y-108528778D02*
X124366663Y-108495444D01*
X124366663Y-108495444D02*
X124366663Y-108562111D01*
X124366663Y-108128778D02*
X124333330Y-108162111D01*
X124333330Y-108162111D02*
X124366663Y-108195444D01*
X124366663Y-108195444D02*
X124399996Y-108162111D01*
X124399996Y-108162111D02*
X124366663Y-108128778D01*
X124366663Y-108128778D02*
X124366663Y-108195444D01*
X123533330Y-108528778D02*
X123466664Y-108562111D01*
X123466664Y-108562111D02*
X123333330Y-108562111D01*
X123333330Y-108562111D02*
X123266664Y-108528778D01*
X123266664Y-108528778D02*
X123233330Y-108462111D01*
X123233330Y-108462111D02*
X123233330Y-108428778D01*
X123233330Y-108428778D02*
X123266664Y-108362111D01*
X123266664Y-108362111D02*
X123333330Y-108328778D01*
X123333330Y-108328778D02*
X123433330Y-108328778D01*
X123433330Y-108328778D02*
X123499997Y-108295444D01*
X123499997Y-108295444D02*
X123533330Y-108228778D01*
X123533330Y-108228778D02*
X123533330Y-108195444D01*
X123533330Y-108195444D02*
X123499997Y-108128778D01*
X123499997Y-108128778D02*
X123433330Y-108095444D01*
X123433330Y-108095444D02*
X123333330Y-108095444D01*
X123333330Y-108095444D02*
X123266664Y-108128778D01*
X123033330Y-108095444D02*
X122766663Y-108095444D01*
X122933330Y-107862111D02*
X122933330Y-108462111D01*
X122933330Y-108462111D02*
X122899997Y-108528778D01*
X122899997Y-108528778D02*
X122833330Y-108562111D01*
X122833330Y-108562111D02*
X122766663Y-108562111D01*
X122533330Y-108562111D02*
X122533330Y-108095444D01*
X122533330Y-108228778D02*
X122499997Y-108162111D01*
X122499997Y-108162111D02*
X122466663Y-108128778D01*
X122466663Y-108128778D02*
X122399997Y-108095444D01*
X122399997Y-108095444D02*
X122333330Y-108095444D01*
X121799997Y-108562111D02*
X121799997Y-108195444D01*
X121799997Y-108195444D02*
X121833330Y-108128778D01*
X121833330Y-108128778D02*
X121899997Y-108095444D01*
X121899997Y-108095444D02*
X122033330Y-108095444D01*
X122033330Y-108095444D02*
X122099997Y-108128778D01*
X121799997Y-108528778D02*
X121866664Y-108562111D01*
X121866664Y-108562111D02*
X122033330Y-108562111D01*
X122033330Y-108562111D02*
X122099997Y-108528778D01*
X122099997Y-108528778D02*
X122133330Y-108462111D01*
X122133330Y-108462111D02*
X122133330Y-108395444D01*
X122133330Y-108395444D02*
X122099997Y-108328778D01*
X122099997Y-108328778D02*
X122033330Y-108295444D01*
X122033330Y-108295444D02*
X121866664Y-108295444D01*
X121866664Y-108295444D02*
X121799997Y-108262111D01*
X121466664Y-108562111D02*
X121466664Y-108095444D01*
X121466664Y-107862111D02*
X121499997Y-107895444D01*
X121499997Y-107895444D02*
X121466664Y-107928778D01*
X121466664Y-107928778D02*
X121433331Y-107895444D01*
X121433331Y-107895444D02*
X121466664Y-107862111D01*
X121466664Y-107862111D02*
X121466664Y-107928778D01*
X120833331Y-108095444D02*
X120833331Y-108662111D01*
X120833331Y-108662111D02*
X120866664Y-108728778D01*
X120866664Y-108728778D02*
X120899998Y-108762111D01*
X120899998Y-108762111D02*
X120966664Y-108795444D01*
X120966664Y-108795444D02*
X121066664Y-108795444D01*
X121066664Y-108795444D02*
X121133331Y-108762111D01*
X120833331Y-108528778D02*
X120899998Y-108562111D01*
X120899998Y-108562111D02*
X121033331Y-108562111D01*
X121033331Y-108562111D02*
X121099998Y-108528778D01*
X121099998Y-108528778D02*
X121133331Y-108495444D01*
X121133331Y-108495444D02*
X121166664Y-108428778D01*
X121166664Y-108428778D02*
X121166664Y-108228778D01*
X121166664Y-108228778D02*
X121133331Y-108162111D01*
X121133331Y-108162111D02*
X121099998Y-108128778D01*
X121099998Y-108128778D02*
X121033331Y-108095444D01*
X121033331Y-108095444D02*
X120899998Y-108095444D01*
X120899998Y-108095444D02*
X120833331Y-108128778D01*
X120499998Y-108562111D02*
X120499998Y-107862111D01*
X120199998Y-108562111D02*
X120199998Y-108195444D01*
X120199998Y-108195444D02*
X120233331Y-108128778D01*
X120233331Y-108128778D02*
X120299998Y-108095444D01*
X120299998Y-108095444D02*
X120399998Y-108095444D01*
X120399998Y-108095444D02*
X120466665Y-108128778D01*
X120466665Y-108128778D02*
X120499998Y-108162111D01*
X119966665Y-108095444D02*
X119699998Y-108095444D01*
X119866665Y-107862111D02*
X119866665Y-108462111D01*
X119866665Y-108462111D02*
X119833332Y-108528778D01*
X119833332Y-108528778D02*
X119766665Y-108562111D01*
X119766665Y-108562111D02*
X119699998Y-108562111D01*
X118966665Y-107928778D02*
X118933332Y-107895444D01*
X118933332Y-107895444D02*
X118866665Y-107862111D01*
X118866665Y-107862111D02*
X118699999Y-107862111D01*
X118699999Y-107862111D02*
X118633332Y-107895444D01*
X118633332Y-107895444D02*
X118599999Y-107928778D01*
X118599999Y-107928778D02*
X118566665Y-107995444D01*
X118566665Y-107995444D02*
X118566665Y-108062111D01*
X118566665Y-108062111D02*
X118599999Y-108162111D01*
X118599999Y-108162111D02*
X118999999Y-108562111D01*
X118999999Y-108562111D02*
X118566665Y-108562111D01*
X118299998Y-107928778D02*
X118266665Y-107895444D01*
X118266665Y-107895444D02*
X118199998Y-107862111D01*
X118199998Y-107862111D02*
X118033332Y-107862111D01*
X118033332Y-107862111D02*
X117966665Y-107895444D01*
X117966665Y-107895444D02*
X117933332Y-107928778D01*
X117933332Y-107928778D02*
X117899998Y-107995444D01*
X117899998Y-107995444D02*
X117899998Y-108062111D01*
X117899998Y-108062111D02*
X117933332Y-108162111D01*
X117933332Y-108162111D02*
X118333332Y-108562111D01*
X118333332Y-108562111D02*
X117899998Y-108562111D01*
X117599998Y-108095444D02*
X117599998Y-108795444D01*
X117599998Y-108128778D02*
X117533331Y-108095444D01*
X117533331Y-108095444D02*
X117399998Y-108095444D01*
X117399998Y-108095444D02*
X117333331Y-108128778D01*
X117333331Y-108128778D02*
X117299998Y-108162111D01*
X117299998Y-108162111D02*
X117266665Y-108228778D01*
X117266665Y-108228778D02*
X117266665Y-108428778D01*
X117266665Y-108428778D02*
X117299998Y-108495444D01*
X117299998Y-108495444D02*
X117333331Y-108528778D01*
X117333331Y-108528778D02*
X117399998Y-108562111D01*
X117399998Y-108562111D02*
X117533331Y-108562111D01*
X117533331Y-108562111D02*
X117599998Y-108528778D01*
X116299999Y-107862111D02*
X116233332Y-107862111D01*
X116233332Y-107862111D02*
X116166665Y-107895444D01*
X116166665Y-107895444D02*
X116133332Y-107928778D01*
X116133332Y-107928778D02*
X116099999Y-107995444D01*
X116099999Y-107995444D02*
X116066665Y-108128778D01*
X116066665Y-108128778D02*
X116066665Y-108295444D01*
X116066665Y-108295444D02*
X116099999Y-108428778D01*
X116099999Y-108428778D02*
X116133332Y-108495444D01*
X116133332Y-108495444D02*
X116166665Y-108528778D01*
X116166665Y-108528778D02*
X116233332Y-108562111D01*
X116233332Y-108562111D02*
X116299999Y-108562111D01*
X116299999Y-108562111D02*
X116366665Y-108528778D01*
X116366665Y-108528778D02*
X116399999Y-108495444D01*
X116399999Y-108495444D02*
X116433332Y-108428778D01*
X116433332Y-108428778D02*
X116466665Y-108295444D01*
X116466665Y-108295444D02*
X116466665Y-108128778D01*
X116466665Y-108128778D02*
X116433332Y-107995444D01*
X116433332Y-107995444D02*
X116399999Y-107928778D01*
X116399999Y-107928778D02*
X116366665Y-107895444D01*
X116366665Y-107895444D02*
X116299999Y-107862111D01*
X115766665Y-108495444D02*
X115733332Y-108528778D01*
X115733332Y-108528778D02*
X115766665Y-108562111D01*
X115766665Y-108562111D02*
X115799998Y-108528778D01*
X115799998Y-108528778D02*
X115766665Y-108495444D01*
X115766665Y-108495444D02*
X115766665Y-108562111D01*
X115099999Y-107862111D02*
X115433332Y-107862111D01*
X115433332Y-107862111D02*
X115466665Y-108195444D01*
X115466665Y-108195444D02*
X115433332Y-108162111D01*
X115433332Y-108162111D02*
X115366665Y-108128778D01*
X115366665Y-108128778D02*
X115199999Y-108128778D01*
X115199999Y-108128778D02*
X115133332Y-108162111D01*
X115133332Y-108162111D02*
X115099999Y-108195444D01*
X115099999Y-108195444D02*
X115066665Y-108262111D01*
X115066665Y-108262111D02*
X115066665Y-108428778D01*
X115066665Y-108428778D02*
X115099999Y-108495444D01*
X115099999Y-108495444D02*
X115133332Y-108528778D01*
X115133332Y-108528778D02*
X115199999Y-108562111D01*
X115199999Y-108562111D02*
X115366665Y-108562111D01*
X115366665Y-108562111D02*
X115433332Y-108528778D01*
X115433332Y-108528778D02*
X115466665Y-108495444D01*
X114766665Y-108562111D02*
X114766665Y-108095444D01*
X114766665Y-108162111D02*
X114733332Y-108128778D01*
X114733332Y-108128778D02*
X114666665Y-108095444D01*
X114666665Y-108095444D02*
X114566665Y-108095444D01*
X114566665Y-108095444D02*
X114499998Y-108128778D01*
X114499998Y-108128778D02*
X114466665Y-108195444D01*
X114466665Y-108195444D02*
X114466665Y-108562111D01*
X114466665Y-108195444D02*
X114433332Y-108128778D01*
X114433332Y-108128778D02*
X114366665Y-108095444D01*
X114366665Y-108095444D02*
X114266665Y-108095444D01*
X114266665Y-108095444D02*
X114199998Y-108128778D01*
X114199998Y-108128778D02*
X114166665Y-108195444D01*
X114166665Y-108195444D02*
X114166665Y-108562111D01*
X113833332Y-108562111D02*
X113833332Y-108095444D01*
X113833332Y-108162111D02*
X113799999Y-108128778D01*
X113799999Y-108128778D02*
X113733332Y-108095444D01*
X113733332Y-108095444D02*
X113633332Y-108095444D01*
X113633332Y-108095444D02*
X113566665Y-108128778D01*
X113566665Y-108128778D02*
X113533332Y-108195444D01*
X113533332Y-108195444D02*
X113533332Y-108562111D01*
X113533332Y-108195444D02*
X113499999Y-108128778D01*
X113499999Y-108128778D02*
X113433332Y-108095444D01*
X113433332Y-108095444D02*
X113333332Y-108095444D01*
X113333332Y-108095444D02*
X113266665Y-108128778D01*
X113266665Y-108128778D02*
X113233332Y-108195444D01*
X113233332Y-108195444D02*
X113233332Y-108562111D01*
X112466666Y-107862111D02*
X112066666Y-107862111D01*
X112266666Y-108562111D02*
X112266666Y-107862111D01*
X111900000Y-108095444D02*
X111733333Y-108562111D01*
X111566666Y-108095444D02*
X111733333Y-108562111D01*
X111733333Y-108562111D02*
X111800000Y-108728778D01*
X111800000Y-108728778D02*
X111833333Y-108762111D01*
X111833333Y-108762111D02*
X111900000Y-108795444D01*
X111300000Y-108095444D02*
X111300000Y-108795444D01*
X111300000Y-108128778D02*
X111233333Y-108095444D01*
X111233333Y-108095444D02*
X111100000Y-108095444D01*
X111100000Y-108095444D02*
X111033333Y-108128778D01*
X111033333Y-108128778D02*
X111000000Y-108162111D01*
X111000000Y-108162111D02*
X110966667Y-108228778D01*
X110966667Y-108228778D02*
X110966667Y-108428778D01*
X110966667Y-108428778D02*
X111000000Y-108495444D01*
X111000000Y-108495444D02*
X111033333Y-108528778D01*
X111033333Y-108528778D02*
X111100000Y-108562111D01*
X111100000Y-108562111D02*
X111233333Y-108562111D01*
X111233333Y-108562111D02*
X111300000Y-108528778D01*
X110400000Y-108528778D02*
X110466667Y-108562111D01*
X110466667Y-108562111D02*
X110600000Y-108562111D01*
X110600000Y-108562111D02*
X110666667Y-108528778D01*
X110666667Y-108528778D02*
X110700000Y-108462111D01*
X110700000Y-108462111D02*
X110700000Y-108195444D01*
X110700000Y-108195444D02*
X110666667Y-108128778D01*
X110666667Y-108128778D02*
X110600000Y-108095444D01*
X110600000Y-108095444D02*
X110466667Y-108095444D01*
X110466667Y-108095444D02*
X110400000Y-108128778D01*
X110400000Y-108128778D02*
X110366667Y-108195444D01*
X110366667Y-108195444D02*
X110366667Y-108262111D01*
X110366667Y-108262111D02*
X110700000Y-108328778D01*
X110066667Y-108295444D02*
X109533334Y-108295444D01*
X109233333Y-108362111D02*
X108900000Y-108362111D01*
X109300000Y-108562111D02*
X109066667Y-107862111D01*
X109066667Y-107862111D02*
X108833333Y-108562111D01*
X107833334Y-108195444D02*
X108066667Y-108195444D01*
X108066667Y-108562111D02*
X108066667Y-107862111D01*
X108066667Y-107862111D02*
X107733334Y-107862111D01*
X107233334Y-108195444D02*
X107466667Y-108195444D01*
X107466667Y-108562111D02*
X107466667Y-107862111D01*
X107466667Y-107862111D02*
X107133334Y-107862111D01*
X106466667Y-108495444D02*
X106500000Y-108528778D01*
X106500000Y-108528778D02*
X106600000Y-108562111D01*
X106600000Y-108562111D02*
X106666667Y-108562111D01*
X106666667Y-108562111D02*
X106766667Y-108528778D01*
X106766667Y-108528778D02*
X106833334Y-108462111D01*
X106833334Y-108462111D02*
X106866667Y-108395444D01*
X106866667Y-108395444D02*
X106900000Y-108262111D01*
X106900000Y-108262111D02*
X106900000Y-108162111D01*
X106900000Y-108162111D02*
X106866667Y-108028778D01*
X106866667Y-108028778D02*
X106833334Y-107962111D01*
X106833334Y-107962111D02*
X106766667Y-107895444D01*
X106766667Y-107895444D02*
X106666667Y-107862111D01*
X106666667Y-107862111D02*
X106600000Y-107862111D01*
X106600000Y-107862111D02*
X106500000Y-107895444D01*
X106500000Y-107895444D02*
X106466667Y-107928778D01*
X105733334Y-108095444D02*
X105466667Y-108095444D01*
X105633334Y-107862111D02*
X105633334Y-108462111D01*
X105633334Y-108462111D02*
X105600001Y-108528778D01*
X105600001Y-108528778D02*
X105533334Y-108562111D01*
X105533334Y-108562111D02*
X105466667Y-108562111D01*
X105133334Y-108562111D02*
X105200001Y-108528778D01*
X105200001Y-108528778D02*
X105233334Y-108495444D01*
X105233334Y-108495444D02*
X105266667Y-108428778D01*
X105266667Y-108428778D02*
X105266667Y-108228778D01*
X105266667Y-108228778D02*
X105233334Y-108162111D01*
X105233334Y-108162111D02*
X105200001Y-108128778D01*
X105200001Y-108128778D02*
X105133334Y-108095444D01*
X105133334Y-108095444D02*
X105033334Y-108095444D01*
X105033334Y-108095444D02*
X104966667Y-108128778D01*
X104966667Y-108128778D02*
X104933334Y-108162111D01*
X104933334Y-108162111D02*
X104900001Y-108228778D01*
X104900001Y-108228778D02*
X104900001Y-108428778D01*
X104900001Y-108428778D02*
X104933334Y-108495444D01*
X104933334Y-108495444D02*
X104966667Y-108528778D01*
X104966667Y-108528778D02*
X105033334Y-108562111D01*
X105033334Y-108562111D02*
X105133334Y-108562111D01*
X103666668Y-108495444D02*
X103700001Y-108528778D01*
X103700001Y-108528778D02*
X103800001Y-108562111D01*
X103800001Y-108562111D02*
X103866668Y-108562111D01*
X103866668Y-108562111D02*
X103966668Y-108528778D01*
X103966668Y-108528778D02*
X104033335Y-108462111D01*
X104033335Y-108462111D02*
X104066668Y-108395444D01*
X104066668Y-108395444D02*
X104100001Y-108262111D01*
X104100001Y-108262111D02*
X104100001Y-108162111D01*
X104100001Y-108162111D02*
X104066668Y-108028778D01*
X104066668Y-108028778D02*
X104033335Y-107962111D01*
X104033335Y-107962111D02*
X103966668Y-107895444D01*
X103966668Y-107895444D02*
X103866668Y-107862111D01*
X103866668Y-107862111D02*
X103800001Y-107862111D01*
X103800001Y-107862111D02*
X103700001Y-107895444D01*
X103700001Y-107895444D02*
X103666668Y-107928778D01*
X103366668Y-108562111D02*
X103366668Y-107862111D01*
X103066668Y-108562111D02*
X103066668Y-108195444D01*
X103066668Y-108195444D02*
X103100001Y-108128778D01*
X103100001Y-108128778D02*
X103166668Y-108095444D01*
X103166668Y-108095444D02*
X103266668Y-108095444D01*
X103266668Y-108095444D02*
X103333335Y-108128778D01*
X103333335Y-108128778D02*
X103366668Y-108162111D01*
X102733335Y-108562111D02*
X102733335Y-108095444D01*
X102733335Y-108228778D02*
X102700002Y-108162111D01*
X102700002Y-108162111D02*
X102666668Y-108128778D01*
X102666668Y-108128778D02*
X102600002Y-108095444D01*
X102600002Y-108095444D02*
X102533335Y-108095444D01*
X102200002Y-108562111D02*
X102266669Y-108528778D01*
X102266669Y-108528778D02*
X102300002Y-108495444D01*
X102300002Y-108495444D02*
X102333335Y-108428778D01*
X102333335Y-108428778D02*
X102333335Y-108228778D01*
X102333335Y-108228778D02*
X102300002Y-108162111D01*
X102300002Y-108162111D02*
X102266669Y-108128778D01*
X102266669Y-108128778D02*
X102200002Y-108095444D01*
X102200002Y-108095444D02*
X102100002Y-108095444D01*
X102100002Y-108095444D02*
X102033335Y-108128778D01*
X102033335Y-108128778D02*
X102000002Y-108162111D01*
X102000002Y-108162111D02*
X101966669Y-108228778D01*
X101966669Y-108228778D02*
X101966669Y-108428778D01*
X101966669Y-108428778D02*
X102000002Y-108495444D01*
X102000002Y-108495444D02*
X102033335Y-108528778D01*
X102033335Y-108528778D02*
X102100002Y-108562111D01*
X102100002Y-108562111D02*
X102200002Y-108562111D01*
X101666669Y-108095444D02*
X101666669Y-108562111D01*
X101666669Y-108162111D02*
X101633336Y-108128778D01*
X101633336Y-108128778D02*
X101566669Y-108095444D01*
X101566669Y-108095444D02*
X101466669Y-108095444D01*
X101466669Y-108095444D02*
X101400002Y-108128778D01*
X101400002Y-108128778D02*
X101366669Y-108195444D01*
X101366669Y-108195444D02*
X101366669Y-108562111D01*
X100933336Y-108562111D02*
X101000003Y-108528778D01*
X101000003Y-108528778D02*
X101033336Y-108495444D01*
X101033336Y-108495444D02*
X101066669Y-108428778D01*
X101066669Y-108428778D02*
X101066669Y-108228778D01*
X101066669Y-108228778D02*
X101033336Y-108162111D01*
X101033336Y-108162111D02*
X101000003Y-108128778D01*
X101000003Y-108128778D02*
X100933336Y-108095444D01*
X100933336Y-108095444D02*
X100833336Y-108095444D01*
X100833336Y-108095444D02*
X100766669Y-108128778D01*
X100766669Y-108128778D02*
X100733336Y-108162111D01*
X100733336Y-108162111D02*
X100700003Y-108228778D01*
X100700003Y-108228778D02*
X100700003Y-108428778D01*
X100700003Y-108428778D02*
X100733336Y-108495444D01*
X100733336Y-108495444D02*
X100766669Y-108528778D01*
X100766669Y-108528778D02*
X100833336Y-108562111D01*
X100833336Y-108562111D02*
X100933336Y-108562111D01*
X100433336Y-108528778D02*
X100366670Y-108562111D01*
X100366670Y-108562111D02*
X100233336Y-108562111D01*
X100233336Y-108562111D02*
X100166670Y-108528778D01*
X100166670Y-108528778D02*
X100133336Y-108462111D01*
X100133336Y-108462111D02*
X100133336Y-108428778D01*
X100133336Y-108428778D02*
X100166670Y-108362111D01*
X100166670Y-108362111D02*
X100233336Y-108328778D01*
X100233336Y-108328778D02*
X100333336Y-108328778D01*
X100333336Y-108328778D02*
X100400003Y-108295444D01*
X100400003Y-108295444D02*
X100433336Y-108228778D01*
X100433336Y-108228778D02*
X100433336Y-108195444D01*
X100433336Y-108195444D02*
X100400003Y-108128778D01*
X100400003Y-108128778D02*
X100333336Y-108095444D01*
X100333336Y-108095444D02*
X100233336Y-108095444D01*
X100233336Y-108095444D02*
X100166670Y-108128778D01*
X99100003Y-107862111D02*
X99100003Y-108362111D01*
X99100003Y-108362111D02*
X99133336Y-108462111D01*
X99133336Y-108462111D02*
X99200003Y-108528778D01*
X99200003Y-108528778D02*
X99300003Y-108562111D01*
X99300003Y-108562111D02*
X99366670Y-108562111D01*
X98833337Y-107862111D02*
X98366670Y-107862111D01*
X98366670Y-107862111D02*
X98666670Y-108562111D01*
X125483330Y-108989072D02*
X125483330Y-109489072D01*
X125483330Y-109489072D02*
X125516663Y-109589072D01*
X125516663Y-109589072D02*
X125583330Y-109655739D01*
X125583330Y-109655739D02*
X125683330Y-109689072D01*
X125683330Y-109689072D02*
X125749997Y-109689072D01*
X125183330Y-109055739D02*
X125149997Y-109022405D01*
X125149997Y-109022405D02*
X125083330Y-108989072D01*
X125083330Y-108989072D02*
X124916664Y-108989072D01*
X124916664Y-108989072D02*
X124849997Y-109022405D01*
X124849997Y-109022405D02*
X124816664Y-109055739D01*
X124816664Y-109055739D02*
X124783330Y-109122405D01*
X124783330Y-109122405D02*
X124783330Y-109189072D01*
X124783330Y-109189072D02*
X124816664Y-109289072D01*
X124816664Y-109289072D02*
X125216664Y-109689072D01*
X125216664Y-109689072D02*
X124783330Y-109689072D01*
X124483330Y-109622405D02*
X124449997Y-109655739D01*
X124449997Y-109655739D02*
X124483330Y-109689072D01*
X124483330Y-109689072D02*
X124516663Y-109655739D01*
X124516663Y-109655739D02*
X124483330Y-109622405D01*
X124483330Y-109622405D02*
X124483330Y-109689072D01*
X124483330Y-109255739D02*
X124449997Y-109289072D01*
X124449997Y-109289072D02*
X124483330Y-109322405D01*
X124483330Y-109322405D02*
X124516663Y-109289072D01*
X124516663Y-109289072D02*
X124483330Y-109255739D01*
X124483330Y-109255739D02*
X124483330Y-109322405D01*
X123649997Y-109489072D02*
X123316664Y-109489072D01*
X123716664Y-109689072D02*
X123483331Y-108989072D01*
X123483331Y-108989072D02*
X123249997Y-109689072D01*
X122749997Y-109655739D02*
X122816664Y-109689072D01*
X122816664Y-109689072D02*
X122949997Y-109689072D01*
X122949997Y-109689072D02*
X123016664Y-109655739D01*
X123016664Y-109655739D02*
X123049997Y-109589072D01*
X123049997Y-109589072D02*
X123049997Y-109322405D01*
X123049997Y-109322405D02*
X123016664Y-109255739D01*
X123016664Y-109255739D02*
X122949997Y-109222405D01*
X122949997Y-109222405D02*
X122816664Y-109222405D01*
X122816664Y-109222405D02*
X122749997Y-109255739D01*
X122749997Y-109255739D02*
X122716664Y-109322405D01*
X122716664Y-109322405D02*
X122716664Y-109389072D01*
X122716664Y-109389072D02*
X123049997Y-109455739D01*
X122416664Y-109689072D02*
X122416664Y-109222405D01*
X122416664Y-109355739D02*
X122383331Y-109289072D01*
X122383331Y-109289072D02*
X122349997Y-109255739D01*
X122349997Y-109255739D02*
X122283331Y-109222405D01*
X122283331Y-109222405D02*
X122216664Y-109222405D01*
X121983331Y-109689072D02*
X121983331Y-109222405D01*
X121983331Y-108989072D02*
X122016664Y-109022405D01*
X122016664Y-109022405D02*
X121983331Y-109055739D01*
X121983331Y-109055739D02*
X121949998Y-109022405D01*
X121949998Y-109022405D02*
X121983331Y-108989072D01*
X121983331Y-108989072D02*
X121983331Y-109055739D01*
X121349998Y-109222405D02*
X121349998Y-109689072D01*
X121649998Y-109222405D02*
X121649998Y-109589072D01*
X121649998Y-109589072D02*
X121616665Y-109655739D01*
X121616665Y-109655739D02*
X121549998Y-109689072D01*
X121549998Y-109689072D02*
X121449998Y-109689072D01*
X121449998Y-109689072D02*
X121383331Y-109655739D01*
X121383331Y-109655739D02*
X121349998Y-109622405D01*
X121016665Y-109689072D02*
X121016665Y-109222405D01*
X121016665Y-109289072D02*
X120983332Y-109255739D01*
X120983332Y-109255739D02*
X120916665Y-109222405D01*
X120916665Y-109222405D02*
X120816665Y-109222405D01*
X120816665Y-109222405D02*
X120749998Y-109255739D01*
X120749998Y-109255739D02*
X120716665Y-109322405D01*
X120716665Y-109322405D02*
X120716665Y-109689072D01*
X120716665Y-109322405D02*
X120683332Y-109255739D01*
X120683332Y-109255739D02*
X120616665Y-109222405D01*
X120616665Y-109222405D02*
X120516665Y-109222405D01*
X120516665Y-109222405D02*
X120449998Y-109255739D01*
X120449998Y-109255739D02*
X120416665Y-109322405D01*
X120416665Y-109322405D02*
X120416665Y-109689072D01*
X119183332Y-109689072D02*
X119583332Y-109689072D01*
X119383332Y-109689072D02*
X119383332Y-108989072D01*
X119383332Y-108989072D02*
X119449999Y-109089072D01*
X119449999Y-109089072D02*
X119516666Y-109155739D01*
X119516666Y-109155739D02*
X119583332Y-109189072D01*
X118549999Y-108989072D02*
X118883332Y-108989072D01*
X118883332Y-108989072D02*
X118916665Y-109322405D01*
X118916665Y-109322405D02*
X118883332Y-109289072D01*
X118883332Y-109289072D02*
X118816665Y-109255739D01*
X118816665Y-109255739D02*
X118649999Y-109255739D01*
X118649999Y-109255739D02*
X118583332Y-109289072D01*
X118583332Y-109289072D02*
X118549999Y-109322405D01*
X118549999Y-109322405D02*
X118516665Y-109389072D01*
X118516665Y-109389072D02*
X118516665Y-109555739D01*
X118516665Y-109555739D02*
X118549999Y-109622405D01*
X118549999Y-109622405D02*
X118583332Y-109655739D01*
X118583332Y-109655739D02*
X118649999Y-109689072D01*
X118649999Y-109689072D02*
X118816665Y-109689072D01*
X118816665Y-109689072D02*
X118883332Y-109655739D01*
X118883332Y-109655739D02*
X118916665Y-109622405D01*
X118216665Y-109222405D02*
X118216665Y-109922405D01*
X118216665Y-109255739D02*
X118149998Y-109222405D01*
X118149998Y-109222405D02*
X118016665Y-109222405D01*
X118016665Y-109222405D02*
X117949998Y-109255739D01*
X117949998Y-109255739D02*
X117916665Y-109289072D01*
X117916665Y-109289072D02*
X117883332Y-109355739D01*
X117883332Y-109355739D02*
X117883332Y-109555739D01*
X117883332Y-109555739D02*
X117916665Y-109622405D01*
X117916665Y-109622405D02*
X117949998Y-109655739D01*
X117949998Y-109655739D02*
X118016665Y-109689072D01*
X118016665Y-109689072D02*
X118149998Y-109689072D01*
X118149998Y-109689072D02*
X118216665Y-109655739D01*
X117583332Y-109422405D02*
X117049999Y-109422405D01*
X116749998Y-109055739D02*
X116716665Y-109022405D01*
X116716665Y-109022405D02*
X116649998Y-108989072D01*
X116649998Y-108989072D02*
X116483332Y-108989072D01*
X116483332Y-108989072D02*
X116416665Y-109022405D01*
X116416665Y-109022405D02*
X116383332Y-109055739D01*
X116383332Y-109055739D02*
X116349998Y-109122405D01*
X116349998Y-109122405D02*
X116349998Y-109189072D01*
X116349998Y-109189072D02*
X116383332Y-109289072D01*
X116383332Y-109289072D02*
X116783332Y-109689072D01*
X116783332Y-109689072D02*
X116349998Y-109689072D01*
X116083331Y-109055739D02*
X116049998Y-109022405D01*
X116049998Y-109022405D02*
X115983331Y-108989072D01*
X115983331Y-108989072D02*
X115816665Y-108989072D01*
X115816665Y-108989072D02*
X115749998Y-109022405D01*
X115749998Y-109022405D02*
X115716665Y-109055739D01*
X115716665Y-109055739D02*
X115683331Y-109122405D01*
X115683331Y-109122405D02*
X115683331Y-109189072D01*
X115683331Y-109189072D02*
X115716665Y-109289072D01*
X115716665Y-109289072D02*
X116116665Y-109689072D01*
X116116665Y-109689072D02*
X115683331Y-109689072D01*
X115383331Y-109222405D02*
X115383331Y-109922405D01*
X115383331Y-109255739D02*
X115316664Y-109222405D01*
X115316664Y-109222405D02*
X115183331Y-109222405D01*
X115183331Y-109222405D02*
X115116664Y-109255739D01*
X115116664Y-109255739D02*
X115083331Y-109289072D01*
X115083331Y-109289072D02*
X115049998Y-109355739D01*
X115049998Y-109355739D02*
X115049998Y-109555739D01*
X115049998Y-109555739D02*
X115083331Y-109622405D01*
X115083331Y-109622405D02*
X115116664Y-109655739D01*
X115116664Y-109655739D02*
X115183331Y-109689072D01*
X115183331Y-109689072D02*
X115316664Y-109689072D01*
X115316664Y-109689072D02*
X115383331Y-109655739D01*
X113983332Y-109322405D02*
X114216665Y-109322405D01*
X114216665Y-109689072D02*
X114216665Y-108989072D01*
X114216665Y-108989072D02*
X113883332Y-108989072D01*
X113483332Y-108989072D02*
X113349998Y-108989072D01*
X113349998Y-108989072D02*
X113283332Y-109022405D01*
X113283332Y-109022405D02*
X113216665Y-109089072D01*
X113216665Y-109089072D02*
X113183332Y-109222405D01*
X113183332Y-109222405D02*
X113183332Y-109455739D01*
X113183332Y-109455739D02*
X113216665Y-109589072D01*
X113216665Y-109589072D02*
X113283332Y-109655739D01*
X113283332Y-109655739D02*
X113349998Y-109689072D01*
X113349998Y-109689072D02*
X113483332Y-109689072D01*
X113483332Y-109689072D02*
X113549998Y-109655739D01*
X113549998Y-109655739D02*
X113616665Y-109589072D01*
X113616665Y-109589072D02*
X113649998Y-109455739D01*
X113649998Y-109455739D02*
X113649998Y-109222405D01*
X113649998Y-109222405D02*
X113616665Y-109089072D01*
X113616665Y-109089072D02*
X113549998Y-109022405D01*
X113549998Y-109022405D02*
X113483332Y-108989072D01*
X112483332Y-109689072D02*
X112716665Y-109355739D01*
X112883332Y-109689072D02*
X112883332Y-108989072D01*
X112883332Y-108989072D02*
X112616665Y-108989072D01*
X112616665Y-108989072D02*
X112549999Y-109022405D01*
X112549999Y-109022405D02*
X112516665Y-109055739D01*
X112516665Y-109055739D02*
X112483332Y-109122405D01*
X112483332Y-109122405D02*
X112483332Y-109222405D01*
X112483332Y-109222405D02*
X112516665Y-109289072D01*
X112516665Y-109289072D02*
X112549999Y-109322405D01*
X112549999Y-109322405D02*
X112616665Y-109355739D01*
X112616665Y-109355739D02*
X112883332Y-109355739D01*
X112249999Y-108989072D02*
X112083332Y-109689072D01*
X112083332Y-109689072D02*
X111949999Y-109189072D01*
X111949999Y-109189072D02*
X111816665Y-109689072D01*
X111816665Y-109689072D02*
X111649999Y-108989072D01*
X111416665Y-109489072D02*
X111083332Y-109489072D01*
X111483332Y-109689072D02*
X111249999Y-108989072D01*
X111249999Y-108989072D02*
X111016665Y-109689072D01*
X110383332Y-109689072D02*
X110616665Y-109355739D01*
X110783332Y-109689072D02*
X110783332Y-108989072D01*
X110783332Y-108989072D02*
X110516665Y-108989072D01*
X110516665Y-108989072D02*
X110449999Y-109022405D01*
X110449999Y-109022405D02*
X110416665Y-109055739D01*
X110416665Y-109055739D02*
X110383332Y-109122405D01*
X110383332Y-109122405D02*
X110383332Y-109222405D01*
X110383332Y-109222405D02*
X110416665Y-109289072D01*
X110416665Y-109289072D02*
X110449999Y-109322405D01*
X110449999Y-109322405D02*
X110516665Y-109355739D01*
X110516665Y-109355739D02*
X110783332Y-109355739D01*
X110083332Y-109689072D02*
X110083332Y-108989072D01*
X110083332Y-108989072D02*
X109916665Y-108989072D01*
X109916665Y-108989072D02*
X109816665Y-109022405D01*
X109816665Y-109022405D02*
X109749999Y-109089072D01*
X109749999Y-109089072D02*
X109716665Y-109155739D01*
X109716665Y-109155739D02*
X109683332Y-109289072D01*
X109683332Y-109289072D02*
X109683332Y-109389072D01*
X109683332Y-109389072D02*
X109716665Y-109522405D01*
X109716665Y-109522405D02*
X109749999Y-109589072D01*
X109749999Y-109589072D02*
X109816665Y-109655739D01*
X109816665Y-109655739D02*
X109916665Y-109689072D01*
X109916665Y-109689072D02*
X110083332Y-109689072D01*
X108549999Y-109655739D02*
X108616666Y-109689072D01*
X108616666Y-109689072D02*
X108749999Y-109689072D01*
X108749999Y-109689072D02*
X108816666Y-109655739D01*
X108816666Y-109655739D02*
X108849999Y-109622405D01*
X108849999Y-109622405D02*
X108883332Y-109555739D01*
X108883332Y-109555739D02*
X108883332Y-109355739D01*
X108883332Y-109355739D02*
X108849999Y-109289072D01*
X108849999Y-109289072D02*
X108816666Y-109255739D01*
X108816666Y-109255739D02*
X108749999Y-109222405D01*
X108749999Y-109222405D02*
X108616666Y-109222405D01*
X108616666Y-109222405D02*
X108549999Y-109255739D01*
X107949999Y-109689072D02*
X107949999Y-109322405D01*
X107949999Y-109322405D02*
X107983332Y-109255739D01*
X107983332Y-109255739D02*
X108049999Y-109222405D01*
X108049999Y-109222405D02*
X108183332Y-109222405D01*
X108183332Y-109222405D02*
X108249999Y-109255739D01*
X107949999Y-109655739D02*
X108016666Y-109689072D01*
X108016666Y-109689072D02*
X108183332Y-109689072D01*
X108183332Y-109689072D02*
X108249999Y-109655739D01*
X108249999Y-109655739D02*
X108283332Y-109589072D01*
X108283332Y-109589072D02*
X108283332Y-109522405D01*
X108283332Y-109522405D02*
X108249999Y-109455739D01*
X108249999Y-109455739D02*
X108183332Y-109422405D01*
X108183332Y-109422405D02*
X108016666Y-109422405D01*
X108016666Y-109422405D02*
X107949999Y-109389072D01*
X107616666Y-109689072D02*
X107616666Y-108989072D01*
X107616666Y-109255739D02*
X107549999Y-109222405D01*
X107549999Y-109222405D02*
X107416666Y-109222405D01*
X107416666Y-109222405D02*
X107349999Y-109255739D01*
X107349999Y-109255739D02*
X107316666Y-109289072D01*
X107316666Y-109289072D02*
X107283333Y-109355739D01*
X107283333Y-109355739D02*
X107283333Y-109555739D01*
X107283333Y-109555739D02*
X107316666Y-109622405D01*
X107316666Y-109622405D02*
X107349999Y-109655739D01*
X107349999Y-109655739D02*
X107416666Y-109689072D01*
X107416666Y-109689072D02*
X107549999Y-109689072D01*
X107549999Y-109689072D02*
X107616666Y-109655739D01*
X106883333Y-109689072D02*
X106950000Y-109655739D01*
X106950000Y-109655739D02*
X106983333Y-109589072D01*
X106983333Y-109589072D02*
X106983333Y-108989072D01*
X106349999Y-109655739D02*
X106416666Y-109689072D01*
X106416666Y-109689072D02*
X106549999Y-109689072D01*
X106549999Y-109689072D02*
X106616666Y-109655739D01*
X106616666Y-109655739D02*
X106649999Y-109589072D01*
X106649999Y-109589072D02*
X106649999Y-109322405D01*
X106649999Y-109322405D02*
X106616666Y-109255739D01*
X106616666Y-109255739D02*
X106549999Y-109222405D01*
X106549999Y-109222405D02*
X106416666Y-109222405D01*
X106416666Y-109222405D02*
X106349999Y-109255739D01*
X106349999Y-109255739D02*
X106316666Y-109322405D01*
X106316666Y-109322405D02*
X106316666Y-109389072D01*
X106316666Y-109389072D02*
X106649999Y-109455739D01*
X105983333Y-109655739D02*
X105983333Y-109689072D01*
X105983333Y-109689072D02*
X106016666Y-109755739D01*
X106016666Y-109755739D02*
X106049999Y-109789072D01*
X105183333Y-109055739D02*
X105150000Y-109022405D01*
X105150000Y-109022405D02*
X105083333Y-108989072D01*
X105083333Y-108989072D02*
X104916667Y-108989072D01*
X104916667Y-108989072D02*
X104850000Y-109022405D01*
X104850000Y-109022405D02*
X104816667Y-109055739D01*
X104816667Y-109055739D02*
X104783333Y-109122405D01*
X104783333Y-109122405D02*
X104783333Y-109189072D01*
X104783333Y-109189072D02*
X104816667Y-109289072D01*
X104816667Y-109289072D02*
X105216667Y-109689072D01*
X105216667Y-109689072D02*
X104783333Y-109689072D01*
X104516666Y-109055739D02*
X104483333Y-109022405D01*
X104483333Y-109022405D02*
X104416666Y-108989072D01*
X104416666Y-108989072D02*
X104250000Y-108989072D01*
X104250000Y-108989072D02*
X104183333Y-109022405D01*
X104183333Y-109022405D02*
X104150000Y-109055739D01*
X104150000Y-109055739D02*
X104116666Y-109122405D01*
X104116666Y-109122405D02*
X104116666Y-109189072D01*
X104116666Y-109189072D02*
X104150000Y-109289072D01*
X104150000Y-109289072D02*
X104550000Y-109689072D01*
X104550000Y-109689072D02*
X104116666Y-109689072D01*
X103816666Y-109222405D02*
X103816666Y-109922405D01*
X103816666Y-109255739D02*
X103749999Y-109222405D01*
X103749999Y-109222405D02*
X103616666Y-109222405D01*
X103616666Y-109222405D02*
X103549999Y-109255739D01*
X103549999Y-109255739D02*
X103516666Y-109289072D01*
X103516666Y-109289072D02*
X103483333Y-109355739D01*
X103483333Y-109355739D02*
X103483333Y-109555739D01*
X103483333Y-109555739D02*
X103516666Y-109622405D01*
X103516666Y-109622405D02*
X103549999Y-109655739D01*
X103549999Y-109655739D02*
X103616666Y-109689072D01*
X103616666Y-109689072D02*
X103749999Y-109689072D01*
X103749999Y-109689072D02*
X103816666Y-109655739D01*
X102383333Y-109655739D02*
X102450000Y-109689072D01*
X102450000Y-109689072D02*
X102583333Y-109689072D01*
X102583333Y-109689072D02*
X102650000Y-109655739D01*
X102650000Y-109655739D02*
X102683333Y-109589072D01*
X102683333Y-109589072D02*
X102683333Y-109322405D01*
X102683333Y-109322405D02*
X102650000Y-109255739D01*
X102650000Y-109255739D02*
X102583333Y-109222405D01*
X102583333Y-109222405D02*
X102450000Y-109222405D01*
X102450000Y-109222405D02*
X102383333Y-109255739D01*
X102383333Y-109255739D02*
X102350000Y-109322405D01*
X102350000Y-109322405D02*
X102350000Y-109389072D01*
X102350000Y-109389072D02*
X102683333Y-109455739D01*
X102050000Y-109222405D02*
X102050000Y-109689072D01*
X102050000Y-109289072D02*
X102016667Y-109255739D01*
X102016667Y-109255739D02*
X101950000Y-109222405D01*
X101950000Y-109222405D02*
X101850000Y-109222405D01*
X101850000Y-109222405D02*
X101783333Y-109255739D01*
X101783333Y-109255739D02*
X101750000Y-109322405D01*
X101750000Y-109322405D02*
X101750000Y-109689072D01*
X101116667Y-109689072D02*
X101116667Y-108989072D01*
X101116667Y-109655739D02*
X101183334Y-109689072D01*
X101183334Y-109689072D02*
X101316667Y-109689072D01*
X101316667Y-109689072D02*
X101383334Y-109655739D01*
X101383334Y-109655739D02*
X101416667Y-109622405D01*
X101416667Y-109622405D02*
X101450000Y-109555739D01*
X101450000Y-109555739D02*
X101450000Y-109355739D01*
X101450000Y-109355739D02*
X101416667Y-109289072D01*
X101416667Y-109289072D02*
X101383334Y-109255739D01*
X101383334Y-109255739D02*
X101316667Y-109222405D01*
X101316667Y-109222405D02*
X101183334Y-109222405D01*
X101183334Y-109222405D02*
X101116667Y-109255739D01*
X100250001Y-109689072D02*
X100250001Y-108989072D01*
X99950001Y-109689072D02*
X99950001Y-109322405D01*
X99950001Y-109322405D02*
X99983334Y-109255739D01*
X99983334Y-109255739D02*
X100050001Y-109222405D01*
X100050001Y-109222405D02*
X100150001Y-109222405D01*
X100150001Y-109222405D02*
X100216668Y-109255739D01*
X100216668Y-109255739D02*
X100250001Y-109289072D01*
X99350001Y-109655739D02*
X99416668Y-109689072D01*
X99416668Y-109689072D02*
X99550001Y-109689072D01*
X99550001Y-109689072D02*
X99616668Y-109655739D01*
X99616668Y-109655739D02*
X99650001Y-109589072D01*
X99650001Y-109589072D02*
X99650001Y-109322405D01*
X99650001Y-109322405D02*
X99616668Y-109255739D01*
X99616668Y-109255739D02*
X99550001Y-109222405D01*
X99550001Y-109222405D02*
X99416668Y-109222405D01*
X99416668Y-109222405D02*
X99350001Y-109255739D01*
X99350001Y-109255739D02*
X99316668Y-109322405D01*
X99316668Y-109322405D02*
X99316668Y-109389072D01*
X99316668Y-109389072D02*
X99650001Y-109455739D01*
X99016668Y-109689072D02*
X99016668Y-109222405D01*
X99016668Y-109355739D02*
X98983335Y-109289072D01*
X98983335Y-109289072D02*
X98950001Y-109255739D01*
X98950001Y-109255739D02*
X98883335Y-109222405D01*
X98883335Y-109222405D02*
X98816668Y-109222405D01*
X98316668Y-109655739D02*
X98383335Y-109689072D01*
X98383335Y-109689072D02*
X98516668Y-109689072D01*
X98516668Y-109689072D02*
X98583335Y-109655739D01*
X98583335Y-109655739D02*
X98616668Y-109589072D01*
X98616668Y-109589072D02*
X98616668Y-109322405D01*
X98616668Y-109322405D02*
X98583335Y-109255739D01*
X98583335Y-109255739D02*
X98516668Y-109222405D01*
X98516668Y-109222405D02*
X98383335Y-109222405D01*
X98383335Y-109222405D02*
X98316668Y-109255739D01*
X98316668Y-109255739D02*
X98283335Y-109322405D01*
X98283335Y-109322405D02*
X98283335Y-109389072D01*
X98283335Y-109389072D02*
X98616668Y-109455739D01*
X122516664Y-110782700D02*
X122416664Y-110816033D01*
X122416664Y-110816033D02*
X122249998Y-110816033D01*
X122249998Y-110816033D02*
X122183331Y-110782700D01*
X122183331Y-110782700D02*
X122149998Y-110749366D01*
X122149998Y-110749366D02*
X122116664Y-110682700D01*
X122116664Y-110682700D02*
X122116664Y-110616033D01*
X122116664Y-110616033D02*
X122149998Y-110549366D01*
X122149998Y-110549366D02*
X122183331Y-110516033D01*
X122183331Y-110516033D02*
X122249998Y-110482700D01*
X122249998Y-110482700D02*
X122383331Y-110449366D01*
X122383331Y-110449366D02*
X122449998Y-110416033D01*
X122449998Y-110416033D02*
X122483331Y-110382700D01*
X122483331Y-110382700D02*
X122516664Y-110316033D01*
X122516664Y-110316033D02*
X122516664Y-110249366D01*
X122516664Y-110249366D02*
X122483331Y-110182700D01*
X122483331Y-110182700D02*
X122449998Y-110149366D01*
X122449998Y-110149366D02*
X122383331Y-110116033D01*
X122383331Y-110116033D02*
X122216664Y-110116033D01*
X122216664Y-110116033D02*
X122116664Y-110149366D01*
X121616664Y-110116033D02*
X121616664Y-110616033D01*
X121616664Y-110616033D02*
X121649997Y-110716033D01*
X121649997Y-110716033D02*
X121716664Y-110782700D01*
X121716664Y-110782700D02*
X121816664Y-110816033D01*
X121816664Y-110816033D02*
X121883331Y-110816033D01*
X120916664Y-110816033D02*
X121316664Y-110816033D01*
X121116664Y-110816033D02*
X121116664Y-110116033D01*
X121116664Y-110116033D02*
X121183331Y-110216033D01*
X121183331Y-110216033D02*
X121249998Y-110282700D01*
X121249998Y-110282700D02*
X121316664Y-110316033D01*
X119949998Y-110116033D02*
X119816664Y-110116033D01*
X119816664Y-110116033D02*
X119749998Y-110149366D01*
X119749998Y-110149366D02*
X119683331Y-110216033D01*
X119683331Y-110216033D02*
X119649998Y-110349366D01*
X119649998Y-110349366D02*
X119649998Y-110582700D01*
X119649998Y-110582700D02*
X119683331Y-110716033D01*
X119683331Y-110716033D02*
X119749998Y-110782700D01*
X119749998Y-110782700D02*
X119816664Y-110816033D01*
X119816664Y-110816033D02*
X119949998Y-110816033D01*
X119949998Y-110816033D02*
X120016664Y-110782700D01*
X120016664Y-110782700D02*
X120083331Y-110716033D01*
X120083331Y-110716033D02*
X120116664Y-110582700D01*
X120116664Y-110582700D02*
X120116664Y-110349366D01*
X120116664Y-110349366D02*
X120083331Y-110216033D01*
X120083331Y-110216033D02*
X120016664Y-110149366D01*
X120016664Y-110149366D02*
X119949998Y-110116033D01*
X119349998Y-110816033D02*
X119349998Y-110116033D01*
X119349998Y-110116033D02*
X119083331Y-110116033D01*
X119083331Y-110116033D02*
X119016665Y-110149366D01*
X119016665Y-110149366D02*
X118983331Y-110182700D01*
X118983331Y-110182700D02*
X118949998Y-110249366D01*
X118949998Y-110249366D02*
X118949998Y-110349366D01*
X118949998Y-110349366D02*
X118983331Y-110416033D01*
X118983331Y-110416033D02*
X119016665Y-110449366D01*
X119016665Y-110449366D02*
X119083331Y-110482700D01*
X119083331Y-110482700D02*
X119349998Y-110482700D01*
X118649998Y-110449366D02*
X118416665Y-110449366D01*
X118316665Y-110816033D02*
X118649998Y-110816033D01*
X118649998Y-110816033D02*
X118649998Y-110116033D01*
X118649998Y-110116033D02*
X118316665Y-110116033D01*
X118016665Y-110816033D02*
X118016665Y-110116033D01*
X118016665Y-110116033D02*
X117616665Y-110816033D01*
X117616665Y-110816033D02*
X117616665Y-110116033D01*
X116749999Y-110449366D02*
X116216666Y-110449366D01*
X116216666Y-110649366D02*
X116749999Y-110649366D01*
X115383332Y-110782700D02*
X115316666Y-110816033D01*
X115316666Y-110816033D02*
X115183332Y-110816033D01*
X115183332Y-110816033D02*
X115116666Y-110782700D01*
X115116666Y-110782700D02*
X115083332Y-110716033D01*
X115083332Y-110716033D02*
X115083332Y-110682700D01*
X115083332Y-110682700D02*
X115116666Y-110616033D01*
X115116666Y-110616033D02*
X115183332Y-110582700D01*
X115183332Y-110582700D02*
X115283332Y-110582700D01*
X115283332Y-110582700D02*
X115349999Y-110549366D01*
X115349999Y-110549366D02*
X115383332Y-110482700D01*
X115383332Y-110482700D02*
X115383332Y-110449366D01*
X115383332Y-110449366D02*
X115349999Y-110382700D01*
X115349999Y-110382700D02*
X115283332Y-110349366D01*
X115283332Y-110349366D02*
X115183332Y-110349366D01*
X115183332Y-110349366D02*
X115116666Y-110382700D01*
X114483332Y-110349366D02*
X114483332Y-110816033D01*
X114783332Y-110349366D02*
X114783332Y-110716033D01*
X114783332Y-110716033D02*
X114749999Y-110782700D01*
X114749999Y-110782700D02*
X114683332Y-110816033D01*
X114683332Y-110816033D02*
X114583332Y-110816033D01*
X114583332Y-110816033D02*
X114516665Y-110782700D01*
X114516665Y-110782700D02*
X114483332Y-110749366D01*
X114149999Y-110349366D02*
X114149999Y-111049366D01*
X114149999Y-110382700D02*
X114083332Y-110349366D01*
X114083332Y-110349366D02*
X113949999Y-110349366D01*
X113949999Y-110349366D02*
X113883332Y-110382700D01*
X113883332Y-110382700D02*
X113849999Y-110416033D01*
X113849999Y-110416033D02*
X113816666Y-110482700D01*
X113816666Y-110482700D02*
X113816666Y-110682700D01*
X113816666Y-110682700D02*
X113849999Y-110749366D01*
X113849999Y-110749366D02*
X113883332Y-110782700D01*
X113883332Y-110782700D02*
X113949999Y-110816033D01*
X113949999Y-110816033D02*
X114083332Y-110816033D01*
X114083332Y-110816033D02*
X114149999Y-110782700D01*
X113516666Y-110349366D02*
X113516666Y-111049366D01*
X113516666Y-110382700D02*
X113449999Y-110349366D01*
X113449999Y-110349366D02*
X113316666Y-110349366D01*
X113316666Y-110349366D02*
X113249999Y-110382700D01*
X113249999Y-110382700D02*
X113216666Y-110416033D01*
X113216666Y-110416033D02*
X113183333Y-110482700D01*
X113183333Y-110482700D02*
X113183333Y-110682700D01*
X113183333Y-110682700D02*
X113216666Y-110749366D01*
X113216666Y-110749366D02*
X113249999Y-110782700D01*
X113249999Y-110782700D02*
X113316666Y-110816033D01*
X113316666Y-110816033D02*
X113449999Y-110816033D01*
X113449999Y-110816033D02*
X113516666Y-110782700D01*
X112783333Y-110816033D02*
X112850000Y-110782700D01*
X112850000Y-110782700D02*
X112883333Y-110716033D01*
X112883333Y-110716033D02*
X112883333Y-110116033D01*
X112516666Y-110816033D02*
X112516666Y-110349366D01*
X112516666Y-110116033D02*
X112549999Y-110149366D01*
X112549999Y-110149366D02*
X112516666Y-110182700D01*
X112516666Y-110182700D02*
X112483333Y-110149366D01*
X112483333Y-110149366D02*
X112516666Y-110116033D01*
X112516666Y-110116033D02*
X112516666Y-110182700D01*
X111916666Y-110782700D02*
X111983333Y-110816033D01*
X111983333Y-110816033D02*
X112116666Y-110816033D01*
X112116666Y-110816033D02*
X112183333Y-110782700D01*
X112183333Y-110782700D02*
X112216666Y-110716033D01*
X112216666Y-110716033D02*
X112216666Y-110449366D01*
X112216666Y-110449366D02*
X112183333Y-110382700D01*
X112183333Y-110382700D02*
X112116666Y-110349366D01*
X112116666Y-110349366D02*
X111983333Y-110349366D01*
X111983333Y-110349366D02*
X111916666Y-110382700D01*
X111916666Y-110382700D02*
X111883333Y-110449366D01*
X111883333Y-110449366D02*
X111883333Y-110516033D01*
X111883333Y-110516033D02*
X112216666Y-110582700D01*
X111616666Y-110782700D02*
X111550000Y-110816033D01*
X111550000Y-110816033D02*
X111416666Y-110816033D01*
X111416666Y-110816033D02*
X111350000Y-110782700D01*
X111350000Y-110782700D02*
X111316666Y-110716033D01*
X111316666Y-110716033D02*
X111316666Y-110682700D01*
X111316666Y-110682700D02*
X111350000Y-110616033D01*
X111350000Y-110616033D02*
X111416666Y-110582700D01*
X111416666Y-110582700D02*
X111516666Y-110582700D01*
X111516666Y-110582700D02*
X111583333Y-110549366D01*
X111583333Y-110549366D02*
X111616666Y-110482700D01*
X111616666Y-110482700D02*
X111616666Y-110449366D01*
X111616666Y-110449366D02*
X111583333Y-110382700D01*
X111583333Y-110382700D02*
X111516666Y-110349366D01*
X111516666Y-110349366D02*
X111416666Y-110349366D01*
X111416666Y-110349366D02*
X111350000Y-110382700D01*
X110483333Y-110816033D02*
X110483333Y-110349366D01*
X110483333Y-110116033D02*
X110516666Y-110149366D01*
X110516666Y-110149366D02*
X110483333Y-110182700D01*
X110483333Y-110182700D02*
X110450000Y-110149366D01*
X110450000Y-110149366D02*
X110483333Y-110116033D01*
X110483333Y-110116033D02*
X110483333Y-110182700D01*
X110183333Y-110782700D02*
X110116667Y-110816033D01*
X110116667Y-110816033D02*
X109983333Y-110816033D01*
X109983333Y-110816033D02*
X109916667Y-110782700D01*
X109916667Y-110782700D02*
X109883333Y-110716033D01*
X109883333Y-110716033D02*
X109883333Y-110682700D01*
X109883333Y-110682700D02*
X109916667Y-110616033D01*
X109916667Y-110616033D02*
X109983333Y-110582700D01*
X109983333Y-110582700D02*
X110083333Y-110582700D01*
X110083333Y-110582700D02*
X110150000Y-110549366D01*
X110150000Y-110549366D02*
X110183333Y-110482700D01*
X110183333Y-110482700D02*
X110183333Y-110449366D01*
X110183333Y-110449366D02*
X110150000Y-110382700D01*
X110150000Y-110382700D02*
X110083333Y-110349366D01*
X110083333Y-110349366D02*
X109983333Y-110349366D01*
X109983333Y-110349366D02*
X109916667Y-110382700D01*
X109483333Y-110816033D02*
X109550000Y-110782700D01*
X109550000Y-110782700D02*
X109583333Y-110749366D01*
X109583333Y-110749366D02*
X109616666Y-110682700D01*
X109616666Y-110682700D02*
X109616666Y-110482700D01*
X109616666Y-110482700D02*
X109583333Y-110416033D01*
X109583333Y-110416033D02*
X109550000Y-110382700D01*
X109550000Y-110382700D02*
X109483333Y-110349366D01*
X109483333Y-110349366D02*
X109383333Y-110349366D01*
X109383333Y-110349366D02*
X109316666Y-110382700D01*
X109316666Y-110382700D02*
X109283333Y-110416033D01*
X109283333Y-110416033D02*
X109250000Y-110482700D01*
X109250000Y-110482700D02*
X109250000Y-110682700D01*
X109250000Y-110682700D02*
X109283333Y-110749366D01*
X109283333Y-110749366D02*
X109316666Y-110782700D01*
X109316666Y-110782700D02*
X109383333Y-110816033D01*
X109383333Y-110816033D02*
X109483333Y-110816033D01*
X108850000Y-110816033D02*
X108916667Y-110782700D01*
X108916667Y-110782700D02*
X108950000Y-110716033D01*
X108950000Y-110716033D02*
X108950000Y-110116033D01*
X108283333Y-110816033D02*
X108283333Y-110449366D01*
X108283333Y-110449366D02*
X108316666Y-110382700D01*
X108316666Y-110382700D02*
X108383333Y-110349366D01*
X108383333Y-110349366D02*
X108516666Y-110349366D01*
X108516666Y-110349366D02*
X108583333Y-110382700D01*
X108283333Y-110782700D02*
X108350000Y-110816033D01*
X108350000Y-110816033D02*
X108516666Y-110816033D01*
X108516666Y-110816033D02*
X108583333Y-110782700D01*
X108583333Y-110782700D02*
X108616666Y-110716033D01*
X108616666Y-110716033D02*
X108616666Y-110649366D01*
X108616666Y-110649366D02*
X108583333Y-110582700D01*
X108583333Y-110582700D02*
X108516666Y-110549366D01*
X108516666Y-110549366D02*
X108350000Y-110549366D01*
X108350000Y-110549366D02*
X108283333Y-110516033D01*
X108050000Y-110349366D02*
X107783333Y-110349366D01*
X107950000Y-110116033D02*
X107950000Y-110716033D01*
X107950000Y-110716033D02*
X107916667Y-110782700D01*
X107916667Y-110782700D02*
X107850000Y-110816033D01*
X107850000Y-110816033D02*
X107783333Y-110816033D01*
X107283333Y-110782700D02*
X107350000Y-110816033D01*
X107350000Y-110816033D02*
X107483333Y-110816033D01*
X107483333Y-110816033D02*
X107550000Y-110782700D01*
X107550000Y-110782700D02*
X107583333Y-110716033D01*
X107583333Y-110716033D02*
X107583333Y-110449366D01*
X107583333Y-110449366D02*
X107550000Y-110382700D01*
X107550000Y-110382700D02*
X107483333Y-110349366D01*
X107483333Y-110349366D02*
X107350000Y-110349366D01*
X107350000Y-110349366D02*
X107283333Y-110382700D01*
X107283333Y-110382700D02*
X107250000Y-110449366D01*
X107250000Y-110449366D02*
X107250000Y-110516033D01*
X107250000Y-110516033D02*
X107583333Y-110582700D01*
X106650000Y-110816033D02*
X106650000Y-110116033D01*
X106650000Y-110782700D02*
X106716667Y-110816033D01*
X106716667Y-110816033D02*
X106850000Y-110816033D01*
X106850000Y-110816033D02*
X106916667Y-110782700D01*
X106916667Y-110782700D02*
X106950000Y-110749366D01*
X106950000Y-110749366D02*
X106983333Y-110682700D01*
X106983333Y-110682700D02*
X106983333Y-110482700D01*
X106983333Y-110482700D02*
X106950000Y-110416033D01*
X106950000Y-110416033D02*
X106916667Y-110382700D01*
X106916667Y-110382700D02*
X106850000Y-110349366D01*
X106850000Y-110349366D02*
X106716667Y-110349366D01*
X106716667Y-110349366D02*
X106650000Y-110382700D01*
X105583334Y-111082700D02*
X105616667Y-111049366D01*
X105616667Y-111049366D02*
X105683334Y-110949366D01*
X105683334Y-110949366D02*
X105716667Y-110882700D01*
X105716667Y-110882700D02*
X105750001Y-110782700D01*
X105750001Y-110782700D02*
X105783334Y-110616033D01*
X105783334Y-110616033D02*
X105783334Y-110482700D01*
X105783334Y-110482700D02*
X105750001Y-110316033D01*
X105750001Y-110316033D02*
X105716667Y-110216033D01*
X105716667Y-110216033D02*
X105683334Y-110149366D01*
X105683334Y-110149366D02*
X105616667Y-110049366D01*
X105616667Y-110049366D02*
X105583334Y-110016033D01*
X105016667Y-110816033D02*
X105016667Y-110116033D01*
X105016667Y-110782700D02*
X105083334Y-110816033D01*
X105083334Y-110816033D02*
X105216667Y-110816033D01*
X105216667Y-110816033D02*
X105283334Y-110782700D01*
X105283334Y-110782700D02*
X105316667Y-110749366D01*
X105316667Y-110749366D02*
X105350000Y-110682700D01*
X105350000Y-110682700D02*
X105350000Y-110482700D01*
X105350000Y-110482700D02*
X105316667Y-110416033D01*
X105316667Y-110416033D02*
X105283334Y-110382700D01*
X105283334Y-110382700D02*
X105216667Y-110349366D01*
X105216667Y-110349366D02*
X105083334Y-110349366D01*
X105083334Y-110349366D02*
X105016667Y-110382700D01*
X104416667Y-110782700D02*
X104483334Y-110816033D01*
X104483334Y-110816033D02*
X104616667Y-110816033D01*
X104616667Y-110816033D02*
X104683334Y-110782700D01*
X104683334Y-110782700D02*
X104716667Y-110716033D01*
X104716667Y-110716033D02*
X104716667Y-110449366D01*
X104716667Y-110449366D02*
X104683334Y-110382700D01*
X104683334Y-110382700D02*
X104616667Y-110349366D01*
X104616667Y-110349366D02*
X104483334Y-110349366D01*
X104483334Y-110349366D02*
X104416667Y-110382700D01*
X104416667Y-110382700D02*
X104383334Y-110449366D01*
X104383334Y-110449366D02*
X104383334Y-110516033D01*
X104383334Y-110516033D02*
X104716667Y-110582700D01*
X104183334Y-110349366D02*
X103916667Y-110349366D01*
X104083334Y-110816033D02*
X104083334Y-110216033D01*
X104083334Y-110216033D02*
X104050001Y-110149366D01*
X104050001Y-110149366D02*
X103983334Y-110116033D01*
X103983334Y-110116033D02*
X103916667Y-110116033D01*
X103383334Y-110816033D02*
X103383334Y-110449366D01*
X103383334Y-110449366D02*
X103416667Y-110382700D01*
X103416667Y-110382700D02*
X103483334Y-110349366D01*
X103483334Y-110349366D02*
X103616667Y-110349366D01*
X103616667Y-110349366D02*
X103683334Y-110382700D01*
X103383334Y-110782700D02*
X103450001Y-110816033D01*
X103450001Y-110816033D02*
X103616667Y-110816033D01*
X103616667Y-110816033D02*
X103683334Y-110782700D01*
X103683334Y-110782700D02*
X103716667Y-110716033D01*
X103716667Y-110716033D02*
X103716667Y-110649366D01*
X103716667Y-110649366D02*
X103683334Y-110582700D01*
X103683334Y-110582700D02*
X103616667Y-110549366D01*
X103616667Y-110549366D02*
X103450001Y-110549366D01*
X103450001Y-110549366D02*
X103383334Y-110516033D01*
X102750001Y-110349366D02*
X102750001Y-110816033D01*
X103050001Y-110349366D02*
X103050001Y-110716033D01*
X103050001Y-110716033D02*
X103016668Y-110782700D01*
X103016668Y-110782700D02*
X102950001Y-110816033D01*
X102950001Y-110816033D02*
X102850001Y-110816033D01*
X102850001Y-110816033D02*
X102783334Y-110782700D01*
X102783334Y-110782700D02*
X102750001Y-110749366D01*
X102316668Y-110816033D02*
X102383335Y-110782700D01*
X102383335Y-110782700D02*
X102416668Y-110716033D01*
X102416668Y-110716033D02*
X102416668Y-110116033D01*
X102150001Y-110349366D02*
X101883334Y-110349366D01*
X102050001Y-110116033D02*
X102050001Y-110716033D01*
X102050001Y-110716033D02*
X102016668Y-110782700D01*
X102016668Y-110782700D02*
X101950001Y-110816033D01*
X101950001Y-110816033D02*
X101883334Y-110816033D01*
X101716668Y-111082700D02*
X101683334Y-111049366D01*
X101683334Y-111049366D02*
X101616668Y-110949366D01*
X101616668Y-110949366D02*
X101583334Y-110882700D01*
X101583334Y-110882700D02*
X101550001Y-110782700D01*
X101550001Y-110782700D02*
X101516668Y-110616033D01*
X101516668Y-110616033D02*
X101516668Y-110482700D01*
X101516668Y-110482700D02*
X101550001Y-110316033D01*
X101550001Y-110316033D02*
X101583334Y-110216033D01*
X101583334Y-110216033D02*
X101616668Y-110149366D01*
X101616668Y-110149366D02*
X101683334Y-110049366D01*
X101683334Y-110049366D02*
X101716668Y-110016033D01*
X123683331Y-111876327D02*
X123716664Y-111909661D01*
X123716664Y-111909661D02*
X123816664Y-111942994D01*
X123816664Y-111942994D02*
X123883331Y-111942994D01*
X123883331Y-111942994D02*
X123983331Y-111909661D01*
X123983331Y-111909661D02*
X124049998Y-111842994D01*
X124049998Y-111842994D02*
X124083331Y-111776327D01*
X124083331Y-111776327D02*
X124116664Y-111642994D01*
X124116664Y-111642994D02*
X124116664Y-111542994D01*
X124116664Y-111542994D02*
X124083331Y-111409661D01*
X124083331Y-111409661D02*
X124049998Y-111342994D01*
X124049998Y-111342994D02*
X123983331Y-111276327D01*
X123983331Y-111276327D02*
X123883331Y-111242994D01*
X123883331Y-111242994D02*
X123816664Y-111242994D01*
X123816664Y-111242994D02*
X123716664Y-111276327D01*
X123716664Y-111276327D02*
X123683331Y-111309661D01*
X123383331Y-111942994D02*
X123383331Y-111242994D01*
X123083331Y-111942994D02*
X123083331Y-111576327D01*
X123083331Y-111576327D02*
X123116664Y-111509661D01*
X123116664Y-111509661D02*
X123183331Y-111476327D01*
X123183331Y-111476327D02*
X123283331Y-111476327D01*
X123283331Y-111476327D02*
X123349998Y-111509661D01*
X123349998Y-111509661D02*
X123383331Y-111542994D01*
X122483331Y-111909661D02*
X122549998Y-111942994D01*
X122549998Y-111942994D02*
X122683331Y-111942994D01*
X122683331Y-111942994D02*
X122749998Y-111909661D01*
X122749998Y-111909661D02*
X122783331Y-111842994D01*
X122783331Y-111842994D02*
X122783331Y-111576327D01*
X122783331Y-111576327D02*
X122749998Y-111509661D01*
X122749998Y-111509661D02*
X122683331Y-111476327D01*
X122683331Y-111476327D02*
X122549998Y-111476327D01*
X122549998Y-111476327D02*
X122483331Y-111509661D01*
X122483331Y-111509661D02*
X122449998Y-111576327D01*
X122449998Y-111576327D02*
X122449998Y-111642994D01*
X122449998Y-111642994D02*
X122783331Y-111709661D01*
X121849998Y-111909661D02*
X121916665Y-111942994D01*
X121916665Y-111942994D02*
X122049998Y-111942994D01*
X122049998Y-111942994D02*
X122116665Y-111909661D01*
X122116665Y-111909661D02*
X122149998Y-111876327D01*
X122149998Y-111876327D02*
X122183331Y-111809661D01*
X122183331Y-111809661D02*
X122183331Y-111609661D01*
X122183331Y-111609661D02*
X122149998Y-111542994D01*
X122149998Y-111542994D02*
X122116665Y-111509661D01*
X122116665Y-111509661D02*
X122049998Y-111476327D01*
X122049998Y-111476327D02*
X121916665Y-111476327D01*
X121916665Y-111476327D02*
X121849998Y-111509661D01*
X121549998Y-111942994D02*
X121549998Y-111242994D01*
X121483331Y-111676327D02*
X121283331Y-111942994D01*
X121283331Y-111476327D02*
X121549998Y-111742994D01*
X120549998Y-111242994D02*
X120149998Y-111242994D01*
X120349998Y-111942994D02*
X120349998Y-111242994D01*
X119916665Y-111942994D02*
X119916665Y-111242994D01*
X119916665Y-111242994D02*
X119649998Y-111242994D01*
X119649998Y-111242994D02*
X119583332Y-111276327D01*
X119583332Y-111276327D02*
X119549998Y-111309661D01*
X119549998Y-111309661D02*
X119516665Y-111376327D01*
X119516665Y-111376327D02*
X119516665Y-111476327D01*
X119516665Y-111476327D02*
X119549998Y-111542994D01*
X119549998Y-111542994D02*
X119583332Y-111576327D01*
X119583332Y-111576327D02*
X119649998Y-111609661D01*
X119649998Y-111609661D02*
X119916665Y-111609661D01*
X118849998Y-111942994D02*
X119249998Y-111942994D01*
X119049998Y-111942994D02*
X119049998Y-111242994D01*
X119049998Y-111242994D02*
X119116665Y-111342994D01*
X119116665Y-111342994D02*
X119183332Y-111409661D01*
X119183332Y-111409661D02*
X119249998Y-111442994D01*
X118549998Y-111576327D02*
X118016665Y-111576327D01*
X118016665Y-111776327D02*
X118549998Y-111776327D01*
X117749998Y-111242994D02*
X117316664Y-111242994D01*
X117316664Y-111242994D02*
X117549998Y-111509661D01*
X117549998Y-111509661D02*
X117449998Y-111509661D01*
X117449998Y-111509661D02*
X117383331Y-111542994D01*
X117383331Y-111542994D02*
X117349998Y-111576327D01*
X117349998Y-111576327D02*
X117316664Y-111642994D01*
X117316664Y-111642994D02*
X117316664Y-111809661D01*
X117316664Y-111809661D02*
X117349998Y-111876327D01*
X117349998Y-111876327D02*
X117383331Y-111909661D01*
X117383331Y-111909661D02*
X117449998Y-111942994D01*
X117449998Y-111942994D02*
X117649998Y-111942994D01*
X117649998Y-111942994D02*
X117716664Y-111909661D01*
X117716664Y-111909661D02*
X117749998Y-111876327D01*
X117016664Y-111876327D02*
X116983331Y-111909661D01*
X116983331Y-111909661D02*
X117016664Y-111942994D01*
X117016664Y-111942994D02*
X117049997Y-111909661D01*
X117049997Y-111909661D02*
X117016664Y-111876327D01*
X117016664Y-111876327D02*
X117016664Y-111942994D01*
X116749998Y-111242994D02*
X116316664Y-111242994D01*
X116316664Y-111242994D02*
X116549998Y-111509661D01*
X116549998Y-111509661D02*
X116449998Y-111509661D01*
X116449998Y-111509661D02*
X116383331Y-111542994D01*
X116383331Y-111542994D02*
X116349998Y-111576327D01*
X116349998Y-111576327D02*
X116316664Y-111642994D01*
X116316664Y-111642994D02*
X116316664Y-111809661D01*
X116316664Y-111809661D02*
X116349998Y-111876327D01*
X116349998Y-111876327D02*
X116383331Y-111909661D01*
X116383331Y-111909661D02*
X116449998Y-111942994D01*
X116449998Y-111942994D02*
X116649998Y-111942994D01*
X116649998Y-111942994D02*
X116716664Y-111909661D01*
X116716664Y-111909661D02*
X116749998Y-111876327D01*
X116116664Y-111242994D02*
X115883331Y-111942994D01*
X115883331Y-111942994D02*
X115649997Y-111242994D01*
X114683331Y-112209661D02*
X114716664Y-112176327D01*
X114716664Y-112176327D02*
X114783331Y-112076327D01*
X114783331Y-112076327D02*
X114816664Y-112009661D01*
X114816664Y-112009661D02*
X114849998Y-111909661D01*
X114849998Y-111909661D02*
X114883331Y-111742994D01*
X114883331Y-111742994D02*
X114883331Y-111609661D01*
X114883331Y-111609661D02*
X114849998Y-111442994D01*
X114849998Y-111442994D02*
X114816664Y-111342994D01*
X114816664Y-111342994D02*
X114783331Y-111276327D01*
X114783331Y-111276327D02*
X114716664Y-111176327D01*
X114716664Y-111176327D02*
X114683331Y-111142994D01*
X114016664Y-111876327D02*
X114049997Y-111909661D01*
X114049997Y-111909661D02*
X114149997Y-111942994D01*
X114149997Y-111942994D02*
X114216664Y-111942994D01*
X114216664Y-111942994D02*
X114316664Y-111909661D01*
X114316664Y-111909661D02*
X114383331Y-111842994D01*
X114383331Y-111842994D02*
X114416664Y-111776327D01*
X114416664Y-111776327D02*
X114449997Y-111642994D01*
X114449997Y-111642994D02*
X114449997Y-111542994D01*
X114449997Y-111542994D02*
X114416664Y-111409661D01*
X114416664Y-111409661D02*
X114383331Y-111342994D01*
X114383331Y-111342994D02*
X114316664Y-111276327D01*
X114316664Y-111276327D02*
X114216664Y-111242994D01*
X114216664Y-111242994D02*
X114149997Y-111242994D01*
X114149997Y-111242994D02*
X114049997Y-111276327D01*
X114049997Y-111276327D02*
X114016664Y-111309661D01*
X113716664Y-111942994D02*
X113716664Y-111242994D01*
X113416664Y-111942994D02*
X113416664Y-111576327D01*
X113416664Y-111576327D02*
X113449997Y-111509661D01*
X113449997Y-111509661D02*
X113516664Y-111476327D01*
X113516664Y-111476327D02*
X113616664Y-111476327D01*
X113616664Y-111476327D02*
X113683331Y-111509661D01*
X113683331Y-111509661D02*
X113716664Y-111542994D01*
X113083331Y-111942994D02*
X113083331Y-111476327D01*
X113083331Y-111609661D02*
X113049998Y-111542994D01*
X113049998Y-111542994D02*
X113016664Y-111509661D01*
X113016664Y-111509661D02*
X112949998Y-111476327D01*
X112949998Y-111476327D02*
X112883331Y-111476327D01*
X112549998Y-111942994D02*
X112616665Y-111909661D01*
X112616665Y-111909661D02*
X112649998Y-111876327D01*
X112649998Y-111876327D02*
X112683331Y-111809661D01*
X112683331Y-111809661D02*
X112683331Y-111609661D01*
X112683331Y-111609661D02*
X112649998Y-111542994D01*
X112649998Y-111542994D02*
X112616665Y-111509661D01*
X112616665Y-111509661D02*
X112549998Y-111476327D01*
X112549998Y-111476327D02*
X112449998Y-111476327D01*
X112449998Y-111476327D02*
X112383331Y-111509661D01*
X112383331Y-111509661D02*
X112349998Y-111542994D01*
X112349998Y-111542994D02*
X112316665Y-111609661D01*
X112316665Y-111609661D02*
X112316665Y-111809661D01*
X112316665Y-111809661D02*
X112349998Y-111876327D01*
X112349998Y-111876327D02*
X112383331Y-111909661D01*
X112383331Y-111909661D02*
X112449998Y-111942994D01*
X112449998Y-111942994D02*
X112549998Y-111942994D01*
X112016665Y-111476327D02*
X112016665Y-111942994D01*
X112016665Y-111542994D02*
X111983332Y-111509661D01*
X111983332Y-111509661D02*
X111916665Y-111476327D01*
X111916665Y-111476327D02*
X111816665Y-111476327D01*
X111816665Y-111476327D02*
X111749998Y-111509661D01*
X111749998Y-111509661D02*
X111716665Y-111576327D01*
X111716665Y-111576327D02*
X111716665Y-111942994D01*
X111283332Y-111942994D02*
X111349999Y-111909661D01*
X111349999Y-111909661D02*
X111383332Y-111876327D01*
X111383332Y-111876327D02*
X111416665Y-111809661D01*
X111416665Y-111809661D02*
X111416665Y-111609661D01*
X111416665Y-111609661D02*
X111383332Y-111542994D01*
X111383332Y-111542994D02*
X111349999Y-111509661D01*
X111349999Y-111509661D02*
X111283332Y-111476327D01*
X111283332Y-111476327D02*
X111183332Y-111476327D01*
X111183332Y-111476327D02*
X111116665Y-111509661D01*
X111116665Y-111509661D02*
X111083332Y-111542994D01*
X111083332Y-111542994D02*
X111049999Y-111609661D01*
X111049999Y-111609661D02*
X111049999Y-111809661D01*
X111049999Y-111809661D02*
X111083332Y-111876327D01*
X111083332Y-111876327D02*
X111116665Y-111909661D01*
X111116665Y-111909661D02*
X111183332Y-111942994D01*
X111183332Y-111942994D02*
X111283332Y-111942994D01*
X110783332Y-111909661D02*
X110716666Y-111942994D01*
X110716666Y-111942994D02*
X110583332Y-111942994D01*
X110583332Y-111942994D02*
X110516666Y-111909661D01*
X110516666Y-111909661D02*
X110483332Y-111842994D01*
X110483332Y-111842994D02*
X110483332Y-111809661D01*
X110483332Y-111809661D02*
X110516666Y-111742994D01*
X110516666Y-111742994D02*
X110583332Y-111709661D01*
X110583332Y-111709661D02*
X110683332Y-111709661D01*
X110683332Y-111709661D02*
X110749999Y-111676327D01*
X110749999Y-111676327D02*
X110783332Y-111609661D01*
X110783332Y-111609661D02*
X110783332Y-111576327D01*
X110783332Y-111576327D02*
X110749999Y-111509661D01*
X110749999Y-111509661D02*
X110683332Y-111476327D01*
X110683332Y-111476327D02*
X110583332Y-111476327D01*
X110583332Y-111476327D02*
X110516666Y-111509661D01*
X109549999Y-111942994D02*
X109616666Y-111909661D01*
X109616666Y-111909661D02*
X109649999Y-111876327D01*
X109649999Y-111876327D02*
X109683332Y-111809661D01*
X109683332Y-111809661D02*
X109683332Y-111609661D01*
X109683332Y-111609661D02*
X109649999Y-111542994D01*
X109649999Y-111542994D02*
X109616666Y-111509661D01*
X109616666Y-111509661D02*
X109549999Y-111476327D01*
X109549999Y-111476327D02*
X109449999Y-111476327D01*
X109449999Y-111476327D02*
X109383332Y-111509661D01*
X109383332Y-111509661D02*
X109349999Y-111542994D01*
X109349999Y-111542994D02*
X109316666Y-111609661D01*
X109316666Y-111609661D02*
X109316666Y-111809661D01*
X109316666Y-111809661D02*
X109349999Y-111876327D01*
X109349999Y-111876327D02*
X109383332Y-111909661D01*
X109383332Y-111909661D02*
X109449999Y-111942994D01*
X109449999Y-111942994D02*
X109549999Y-111942994D01*
X109016666Y-111476327D02*
X109016666Y-111942994D01*
X109016666Y-111542994D02*
X108983333Y-111509661D01*
X108983333Y-111509661D02*
X108916666Y-111476327D01*
X108916666Y-111476327D02*
X108816666Y-111476327D01*
X108816666Y-111476327D02*
X108749999Y-111509661D01*
X108749999Y-111509661D02*
X108716666Y-111576327D01*
X108716666Y-111576327D02*
X108716666Y-111942994D01*
X108450000Y-112209661D02*
X108416666Y-112176327D01*
X108416666Y-112176327D02*
X108350000Y-112076327D01*
X108350000Y-112076327D02*
X108316666Y-112009661D01*
X108316666Y-112009661D02*
X108283333Y-111909661D01*
X108283333Y-111909661D02*
X108250000Y-111742994D01*
X108250000Y-111742994D02*
X108250000Y-111609661D01*
X108250000Y-111609661D02*
X108283333Y-111442994D01*
X108283333Y-111442994D02*
X108316666Y-111342994D01*
X108316666Y-111342994D02*
X108350000Y-111276327D01*
X108350000Y-111276327D02*
X108416666Y-111176327D01*
X108416666Y-111176327D02*
X108450000Y-111142994D01*
X107083333Y-111942994D02*
X107083333Y-111576327D01*
X107083333Y-111576327D02*
X107116666Y-111509661D01*
X107116666Y-111509661D02*
X107183333Y-111476327D01*
X107183333Y-111476327D02*
X107316666Y-111476327D01*
X107316666Y-111476327D02*
X107383333Y-111509661D01*
X107083333Y-111909661D02*
X107150000Y-111942994D01*
X107150000Y-111942994D02*
X107316666Y-111942994D01*
X107316666Y-111942994D02*
X107383333Y-111909661D01*
X107383333Y-111909661D02*
X107416666Y-111842994D01*
X107416666Y-111842994D02*
X107416666Y-111776327D01*
X107416666Y-111776327D02*
X107383333Y-111709661D01*
X107383333Y-111709661D02*
X107316666Y-111676327D01*
X107316666Y-111676327D02*
X107150000Y-111676327D01*
X107150000Y-111676327D02*
X107083333Y-111642994D01*
X106750000Y-111476327D02*
X106750000Y-111942994D01*
X106750000Y-111542994D02*
X106716667Y-111509661D01*
X106716667Y-111509661D02*
X106650000Y-111476327D01*
X106650000Y-111476327D02*
X106550000Y-111476327D01*
X106550000Y-111476327D02*
X106483333Y-111509661D01*
X106483333Y-111509661D02*
X106450000Y-111576327D01*
X106450000Y-111576327D02*
X106450000Y-111942994D01*
X105816667Y-111942994D02*
X105816667Y-111242994D01*
X105816667Y-111909661D02*
X105883334Y-111942994D01*
X105883334Y-111942994D02*
X106016667Y-111942994D01*
X106016667Y-111942994D02*
X106083334Y-111909661D01*
X106083334Y-111909661D02*
X106116667Y-111876327D01*
X106116667Y-111876327D02*
X106150000Y-111809661D01*
X106150000Y-111809661D02*
X106150000Y-111609661D01*
X106150000Y-111609661D02*
X106116667Y-111542994D01*
X106116667Y-111542994D02*
X106083334Y-111509661D01*
X106083334Y-111509661D02*
X106016667Y-111476327D01*
X106016667Y-111476327D02*
X105883334Y-111476327D01*
X105883334Y-111476327D02*
X105816667Y-111509661D01*
X105050001Y-111242994D02*
X104650001Y-111242994D01*
X104850001Y-111942994D02*
X104850001Y-111242994D01*
X104416668Y-111942994D02*
X104416668Y-111242994D01*
X104416668Y-111242994D02*
X104150001Y-111242994D01*
X104150001Y-111242994D02*
X104083335Y-111276327D01*
X104083335Y-111276327D02*
X104050001Y-111309661D01*
X104050001Y-111309661D02*
X104016668Y-111376327D01*
X104016668Y-111376327D02*
X104016668Y-111476327D01*
X104016668Y-111476327D02*
X104050001Y-111542994D01*
X104050001Y-111542994D02*
X104083335Y-111576327D01*
X104083335Y-111576327D02*
X104150001Y-111609661D01*
X104150001Y-111609661D02*
X104416668Y-111609661D01*
X103750001Y-111309661D02*
X103716668Y-111276327D01*
X103716668Y-111276327D02*
X103650001Y-111242994D01*
X103650001Y-111242994D02*
X103483335Y-111242994D01*
X103483335Y-111242994D02*
X103416668Y-111276327D01*
X103416668Y-111276327D02*
X103383335Y-111309661D01*
X103383335Y-111309661D02*
X103350001Y-111376327D01*
X103350001Y-111376327D02*
X103350001Y-111442994D01*
X103350001Y-111442994D02*
X103383335Y-111542994D01*
X103383335Y-111542994D02*
X103783335Y-111942994D01*
X103783335Y-111942994D02*
X103350001Y-111942994D01*
X103050001Y-111576327D02*
X102516668Y-111576327D01*
X102516668Y-111776327D02*
X103050001Y-111776327D01*
X102250001Y-111242994D02*
X101816667Y-111242994D01*
X101816667Y-111242994D02*
X102050001Y-111509661D01*
X102050001Y-111509661D02*
X101950001Y-111509661D01*
X101950001Y-111509661D02*
X101883334Y-111542994D01*
X101883334Y-111542994D02*
X101850001Y-111576327D01*
X101850001Y-111576327D02*
X101816667Y-111642994D01*
X101816667Y-111642994D02*
X101816667Y-111809661D01*
X101816667Y-111809661D02*
X101850001Y-111876327D01*
X101850001Y-111876327D02*
X101883334Y-111909661D01*
X101883334Y-111909661D02*
X101950001Y-111942994D01*
X101950001Y-111942994D02*
X102150001Y-111942994D01*
X102150001Y-111942994D02*
X102216667Y-111909661D01*
X102216667Y-111909661D02*
X102250001Y-111876327D01*
X101516667Y-111876327D02*
X101483334Y-111909661D01*
X101483334Y-111909661D02*
X101516667Y-111942994D01*
X101516667Y-111942994D02*
X101550000Y-111909661D01*
X101550000Y-111909661D02*
X101516667Y-111876327D01*
X101516667Y-111876327D02*
X101516667Y-111942994D01*
X101250001Y-111242994D02*
X100816667Y-111242994D01*
X100816667Y-111242994D02*
X101050001Y-111509661D01*
X101050001Y-111509661D02*
X100950001Y-111509661D01*
X100950001Y-111509661D02*
X100883334Y-111542994D01*
X100883334Y-111542994D02*
X100850001Y-111576327D01*
X100850001Y-111576327D02*
X100816667Y-111642994D01*
X100816667Y-111642994D02*
X100816667Y-111809661D01*
X100816667Y-111809661D02*
X100850001Y-111876327D01*
X100850001Y-111876327D02*
X100883334Y-111909661D01*
X100883334Y-111909661D02*
X100950001Y-111942994D01*
X100950001Y-111942994D02*
X101150001Y-111942994D01*
X101150001Y-111942994D02*
X101216667Y-111909661D01*
X101216667Y-111909661D02*
X101250001Y-111876327D01*
X100616667Y-111242994D02*
X100383334Y-111942994D01*
X100383334Y-111942994D02*
X100150000Y-111242994D01*
X99883334Y-111909661D02*
X99883334Y-111942994D01*
X99883334Y-111942994D02*
X99916667Y-112009661D01*
X99916667Y-112009661D02*
X99950000Y-112042994D01*
X123349997Y-112369955D02*
X122949997Y-112369955D01*
X123149997Y-113069955D02*
X123149997Y-112369955D01*
X122716664Y-113069955D02*
X122716664Y-112369955D01*
X122716664Y-112369955D02*
X122449997Y-112369955D01*
X122449997Y-112369955D02*
X122383331Y-112403288D01*
X122383331Y-112403288D02*
X122349997Y-112436622D01*
X122349997Y-112436622D02*
X122316664Y-112503288D01*
X122316664Y-112503288D02*
X122316664Y-112603288D01*
X122316664Y-112603288D02*
X122349997Y-112669955D01*
X122349997Y-112669955D02*
X122383331Y-112703288D01*
X122383331Y-112703288D02*
X122449997Y-112736622D01*
X122449997Y-112736622D02*
X122716664Y-112736622D01*
X122083331Y-112369955D02*
X121649997Y-112369955D01*
X121649997Y-112369955D02*
X121883331Y-112636622D01*
X121883331Y-112636622D02*
X121783331Y-112636622D01*
X121783331Y-112636622D02*
X121716664Y-112669955D01*
X121716664Y-112669955D02*
X121683331Y-112703288D01*
X121683331Y-112703288D02*
X121649997Y-112769955D01*
X121649997Y-112769955D02*
X121649997Y-112936622D01*
X121649997Y-112936622D02*
X121683331Y-113003288D01*
X121683331Y-113003288D02*
X121716664Y-113036622D01*
X121716664Y-113036622D02*
X121783331Y-113069955D01*
X121783331Y-113069955D02*
X121983331Y-113069955D01*
X121983331Y-113069955D02*
X122049997Y-113036622D01*
X122049997Y-113036622D02*
X122083331Y-113003288D01*
X121349997Y-112703288D02*
X120816664Y-112703288D01*
X120816664Y-112903288D02*
X121349997Y-112903288D01*
X120116663Y-112403288D02*
X120183330Y-112369955D01*
X120183330Y-112369955D02*
X120283330Y-112369955D01*
X120283330Y-112369955D02*
X120383330Y-112403288D01*
X120383330Y-112403288D02*
X120449997Y-112469955D01*
X120449997Y-112469955D02*
X120483330Y-112536622D01*
X120483330Y-112536622D02*
X120516663Y-112669955D01*
X120516663Y-112669955D02*
X120516663Y-112769955D01*
X120516663Y-112769955D02*
X120483330Y-112903288D01*
X120483330Y-112903288D02*
X120449997Y-112969955D01*
X120449997Y-112969955D02*
X120383330Y-113036622D01*
X120383330Y-113036622D02*
X120283330Y-113069955D01*
X120283330Y-113069955D02*
X120216663Y-113069955D01*
X120216663Y-113069955D02*
X120116663Y-113036622D01*
X120116663Y-113036622D02*
X120083330Y-113003288D01*
X120083330Y-113003288D02*
X120083330Y-112769955D01*
X120083330Y-112769955D02*
X120216663Y-112769955D01*
X119783330Y-113069955D02*
X119783330Y-112369955D01*
X119783330Y-112369955D02*
X119383330Y-113069955D01*
X119383330Y-113069955D02*
X119383330Y-112369955D01*
X119049997Y-113069955D02*
X119049997Y-112369955D01*
X119049997Y-112369955D02*
X118883330Y-112369955D01*
X118883330Y-112369955D02*
X118783330Y-112403288D01*
X118783330Y-112403288D02*
X118716664Y-112469955D01*
X118716664Y-112469955D02*
X118683330Y-112536622D01*
X118683330Y-112536622D02*
X118649997Y-112669955D01*
X118649997Y-112669955D02*
X118649997Y-112769955D01*
X118649997Y-112769955D02*
X118683330Y-112903288D01*
X118683330Y-112903288D02*
X118716664Y-112969955D01*
X118716664Y-112969955D02*
X118783330Y-113036622D01*
X118783330Y-113036622D02*
X118883330Y-113069955D01*
X118883330Y-113069955D02*
X119049997Y-113069955D01*
X117616664Y-113336622D02*
X117649997Y-113303288D01*
X117649997Y-113303288D02*
X117716664Y-113203288D01*
X117716664Y-113203288D02*
X117749997Y-113136622D01*
X117749997Y-113136622D02*
X117783331Y-113036622D01*
X117783331Y-113036622D02*
X117816664Y-112869955D01*
X117816664Y-112869955D02*
X117816664Y-112736622D01*
X117816664Y-112736622D02*
X117783331Y-112569955D01*
X117783331Y-112569955D02*
X117749997Y-112469955D01*
X117749997Y-112469955D02*
X117716664Y-112403288D01*
X117716664Y-112403288D02*
X117649997Y-112303288D01*
X117649997Y-112303288D02*
X117616664Y-112269955D01*
X117349997Y-113069955D02*
X117349997Y-112369955D01*
X117349997Y-112703288D02*
X116949997Y-112703288D01*
X116949997Y-113069955D02*
X116949997Y-112369955D01*
X116349997Y-113036622D02*
X116416664Y-113069955D01*
X116416664Y-113069955D02*
X116549997Y-113069955D01*
X116549997Y-113069955D02*
X116616664Y-113036622D01*
X116616664Y-113036622D02*
X116649997Y-112969955D01*
X116649997Y-112969955D02*
X116649997Y-112703288D01*
X116649997Y-112703288D02*
X116616664Y-112636622D01*
X116616664Y-112636622D02*
X116549997Y-112603288D01*
X116549997Y-112603288D02*
X116416664Y-112603288D01*
X116416664Y-112603288D02*
X116349997Y-112636622D01*
X116349997Y-112636622D02*
X116316664Y-112703288D01*
X116316664Y-112703288D02*
X116316664Y-112769955D01*
X116316664Y-112769955D02*
X116649997Y-112836622D01*
X115916664Y-113069955D02*
X115983331Y-113036622D01*
X115983331Y-113036622D02*
X116016664Y-112969955D01*
X116016664Y-112969955D02*
X116016664Y-112369955D01*
X115649997Y-113069955D02*
X115649997Y-112603288D01*
X115649997Y-112369955D02*
X115683330Y-112403288D01*
X115683330Y-112403288D02*
X115649997Y-112436622D01*
X115649997Y-112436622D02*
X115616664Y-112403288D01*
X115616664Y-112403288D02*
X115649997Y-112369955D01*
X115649997Y-112369955D02*
X115649997Y-112436622D01*
X115216664Y-113069955D02*
X115283331Y-113036622D01*
X115283331Y-113036622D02*
X115316664Y-113003288D01*
X115316664Y-113003288D02*
X115349997Y-112936622D01*
X115349997Y-112936622D02*
X115349997Y-112736622D01*
X115349997Y-112736622D02*
X115316664Y-112669955D01*
X115316664Y-112669955D02*
X115283331Y-112636622D01*
X115283331Y-112636622D02*
X115216664Y-112603288D01*
X115216664Y-112603288D02*
X115116664Y-112603288D01*
X115116664Y-112603288D02*
X115049997Y-112636622D01*
X115049997Y-112636622D02*
X115016664Y-112669955D01*
X115016664Y-112669955D02*
X114983331Y-112736622D01*
X114983331Y-112736622D02*
X114983331Y-112936622D01*
X114983331Y-112936622D02*
X115016664Y-113003288D01*
X115016664Y-113003288D02*
X115049997Y-113036622D01*
X115049997Y-113036622D02*
X115116664Y-113069955D01*
X115116664Y-113069955D02*
X115216664Y-113069955D01*
X114716664Y-113036622D02*
X114649998Y-113069955D01*
X114649998Y-113069955D02*
X114516664Y-113069955D01*
X114516664Y-113069955D02*
X114449998Y-113036622D01*
X114449998Y-113036622D02*
X114416664Y-112969955D01*
X114416664Y-112969955D02*
X114416664Y-112936622D01*
X114416664Y-112936622D02*
X114449998Y-112869955D01*
X114449998Y-112869955D02*
X114516664Y-112836622D01*
X114516664Y-112836622D02*
X114616664Y-112836622D01*
X114616664Y-112836622D02*
X114683331Y-112803288D01*
X114683331Y-112803288D02*
X114716664Y-112736622D01*
X114716664Y-112736622D02*
X114716664Y-112703288D01*
X114716664Y-112703288D02*
X114683331Y-112636622D01*
X114683331Y-112636622D02*
X114616664Y-112603288D01*
X114616664Y-112603288D02*
X114516664Y-112603288D01*
X114516664Y-112603288D02*
X114449998Y-112636622D01*
X113483331Y-113069955D02*
X113549998Y-113036622D01*
X113549998Y-113036622D02*
X113583331Y-113003288D01*
X113583331Y-113003288D02*
X113616664Y-112936622D01*
X113616664Y-112936622D02*
X113616664Y-112736622D01*
X113616664Y-112736622D02*
X113583331Y-112669955D01*
X113583331Y-112669955D02*
X113549998Y-112636622D01*
X113549998Y-112636622D02*
X113483331Y-112603288D01*
X113483331Y-112603288D02*
X113383331Y-112603288D01*
X113383331Y-112603288D02*
X113316664Y-112636622D01*
X113316664Y-112636622D02*
X113283331Y-112669955D01*
X113283331Y-112669955D02*
X113249998Y-112736622D01*
X113249998Y-112736622D02*
X113249998Y-112936622D01*
X113249998Y-112936622D02*
X113283331Y-113003288D01*
X113283331Y-113003288D02*
X113316664Y-113036622D01*
X113316664Y-113036622D02*
X113383331Y-113069955D01*
X113383331Y-113069955D02*
X113483331Y-113069955D01*
X112949998Y-112603288D02*
X112949998Y-113069955D01*
X112949998Y-112669955D02*
X112916665Y-112636622D01*
X112916665Y-112636622D02*
X112849998Y-112603288D01*
X112849998Y-112603288D02*
X112749998Y-112603288D01*
X112749998Y-112603288D02*
X112683331Y-112636622D01*
X112683331Y-112636622D02*
X112649998Y-112703288D01*
X112649998Y-112703288D02*
X112649998Y-113069955D01*
X112383332Y-113336622D02*
X112349998Y-113303288D01*
X112349998Y-113303288D02*
X112283332Y-113203288D01*
X112283332Y-113203288D02*
X112249998Y-113136622D01*
X112249998Y-113136622D02*
X112216665Y-113036622D01*
X112216665Y-113036622D02*
X112183332Y-112869955D01*
X112183332Y-112869955D02*
X112183332Y-112736622D01*
X112183332Y-112736622D02*
X112216665Y-112569955D01*
X112216665Y-112569955D02*
X112249998Y-112469955D01*
X112249998Y-112469955D02*
X112283332Y-112403288D01*
X112283332Y-112403288D02*
X112349998Y-112303288D01*
X112349998Y-112303288D02*
X112383332Y-112269955D01*
X111083332Y-112703288D02*
X110983332Y-112736622D01*
X110983332Y-112736622D02*
X110949998Y-112769955D01*
X110949998Y-112769955D02*
X110916665Y-112836622D01*
X110916665Y-112836622D02*
X110916665Y-112936622D01*
X110916665Y-112936622D02*
X110949998Y-113003288D01*
X110949998Y-113003288D02*
X110983332Y-113036622D01*
X110983332Y-113036622D02*
X111049998Y-113069955D01*
X111049998Y-113069955D02*
X111316665Y-113069955D01*
X111316665Y-113069955D02*
X111316665Y-112369955D01*
X111316665Y-112369955D02*
X111083332Y-112369955D01*
X111083332Y-112369955D02*
X111016665Y-112403288D01*
X111016665Y-112403288D02*
X110983332Y-112436622D01*
X110983332Y-112436622D02*
X110949998Y-112503288D01*
X110949998Y-112503288D02*
X110949998Y-112569955D01*
X110949998Y-112569955D02*
X110983332Y-112636622D01*
X110983332Y-112636622D02*
X111016665Y-112669955D01*
X111016665Y-112669955D02*
X111083332Y-112703288D01*
X111083332Y-112703288D02*
X111316665Y-112703288D01*
X110616665Y-112703288D02*
X110383332Y-112703288D01*
X110283332Y-113069955D02*
X110616665Y-113069955D01*
X110616665Y-113069955D02*
X110616665Y-112369955D01*
X110616665Y-112369955D02*
X110283332Y-112369955D01*
X109749999Y-112703288D02*
X109983332Y-112703288D01*
X109983332Y-113069955D02*
X109983332Y-112369955D01*
X109983332Y-112369955D02*
X109649999Y-112369955D01*
X109249999Y-112369955D02*
X109116665Y-112369955D01*
X109116665Y-112369955D02*
X109049999Y-112403288D01*
X109049999Y-112403288D02*
X108983332Y-112469955D01*
X108983332Y-112469955D02*
X108949999Y-112603288D01*
X108949999Y-112603288D02*
X108949999Y-112836622D01*
X108949999Y-112836622D02*
X108983332Y-112969955D01*
X108983332Y-112969955D02*
X109049999Y-113036622D01*
X109049999Y-113036622D02*
X109116665Y-113069955D01*
X109116665Y-113069955D02*
X109249999Y-113069955D01*
X109249999Y-113069955D02*
X109316665Y-113036622D01*
X109316665Y-113036622D02*
X109383332Y-112969955D01*
X109383332Y-112969955D02*
X109416665Y-112836622D01*
X109416665Y-112836622D02*
X109416665Y-112603288D01*
X109416665Y-112603288D02*
X109383332Y-112469955D01*
X109383332Y-112469955D02*
X109316665Y-112403288D01*
X109316665Y-112403288D02*
X109249999Y-112369955D01*
X108249999Y-113069955D02*
X108483332Y-112736622D01*
X108649999Y-113069955D02*
X108649999Y-112369955D01*
X108649999Y-112369955D02*
X108383332Y-112369955D01*
X108383332Y-112369955D02*
X108316666Y-112403288D01*
X108316666Y-112403288D02*
X108283332Y-112436622D01*
X108283332Y-112436622D02*
X108249999Y-112503288D01*
X108249999Y-112503288D02*
X108249999Y-112603288D01*
X108249999Y-112603288D02*
X108283332Y-112669955D01*
X108283332Y-112669955D02*
X108316666Y-112703288D01*
X108316666Y-112703288D02*
X108383332Y-112736622D01*
X108383332Y-112736622D02*
X108649999Y-112736622D01*
X107949999Y-112703288D02*
X107716666Y-112703288D01*
X107616666Y-113069955D02*
X107949999Y-113069955D01*
X107949999Y-113069955D02*
X107949999Y-112369955D01*
X107949999Y-112369955D02*
X107616666Y-112369955D01*
X106883333Y-112603288D02*
X106616666Y-112603288D01*
X106783333Y-113069955D02*
X106783333Y-112469955D01*
X106783333Y-112469955D02*
X106750000Y-112403288D01*
X106750000Y-112403288D02*
X106683333Y-112369955D01*
X106683333Y-112369955D02*
X106616666Y-112369955D01*
X106083333Y-112603288D02*
X106083333Y-113069955D01*
X106383333Y-112603288D02*
X106383333Y-112969955D01*
X106383333Y-112969955D02*
X106350000Y-113036622D01*
X106350000Y-113036622D02*
X106283333Y-113069955D01*
X106283333Y-113069955D02*
X106183333Y-113069955D01*
X106183333Y-113069955D02*
X106116666Y-113036622D01*
X106116666Y-113036622D02*
X106083333Y-113003288D01*
X105650000Y-113069955D02*
X105716667Y-113036622D01*
X105716667Y-113036622D02*
X105750000Y-112969955D01*
X105750000Y-112969955D02*
X105750000Y-112369955D01*
X105283333Y-113069955D02*
X105350000Y-113036622D01*
X105350000Y-113036622D02*
X105383333Y-112969955D01*
X105383333Y-112969955D02*
X105383333Y-112369955D01*
X104483333Y-113069955D02*
X104483333Y-112369955D01*
X104183333Y-113069955D02*
X104183333Y-112703288D01*
X104183333Y-112703288D02*
X104216666Y-112636622D01*
X104216666Y-112636622D02*
X104283333Y-112603288D01*
X104283333Y-112603288D02*
X104383333Y-112603288D01*
X104383333Y-112603288D02*
X104450000Y-112636622D01*
X104450000Y-112636622D02*
X104483333Y-112669955D01*
X103750000Y-113069955D02*
X103816667Y-113036622D01*
X103816667Y-113036622D02*
X103850000Y-113003288D01*
X103850000Y-113003288D02*
X103883333Y-112936622D01*
X103883333Y-112936622D02*
X103883333Y-112736622D01*
X103883333Y-112736622D02*
X103850000Y-112669955D01*
X103850000Y-112669955D02*
X103816667Y-112636622D01*
X103816667Y-112636622D02*
X103750000Y-112603288D01*
X103750000Y-112603288D02*
X103650000Y-112603288D01*
X103650000Y-112603288D02*
X103583333Y-112636622D01*
X103583333Y-112636622D02*
X103550000Y-112669955D01*
X103550000Y-112669955D02*
X103516667Y-112736622D01*
X103516667Y-112736622D02*
X103516667Y-112936622D01*
X103516667Y-112936622D02*
X103550000Y-113003288D01*
X103550000Y-113003288D02*
X103583333Y-113036622D01*
X103583333Y-113036622D02*
X103650000Y-113069955D01*
X103650000Y-113069955D02*
X103750000Y-113069955D01*
X103116667Y-113069955D02*
X103183334Y-113036622D01*
X103183334Y-113036622D02*
X103216667Y-113003288D01*
X103216667Y-113003288D02*
X103250000Y-112936622D01*
X103250000Y-112936622D02*
X103250000Y-112736622D01*
X103250000Y-112736622D02*
X103216667Y-112669955D01*
X103216667Y-112669955D02*
X103183334Y-112636622D01*
X103183334Y-112636622D02*
X103116667Y-112603288D01*
X103116667Y-112603288D02*
X103016667Y-112603288D01*
X103016667Y-112603288D02*
X102950000Y-112636622D01*
X102950000Y-112636622D02*
X102916667Y-112669955D01*
X102916667Y-112669955D02*
X102883334Y-112736622D01*
X102883334Y-112736622D02*
X102883334Y-112936622D01*
X102883334Y-112936622D02*
X102916667Y-113003288D01*
X102916667Y-113003288D02*
X102950000Y-113036622D01*
X102950000Y-113036622D02*
X103016667Y-113069955D01*
X103016667Y-113069955D02*
X103116667Y-113069955D01*
X102583334Y-113069955D02*
X102583334Y-112369955D01*
X102516667Y-112803288D02*
X102316667Y-113069955D01*
X102316667Y-112603288D02*
X102583334Y-112869955D01*
X101716667Y-112603288D02*
X101716667Y-113069955D01*
X102016667Y-112603288D02*
X102016667Y-112969955D01*
X102016667Y-112969955D02*
X101983334Y-113036622D01*
X101983334Y-113036622D02*
X101916667Y-113069955D01*
X101916667Y-113069955D02*
X101816667Y-113069955D01*
X101816667Y-113069955D02*
X101750000Y-113036622D01*
X101750000Y-113036622D02*
X101716667Y-113003288D01*
X101383334Y-112603288D02*
X101383334Y-113303288D01*
X101383334Y-112636622D02*
X101316667Y-112603288D01*
X101316667Y-112603288D02*
X101183334Y-112603288D01*
X101183334Y-112603288D02*
X101116667Y-112636622D01*
X101116667Y-112636622D02*
X101083334Y-112669955D01*
X101083334Y-112669955D02*
X101050001Y-112736622D01*
X101050001Y-112736622D02*
X101050001Y-112936622D01*
X101050001Y-112936622D02*
X101083334Y-113003288D01*
X101083334Y-113003288D02*
X101116667Y-113036622D01*
X101116667Y-113036622D02*
X101183334Y-113069955D01*
X101183334Y-113069955D02*
X101316667Y-113069955D01*
X101316667Y-113069955D02*
X101383334Y-113036622D01*
X100750001Y-113003288D02*
X100716668Y-113036622D01*
X100716668Y-113036622D02*
X100750001Y-113069955D01*
X100750001Y-113069955D02*
X100783334Y-113036622D01*
X100783334Y-113036622D02*
X100750001Y-113003288D01*
X100750001Y-113003288D02*
X100750001Y-113069955D01*
X123383329Y-113496916D02*
X123216662Y-114196916D01*
X123216662Y-114196916D02*
X123083329Y-113696916D01*
X123083329Y-113696916D02*
X122949995Y-114196916D01*
X122949995Y-114196916D02*
X122783329Y-113496916D01*
X122516662Y-114196916D02*
X122516662Y-113730249D01*
X122516662Y-113863583D02*
X122483329Y-113796916D01*
X122483329Y-113796916D02*
X122449995Y-113763583D01*
X122449995Y-113763583D02*
X122383329Y-113730249D01*
X122383329Y-113730249D02*
X122316662Y-113730249D01*
X121983329Y-114196916D02*
X122049996Y-114163583D01*
X122049996Y-114163583D02*
X122083329Y-114130249D01*
X122083329Y-114130249D02*
X122116662Y-114063583D01*
X122116662Y-114063583D02*
X122116662Y-113863583D01*
X122116662Y-113863583D02*
X122083329Y-113796916D01*
X122083329Y-113796916D02*
X122049996Y-113763583D01*
X122049996Y-113763583D02*
X121983329Y-113730249D01*
X121983329Y-113730249D02*
X121883329Y-113730249D01*
X121883329Y-113730249D02*
X121816662Y-113763583D01*
X121816662Y-113763583D02*
X121783329Y-113796916D01*
X121783329Y-113796916D02*
X121749996Y-113863583D01*
X121749996Y-113863583D02*
X121749996Y-114063583D01*
X121749996Y-114063583D02*
X121783329Y-114130249D01*
X121783329Y-114130249D02*
X121816662Y-114163583D01*
X121816662Y-114163583D02*
X121883329Y-114196916D01*
X121883329Y-114196916D02*
X121983329Y-114196916D01*
X121449996Y-113730249D02*
X121449996Y-114196916D01*
X121449996Y-113796916D02*
X121416663Y-113763583D01*
X121416663Y-113763583D02*
X121349996Y-113730249D01*
X121349996Y-113730249D02*
X121249996Y-113730249D01*
X121249996Y-113730249D02*
X121183329Y-113763583D01*
X121183329Y-113763583D02*
X121149996Y-113830249D01*
X121149996Y-113830249D02*
X121149996Y-114196916D01*
X120516663Y-113730249D02*
X120516663Y-114296916D01*
X120516663Y-114296916D02*
X120549996Y-114363583D01*
X120549996Y-114363583D02*
X120583330Y-114396916D01*
X120583330Y-114396916D02*
X120649996Y-114430249D01*
X120649996Y-114430249D02*
X120749996Y-114430249D01*
X120749996Y-114430249D02*
X120816663Y-114396916D01*
X120516663Y-114163583D02*
X120583330Y-114196916D01*
X120583330Y-114196916D02*
X120716663Y-114196916D01*
X120716663Y-114196916D02*
X120783330Y-114163583D01*
X120783330Y-114163583D02*
X120816663Y-114130249D01*
X120816663Y-114130249D02*
X120849996Y-114063583D01*
X120849996Y-114063583D02*
X120849996Y-113863583D01*
X120849996Y-113863583D02*
X120816663Y-113796916D01*
X120816663Y-113796916D02*
X120783330Y-113763583D01*
X120783330Y-113763583D02*
X120716663Y-113730249D01*
X120716663Y-113730249D02*
X120583330Y-113730249D01*
X120583330Y-113730249D02*
X120516663Y-113763583D01*
X119649997Y-114196916D02*
X119649997Y-113730249D01*
X119649997Y-113863583D02*
X119616664Y-113796916D01*
X119616664Y-113796916D02*
X119583330Y-113763583D01*
X119583330Y-113763583D02*
X119516664Y-113730249D01*
X119516664Y-113730249D02*
X119449997Y-113730249D01*
X118949997Y-114163583D02*
X119016664Y-114196916D01*
X119016664Y-114196916D02*
X119149997Y-114196916D01*
X119149997Y-114196916D02*
X119216664Y-114163583D01*
X119216664Y-114163583D02*
X119249997Y-114096916D01*
X119249997Y-114096916D02*
X119249997Y-113830249D01*
X119249997Y-113830249D02*
X119216664Y-113763583D01*
X119216664Y-113763583D02*
X119149997Y-113730249D01*
X119149997Y-113730249D02*
X119016664Y-113730249D01*
X119016664Y-113730249D02*
X118949997Y-113763583D01*
X118949997Y-113763583D02*
X118916664Y-113830249D01*
X118916664Y-113830249D02*
X118916664Y-113896916D01*
X118916664Y-113896916D02*
X119249997Y-113963583D01*
X118316664Y-114196916D02*
X118316664Y-113830249D01*
X118316664Y-113830249D02*
X118349997Y-113763583D01*
X118349997Y-113763583D02*
X118416664Y-113730249D01*
X118416664Y-113730249D02*
X118549997Y-113730249D01*
X118549997Y-113730249D02*
X118616664Y-113763583D01*
X118316664Y-114163583D02*
X118383331Y-114196916D01*
X118383331Y-114196916D02*
X118549997Y-114196916D01*
X118549997Y-114196916D02*
X118616664Y-114163583D01*
X118616664Y-114163583D02*
X118649997Y-114096916D01*
X118649997Y-114096916D02*
X118649997Y-114030249D01*
X118649997Y-114030249D02*
X118616664Y-113963583D01*
X118616664Y-113963583D02*
X118549997Y-113930249D01*
X118549997Y-113930249D02*
X118383331Y-113930249D01*
X118383331Y-113930249D02*
X118316664Y-113896916D01*
X117683331Y-114196916D02*
X117683331Y-113496916D01*
X117683331Y-114163583D02*
X117749998Y-114196916D01*
X117749998Y-114196916D02*
X117883331Y-114196916D01*
X117883331Y-114196916D02*
X117949998Y-114163583D01*
X117949998Y-114163583D02*
X117983331Y-114130249D01*
X117983331Y-114130249D02*
X118016664Y-114063583D01*
X118016664Y-114063583D02*
X118016664Y-113863583D01*
X118016664Y-113863583D02*
X117983331Y-113796916D01*
X117983331Y-113796916D02*
X117949998Y-113763583D01*
X117949998Y-113763583D02*
X117883331Y-113730249D01*
X117883331Y-113730249D02*
X117749998Y-113730249D01*
X117749998Y-113730249D02*
X117683331Y-113763583D01*
X117349998Y-114196916D02*
X117349998Y-113730249D01*
X117349998Y-113496916D02*
X117383331Y-113530249D01*
X117383331Y-113530249D02*
X117349998Y-113563583D01*
X117349998Y-113563583D02*
X117316665Y-113530249D01*
X117316665Y-113530249D02*
X117349998Y-113496916D01*
X117349998Y-113496916D02*
X117349998Y-113563583D01*
X117016665Y-113730249D02*
X117016665Y-114196916D01*
X117016665Y-113796916D02*
X116983332Y-113763583D01*
X116983332Y-113763583D02*
X116916665Y-113730249D01*
X116916665Y-113730249D02*
X116816665Y-113730249D01*
X116816665Y-113730249D02*
X116749998Y-113763583D01*
X116749998Y-113763583D02*
X116716665Y-113830249D01*
X116716665Y-113830249D02*
X116716665Y-114196916D01*
X116083332Y-113730249D02*
X116083332Y-114296916D01*
X116083332Y-114296916D02*
X116116665Y-114363583D01*
X116116665Y-114363583D02*
X116149999Y-114396916D01*
X116149999Y-114396916D02*
X116216665Y-114430249D01*
X116216665Y-114430249D02*
X116316665Y-114430249D01*
X116316665Y-114430249D02*
X116383332Y-114396916D01*
X116083332Y-114163583D02*
X116149999Y-114196916D01*
X116149999Y-114196916D02*
X116283332Y-114196916D01*
X116283332Y-114196916D02*
X116349999Y-114163583D01*
X116349999Y-114163583D02*
X116383332Y-114130249D01*
X116383332Y-114130249D02*
X116416665Y-114063583D01*
X116416665Y-114063583D02*
X116416665Y-113863583D01*
X116416665Y-113863583D02*
X116383332Y-113796916D01*
X116383332Y-113796916D02*
X116349999Y-113763583D01*
X116349999Y-113763583D02*
X116283332Y-113730249D01*
X116283332Y-113730249D02*
X116149999Y-113730249D01*
X116149999Y-113730249D02*
X116083332Y-113763583D01*
X115216666Y-113830249D02*
X114683333Y-113830249D01*
X114683333Y-114030249D02*
X115216666Y-114030249D01*
X113849999Y-114163583D02*
X113783333Y-114196916D01*
X113783333Y-114196916D02*
X113649999Y-114196916D01*
X113649999Y-114196916D02*
X113583333Y-114163583D01*
X113583333Y-114163583D02*
X113549999Y-114096916D01*
X113549999Y-114096916D02*
X113549999Y-114063583D01*
X113549999Y-114063583D02*
X113583333Y-113996916D01*
X113583333Y-113996916D02*
X113649999Y-113963583D01*
X113649999Y-113963583D02*
X113749999Y-113963583D01*
X113749999Y-113963583D02*
X113816666Y-113930249D01*
X113816666Y-113930249D02*
X113849999Y-113863583D01*
X113849999Y-113863583D02*
X113849999Y-113830249D01*
X113849999Y-113830249D02*
X113816666Y-113763583D01*
X113816666Y-113763583D02*
X113749999Y-113730249D01*
X113749999Y-113730249D02*
X113649999Y-113730249D01*
X113649999Y-113730249D02*
X113583333Y-113763583D01*
X113316666Y-113730249D02*
X113183332Y-114196916D01*
X113183332Y-114196916D02*
X113049999Y-113863583D01*
X113049999Y-113863583D02*
X112916666Y-114196916D01*
X112916666Y-114196916D02*
X112783332Y-113730249D01*
X112216666Y-114196916D02*
X112216666Y-113830249D01*
X112216666Y-113830249D02*
X112249999Y-113763583D01*
X112249999Y-113763583D02*
X112316666Y-113730249D01*
X112316666Y-113730249D02*
X112449999Y-113730249D01*
X112449999Y-113730249D02*
X112516666Y-113763583D01*
X112216666Y-114163583D02*
X112283333Y-114196916D01*
X112283333Y-114196916D02*
X112449999Y-114196916D01*
X112449999Y-114196916D02*
X112516666Y-114163583D01*
X112516666Y-114163583D02*
X112549999Y-114096916D01*
X112549999Y-114096916D02*
X112549999Y-114030249D01*
X112549999Y-114030249D02*
X112516666Y-113963583D01*
X112516666Y-113963583D02*
X112449999Y-113930249D01*
X112449999Y-113930249D02*
X112283333Y-113930249D01*
X112283333Y-113930249D02*
X112216666Y-113896916D01*
X111883333Y-113730249D02*
X111883333Y-114430249D01*
X111883333Y-113763583D02*
X111816666Y-113730249D01*
X111816666Y-113730249D02*
X111683333Y-113730249D01*
X111683333Y-113730249D02*
X111616666Y-113763583D01*
X111616666Y-113763583D02*
X111583333Y-113796916D01*
X111583333Y-113796916D02*
X111550000Y-113863583D01*
X111550000Y-113863583D02*
X111550000Y-114063583D01*
X111550000Y-114063583D02*
X111583333Y-114130249D01*
X111583333Y-114130249D02*
X111616666Y-114163583D01*
X111616666Y-114163583D02*
X111683333Y-114196916D01*
X111683333Y-114196916D02*
X111816666Y-114196916D01*
X111816666Y-114196916D02*
X111883333Y-114163583D01*
X110416667Y-114163583D02*
X110483334Y-114196916D01*
X110483334Y-114196916D02*
X110616667Y-114196916D01*
X110616667Y-114196916D02*
X110683334Y-114163583D01*
X110683334Y-114163583D02*
X110716667Y-114130249D01*
X110716667Y-114130249D02*
X110750000Y-114063583D01*
X110750000Y-114063583D02*
X110750000Y-113863583D01*
X110750000Y-113863583D02*
X110716667Y-113796916D01*
X110716667Y-113796916D02*
X110683334Y-113763583D01*
X110683334Y-113763583D02*
X110616667Y-113730249D01*
X110616667Y-113730249D02*
X110483334Y-113730249D01*
X110483334Y-113730249D02*
X110416667Y-113763583D01*
X109816667Y-114196916D02*
X109816667Y-113830249D01*
X109816667Y-113830249D02*
X109850000Y-113763583D01*
X109850000Y-113763583D02*
X109916667Y-113730249D01*
X109916667Y-113730249D02*
X110050000Y-113730249D01*
X110050000Y-113730249D02*
X110116667Y-113763583D01*
X109816667Y-114163583D02*
X109883334Y-114196916D01*
X109883334Y-114196916D02*
X110050000Y-114196916D01*
X110050000Y-114196916D02*
X110116667Y-114163583D01*
X110116667Y-114163583D02*
X110150000Y-114096916D01*
X110150000Y-114096916D02*
X110150000Y-114030249D01*
X110150000Y-114030249D02*
X110116667Y-113963583D01*
X110116667Y-113963583D02*
X110050000Y-113930249D01*
X110050000Y-113930249D02*
X109883334Y-113930249D01*
X109883334Y-113930249D02*
X109816667Y-113896916D01*
X109483334Y-114196916D02*
X109483334Y-113496916D01*
X109483334Y-113763583D02*
X109416667Y-113730249D01*
X109416667Y-113730249D02*
X109283334Y-113730249D01*
X109283334Y-113730249D02*
X109216667Y-113763583D01*
X109216667Y-113763583D02*
X109183334Y-113796916D01*
X109183334Y-113796916D02*
X109150001Y-113863583D01*
X109150001Y-113863583D02*
X109150001Y-114063583D01*
X109150001Y-114063583D02*
X109183334Y-114130249D01*
X109183334Y-114130249D02*
X109216667Y-114163583D01*
X109216667Y-114163583D02*
X109283334Y-114196916D01*
X109283334Y-114196916D02*
X109416667Y-114196916D01*
X109416667Y-114196916D02*
X109483334Y-114163583D01*
X108750001Y-114196916D02*
X108816668Y-114163583D01*
X108816668Y-114163583D02*
X108850001Y-114096916D01*
X108850001Y-114096916D02*
X108850001Y-113496916D01*
X108216667Y-114163583D02*
X108283334Y-114196916D01*
X108283334Y-114196916D02*
X108416667Y-114196916D01*
X108416667Y-114196916D02*
X108483334Y-114163583D01*
X108483334Y-114163583D02*
X108516667Y-114096916D01*
X108516667Y-114096916D02*
X108516667Y-113830249D01*
X108516667Y-113830249D02*
X108483334Y-113763583D01*
X108483334Y-113763583D02*
X108416667Y-113730249D01*
X108416667Y-113730249D02*
X108283334Y-113730249D01*
X108283334Y-113730249D02*
X108216667Y-113763583D01*
X108216667Y-113763583D02*
X108183334Y-113830249D01*
X108183334Y-113830249D02*
X108183334Y-113896916D01*
X108183334Y-113896916D02*
X108516667Y-113963583D01*
X107350001Y-113730249D02*
X107350001Y-114430249D01*
X107350001Y-113763583D02*
X107283334Y-113730249D01*
X107283334Y-113730249D02*
X107150001Y-113730249D01*
X107150001Y-113730249D02*
X107083334Y-113763583D01*
X107083334Y-113763583D02*
X107050001Y-113796916D01*
X107050001Y-113796916D02*
X107016668Y-113863583D01*
X107016668Y-113863583D02*
X107016668Y-114063583D01*
X107016668Y-114063583D02*
X107050001Y-114130249D01*
X107050001Y-114130249D02*
X107083334Y-114163583D01*
X107083334Y-114163583D02*
X107150001Y-114196916D01*
X107150001Y-114196916D02*
X107283334Y-114196916D01*
X107283334Y-114196916D02*
X107350001Y-114163583D01*
X106616668Y-114196916D02*
X106683335Y-114163583D01*
X106683335Y-114163583D02*
X106716668Y-114130249D01*
X106716668Y-114130249D02*
X106750001Y-114063583D01*
X106750001Y-114063583D02*
X106750001Y-113863583D01*
X106750001Y-113863583D02*
X106716668Y-113796916D01*
X106716668Y-113796916D02*
X106683335Y-113763583D01*
X106683335Y-113763583D02*
X106616668Y-113730249D01*
X106616668Y-113730249D02*
X106516668Y-113730249D01*
X106516668Y-113730249D02*
X106450001Y-113763583D01*
X106450001Y-113763583D02*
X106416668Y-113796916D01*
X106416668Y-113796916D02*
X106383335Y-113863583D01*
X106383335Y-113863583D02*
X106383335Y-114063583D01*
X106383335Y-114063583D02*
X106416668Y-114130249D01*
X106416668Y-114130249D02*
X106450001Y-114163583D01*
X106450001Y-114163583D02*
X106516668Y-114196916D01*
X106516668Y-114196916D02*
X106616668Y-114196916D01*
X105983335Y-114196916D02*
X106050002Y-114163583D01*
X106050002Y-114163583D02*
X106083335Y-114096916D01*
X106083335Y-114096916D02*
X106083335Y-113496916D01*
X105416668Y-114196916D02*
X105416668Y-113830249D01*
X105416668Y-113830249D02*
X105450001Y-113763583D01*
X105450001Y-113763583D02*
X105516668Y-113730249D01*
X105516668Y-113730249D02*
X105650001Y-113730249D01*
X105650001Y-113730249D02*
X105716668Y-113763583D01*
X105416668Y-114163583D02*
X105483335Y-114196916D01*
X105483335Y-114196916D02*
X105650001Y-114196916D01*
X105650001Y-114196916D02*
X105716668Y-114163583D01*
X105716668Y-114163583D02*
X105750001Y-114096916D01*
X105750001Y-114096916D02*
X105750001Y-114030249D01*
X105750001Y-114030249D02*
X105716668Y-113963583D01*
X105716668Y-113963583D02*
X105650001Y-113930249D01*
X105650001Y-113930249D02*
X105483335Y-113930249D01*
X105483335Y-113930249D02*
X105416668Y-113896916D01*
X105083335Y-114196916D02*
X105083335Y-113730249D01*
X105083335Y-113863583D02*
X105050002Y-113796916D01*
X105050002Y-113796916D02*
X105016668Y-113763583D01*
X105016668Y-113763583D02*
X104950002Y-113730249D01*
X104950002Y-113730249D02*
X104883335Y-113730249D01*
X104650002Y-114196916D02*
X104650002Y-113730249D01*
X104650002Y-113496916D02*
X104683335Y-113530249D01*
X104683335Y-113530249D02*
X104650002Y-113563583D01*
X104650002Y-113563583D02*
X104616669Y-113530249D01*
X104616669Y-113530249D02*
X104650002Y-113496916D01*
X104650002Y-113496916D02*
X104650002Y-113563583D01*
X104416669Y-113730249D02*
X104150002Y-113730249D01*
X104316669Y-113496916D02*
X104316669Y-114096916D01*
X104316669Y-114096916D02*
X104283336Y-114163583D01*
X104283336Y-114163583D02*
X104216669Y-114196916D01*
X104216669Y-114196916D02*
X104150002Y-114196916D01*
X103983336Y-113730249D02*
X103816669Y-114196916D01*
X103650002Y-113730249D02*
X103816669Y-114196916D01*
X103816669Y-114196916D02*
X103883336Y-114363583D01*
X103883336Y-114363583D02*
X103916669Y-114396916D01*
X103916669Y-114396916D02*
X103983336Y-114430249D01*
X102950003Y-113730249D02*
X102683336Y-113730249D01*
X102850003Y-113496916D02*
X102850003Y-114096916D01*
X102850003Y-114096916D02*
X102816670Y-114163583D01*
X102816670Y-114163583D02*
X102750003Y-114196916D01*
X102750003Y-114196916D02*
X102683336Y-114196916D01*
X102516670Y-113730249D02*
X102350003Y-114196916D01*
X102183336Y-113730249D02*
X102350003Y-114196916D01*
X102350003Y-114196916D02*
X102416670Y-114363583D01*
X102416670Y-114363583D02*
X102450003Y-114396916D01*
X102450003Y-114396916D02*
X102516670Y-114430249D01*
X101916670Y-113730249D02*
X101916670Y-114430249D01*
X101916670Y-113763583D02*
X101850003Y-113730249D01*
X101850003Y-113730249D02*
X101716670Y-113730249D01*
X101716670Y-113730249D02*
X101650003Y-113763583D01*
X101650003Y-113763583D02*
X101616670Y-113796916D01*
X101616670Y-113796916D02*
X101583337Y-113863583D01*
X101583337Y-113863583D02*
X101583337Y-114063583D01*
X101583337Y-114063583D02*
X101616670Y-114130249D01*
X101616670Y-114130249D02*
X101650003Y-114163583D01*
X101650003Y-114163583D02*
X101716670Y-114196916D01*
X101716670Y-114196916D02*
X101850003Y-114196916D01*
X101850003Y-114196916D02*
X101916670Y-114163583D01*
X101016670Y-114163583D02*
X101083337Y-114196916D01*
X101083337Y-114196916D02*
X101216670Y-114196916D01*
X101216670Y-114196916D02*
X101283337Y-114163583D01*
X101283337Y-114163583D02*
X101316670Y-114096916D01*
X101316670Y-114096916D02*
X101316670Y-113830249D01*
X101316670Y-113830249D02*
X101283337Y-113763583D01*
X101283337Y-113763583D02*
X101216670Y-113730249D01*
X101216670Y-113730249D02*
X101083337Y-113730249D01*
X101083337Y-113730249D02*
X101016670Y-113763583D01*
X101016670Y-113763583D02*
X100983337Y-113830249D01*
X100983337Y-113830249D02*
X100983337Y-113896916D01*
X100983337Y-113896916D02*
X101316670Y-113963583D01*
X100683337Y-114130249D02*
X100650004Y-114163583D01*
X100650004Y-114163583D02*
X100683337Y-114196916D01*
X100683337Y-114196916D02*
X100716670Y-114163583D01*
X100716670Y-114163583D02*
X100683337Y-114130249D01*
X100683337Y-114130249D02*
X100683337Y-114196916D01*
%LPC*%
D11*
%TO.C,H4*%
X123700000Y-120700000D03*
%TD*%
%TO.C,H3*%
X100300000Y-120700000D03*
%TD*%
%TO.C,H1*%
X100300000Y-100300000D03*
%TD*%
%TO.C,H2*%
X123700000Y-100300000D03*
%TD*%
%LPD*%
M02*
