M48
; DRILL file KiCad 10.0.3 date 2026-07-16T15:21:02
; FORMAT={-:-/ absolute / metric / decimal}
; #@! TF.CreationDate,2026-07-16T15:21:02-05:00
; #@! TF.GenerationSoftware,Kicad,Pcbnew,10.0.3
; #@! TF.FileFunction,Plated,1,4,PTH
FMAT,2
METRIC
; #@! TA.AperFunction,Plated,PTH,ViaDrill
T1C0.300
%
G90
G05
T1
X101.8Y-101.8
X101.8Y-122.2
X102.2Y-110.1
X105.0Y-120.05
X105.3Y-110.9
X106.7Y-104.95
X106.75Y-118.5
X107.25Y-119.2
X108.75Y-118.5
X109.0Y-109.5
X110.25Y-119.2
X111.0Y-106.9
X111.25Y-115.3
X111.75Y-118.5
X112.5Y-106.3
X112.75Y-119.2
X114.0Y-106.9
X114.25Y-118.5
X117.25Y-119.2
X117.3Y-104.95
X119.0Y-120.05
X120.5Y-110.1
X122.2Y-101.8
X122.2Y-122.2
M30
