%TF.GenerationSoftware,KiCad,Pcbnew,10.0.3*%
%TF.CreationDate,2026-07-16T14:07:11-05:00*%
%TF.ProjectId,chronos_helios_adapter,6368726f-6e6f-4735-9f68-656c696f735f,1*%
%TF.SameCoordinates,Original*%
%TF.FileFunction,Drillmap*%
%TF.FilePolarity,Positive*%
%FSLAX45Y45*%
G04 Gerber Fmt 4.5, Leading zero omitted, Abs format (unit mm)*
G04 Created by KiCad (PCBNEW 10.0.3) date 2026-07-16 14:07:11*
%MOMM*%
%LPD*%
G01*
G04 APERTURE LIST*
%ADD10C,0.100000*%
%ADD11C,0.200000*%
%ADD12C,0.220000*%
G04 APERTURE END LIST*
D10*
X9800000Y-9800000D02*
X12600000Y-9800000D01*
X12600000Y-12300000D01*
X9800000Y-12300000D01*
X9800000Y-9800000D01*
D11*
D12*
X9920000Y-9920000D02*
X10140000Y-10140000D01*
X10140000Y-9920000D02*
X9920000Y-10140000D01*
X9920000Y-11960000D02*
X10140000Y-12180000D01*
X10140000Y-11960000D02*
X9920000Y-12180000D01*
X12260000Y-9920000D02*
X12480000Y-10140000D01*
X12480000Y-9920000D02*
X12260000Y-10140000D01*
X12260000Y-11960000D02*
X12480000Y-12180000D01*
X12480000Y-11960000D02*
X12260000Y-12180000D01*
D11*
X10055777Y-12616484D02*
X10055777Y-12416484D01*
X10055777Y-12416484D02*
X10103396Y-12416484D01*
X10103396Y-12416484D02*
X10131967Y-12426008D01*
X10131967Y-12426008D02*
X10151015Y-12445055D01*
X10151015Y-12445055D02*
X10160539Y-12464103D01*
X10160539Y-12464103D02*
X10170063Y-12502198D01*
X10170063Y-12502198D02*
X10170063Y-12530769D01*
X10170063Y-12530769D02*
X10160539Y-12568865D01*
X10160539Y-12568865D02*
X10151015Y-12587912D01*
X10151015Y-12587912D02*
X10131967Y-12606960D01*
X10131967Y-12606960D02*
X10103396Y-12616484D01*
X10103396Y-12616484D02*
X10055777Y-12616484D01*
X10255777Y-12616484D02*
X10255777Y-12483150D01*
X10255777Y-12521246D02*
X10265301Y-12502198D01*
X10265301Y-12502198D02*
X10274824Y-12492674D01*
X10274824Y-12492674D02*
X10293872Y-12483150D01*
X10293872Y-12483150D02*
X10312920Y-12483150D01*
X10379586Y-12616484D02*
X10379586Y-12483150D01*
X10379586Y-12416484D02*
X10370063Y-12426008D01*
X10370063Y-12426008D02*
X10379586Y-12435531D01*
X10379586Y-12435531D02*
X10389110Y-12426008D01*
X10389110Y-12426008D02*
X10379586Y-12416484D01*
X10379586Y-12416484D02*
X10379586Y-12435531D01*
X10503396Y-12616484D02*
X10484348Y-12606960D01*
X10484348Y-12606960D02*
X10474824Y-12587912D01*
X10474824Y-12587912D02*
X10474824Y-12416484D01*
X10608158Y-12616484D02*
X10589110Y-12606960D01*
X10589110Y-12606960D02*
X10579586Y-12587912D01*
X10579586Y-12587912D02*
X10579586Y-12416484D01*
X10836729Y-12616484D02*
X10836729Y-12416484D01*
X10836729Y-12416484D02*
X10903396Y-12559341D01*
X10903396Y-12559341D02*
X10970063Y-12416484D01*
X10970063Y-12416484D02*
X10970063Y-12616484D01*
X11151015Y-12616484D02*
X11151015Y-12511722D01*
X11151015Y-12511722D02*
X11141491Y-12492674D01*
X11141491Y-12492674D02*
X11122444Y-12483150D01*
X11122444Y-12483150D02*
X11084348Y-12483150D01*
X11084348Y-12483150D02*
X11065301Y-12492674D01*
X11151015Y-12606960D02*
X11131967Y-12616484D01*
X11131967Y-12616484D02*
X11084348Y-12616484D01*
X11084348Y-12616484D02*
X11065301Y-12606960D01*
X11065301Y-12606960D02*
X11055777Y-12587912D01*
X11055777Y-12587912D02*
X11055777Y-12568865D01*
X11055777Y-12568865D02*
X11065301Y-12549817D01*
X11065301Y-12549817D02*
X11084348Y-12540293D01*
X11084348Y-12540293D02*
X11131967Y-12540293D01*
X11131967Y-12540293D02*
X11151015Y-12530769D01*
X11246253Y-12483150D02*
X11246253Y-12683150D01*
X11246253Y-12492674D02*
X11265301Y-12483150D01*
X11265301Y-12483150D02*
X11303396Y-12483150D01*
X11303396Y-12483150D02*
X11322443Y-12492674D01*
X11322443Y-12492674D02*
X11331967Y-12502198D01*
X11331967Y-12502198D02*
X11341491Y-12521246D01*
X11341491Y-12521246D02*
X11341491Y-12578388D01*
X11341491Y-12578388D02*
X11331967Y-12597436D01*
X11331967Y-12597436D02*
X11322443Y-12606960D01*
X11322443Y-12606960D02*
X11303396Y-12616484D01*
X11303396Y-12616484D02*
X11265301Y-12616484D01*
X11265301Y-12616484D02*
X11246253Y-12606960D01*
X11427205Y-12597436D02*
X11436729Y-12606960D01*
X11436729Y-12606960D02*
X11427205Y-12616484D01*
X11427205Y-12616484D02*
X11417682Y-12606960D01*
X11417682Y-12606960D02*
X11427205Y-12597436D01*
X11427205Y-12597436D02*
X11427205Y-12616484D01*
X11427205Y-12492674D02*
X11436729Y-12502198D01*
X11436729Y-12502198D02*
X11427205Y-12511722D01*
X11427205Y-12511722D02*
X11417682Y-12502198D01*
X11417682Y-12502198D02*
X11427205Y-12492674D01*
X11427205Y-12492674D02*
X11427205Y-12511722D01*
X9595000Y-12845000D02*
X9795000Y-13045000D01*
X9795000Y-12845000D02*
X9595000Y-13045000D01*
X10046253Y-12855531D02*
X10055777Y-12846008D01*
X10055777Y-12846008D02*
X10074824Y-12836484D01*
X10074824Y-12836484D02*
X10122444Y-12836484D01*
X10122444Y-12836484D02*
X10141491Y-12846008D01*
X10141491Y-12846008D02*
X10151015Y-12855531D01*
X10151015Y-12855531D02*
X10160539Y-12874579D01*
X10160539Y-12874579D02*
X10160539Y-12893627D01*
X10160539Y-12893627D02*
X10151015Y-12922198D01*
X10151015Y-12922198D02*
X10036729Y-13036484D01*
X10036729Y-13036484D02*
X10160539Y-13036484D01*
X10246253Y-13017436D02*
X10255777Y-13026960D01*
X10255777Y-13026960D02*
X10246253Y-13036484D01*
X10246253Y-13036484D02*
X10236729Y-13026960D01*
X10236729Y-13026960D02*
X10246253Y-13017436D01*
X10246253Y-13017436D02*
X10246253Y-13036484D01*
X10331967Y-12855531D02*
X10341491Y-12846008D01*
X10341491Y-12846008D02*
X10360539Y-12836484D01*
X10360539Y-12836484D02*
X10408158Y-12836484D01*
X10408158Y-12836484D02*
X10427205Y-12846008D01*
X10427205Y-12846008D02*
X10436729Y-12855531D01*
X10436729Y-12855531D02*
X10446253Y-12874579D01*
X10446253Y-12874579D02*
X10446253Y-12893627D01*
X10446253Y-12893627D02*
X10436729Y-12922198D01*
X10436729Y-12922198D02*
X10322444Y-13036484D01*
X10322444Y-13036484D02*
X10446253Y-13036484D01*
X10570063Y-12836484D02*
X10589110Y-12836484D01*
X10589110Y-12836484D02*
X10608158Y-12846008D01*
X10608158Y-12846008D02*
X10617682Y-12855531D01*
X10617682Y-12855531D02*
X10627205Y-12874579D01*
X10627205Y-12874579D02*
X10636729Y-12912674D01*
X10636729Y-12912674D02*
X10636729Y-12960293D01*
X10636729Y-12960293D02*
X10627205Y-12998388D01*
X10627205Y-12998388D02*
X10617682Y-13017436D01*
X10617682Y-13017436D02*
X10608158Y-13026960D01*
X10608158Y-13026960D02*
X10589110Y-13036484D01*
X10589110Y-13036484D02*
X10570063Y-13036484D01*
X10570063Y-13036484D02*
X10551015Y-13026960D01*
X10551015Y-13026960D02*
X10541491Y-13017436D01*
X10541491Y-13017436D02*
X10531967Y-12998388D01*
X10531967Y-12998388D02*
X10522444Y-12960293D01*
X10522444Y-12960293D02*
X10522444Y-12912674D01*
X10522444Y-12912674D02*
X10531967Y-12874579D01*
X10531967Y-12874579D02*
X10541491Y-12855531D01*
X10541491Y-12855531D02*
X10551015Y-12846008D01*
X10551015Y-12846008D02*
X10570063Y-12836484D01*
X10760539Y-12836484D02*
X10779586Y-12836484D01*
X10779586Y-12836484D02*
X10798634Y-12846008D01*
X10798634Y-12846008D02*
X10808158Y-12855531D01*
X10808158Y-12855531D02*
X10817682Y-12874579D01*
X10817682Y-12874579D02*
X10827205Y-12912674D01*
X10827205Y-12912674D02*
X10827205Y-12960293D01*
X10827205Y-12960293D02*
X10817682Y-12998388D01*
X10817682Y-12998388D02*
X10808158Y-13017436D01*
X10808158Y-13017436D02*
X10798634Y-13026960D01*
X10798634Y-13026960D02*
X10779586Y-13036484D01*
X10779586Y-13036484D02*
X10760539Y-13036484D01*
X10760539Y-13036484D02*
X10741491Y-13026960D01*
X10741491Y-13026960D02*
X10731967Y-13017436D01*
X10731967Y-13017436D02*
X10722444Y-12998388D01*
X10722444Y-12998388D02*
X10712920Y-12960293D01*
X10712920Y-12960293D02*
X10712920Y-12912674D01*
X10712920Y-12912674D02*
X10722444Y-12874579D01*
X10722444Y-12874579D02*
X10731967Y-12855531D01*
X10731967Y-12855531D02*
X10741491Y-12846008D01*
X10741491Y-12846008D02*
X10760539Y-12836484D01*
X10912920Y-13036484D02*
X10912920Y-12903150D01*
X10912920Y-12922198D02*
X10922444Y-12912674D01*
X10922444Y-12912674D02*
X10941491Y-12903150D01*
X10941491Y-12903150D02*
X10970063Y-12903150D01*
X10970063Y-12903150D02*
X10989110Y-12912674D01*
X10989110Y-12912674D02*
X10998634Y-12931722D01*
X10998634Y-12931722D02*
X10998634Y-13036484D01*
X10998634Y-12931722D02*
X11008158Y-12912674D01*
X11008158Y-12912674D02*
X11027205Y-12903150D01*
X11027205Y-12903150D02*
X11055777Y-12903150D01*
X11055777Y-12903150D02*
X11074825Y-12912674D01*
X11074825Y-12912674D02*
X11084348Y-12931722D01*
X11084348Y-12931722D02*
X11084348Y-13036484D01*
X11179586Y-13036484D02*
X11179586Y-12903150D01*
X11179586Y-12922198D02*
X11189110Y-12912674D01*
X11189110Y-12912674D02*
X11208158Y-12903150D01*
X11208158Y-12903150D02*
X11236729Y-12903150D01*
X11236729Y-12903150D02*
X11255777Y-12912674D01*
X11255777Y-12912674D02*
X11265301Y-12931722D01*
X11265301Y-12931722D02*
X11265301Y-13036484D01*
X11265301Y-12931722D02*
X11274824Y-12912674D01*
X11274824Y-12912674D02*
X11293872Y-12903150D01*
X11293872Y-12903150D02*
X11322443Y-12903150D01*
X11322443Y-12903150D02*
X11341491Y-12912674D01*
X11341491Y-12912674D02*
X11351015Y-12931722D01*
X11351015Y-12931722D02*
X11351015Y-13036484D01*
X11741491Y-12826960D02*
X11570063Y-13084103D01*
X11998634Y-12836484D02*
X12017682Y-12836484D01*
X12017682Y-12836484D02*
X12036729Y-12846008D01*
X12036729Y-12846008D02*
X12046253Y-12855531D01*
X12046253Y-12855531D02*
X12055777Y-12874579D01*
X12055777Y-12874579D02*
X12065301Y-12912674D01*
X12065301Y-12912674D02*
X12065301Y-12960293D01*
X12065301Y-12960293D02*
X12055777Y-12998388D01*
X12055777Y-12998388D02*
X12046253Y-13017436D01*
X12046253Y-13017436D02*
X12036729Y-13026960D01*
X12036729Y-13026960D02*
X12017682Y-13036484D01*
X12017682Y-13036484D02*
X11998634Y-13036484D01*
X11998634Y-13036484D02*
X11979586Y-13026960D01*
X11979586Y-13026960D02*
X11970063Y-13017436D01*
X11970063Y-13017436D02*
X11960539Y-12998388D01*
X11960539Y-12998388D02*
X11951015Y-12960293D01*
X11951015Y-12960293D02*
X11951015Y-12912674D01*
X11951015Y-12912674D02*
X11960539Y-12874579D01*
X11960539Y-12874579D02*
X11970063Y-12855531D01*
X11970063Y-12855531D02*
X11979586Y-12846008D01*
X11979586Y-12846008D02*
X11998634Y-12836484D01*
X12151015Y-13017436D02*
X12160539Y-13026960D01*
X12160539Y-13026960D02*
X12151015Y-13036484D01*
X12151015Y-13036484D02*
X12141491Y-13026960D01*
X12141491Y-13026960D02*
X12151015Y-13017436D01*
X12151015Y-13017436D02*
X12151015Y-13036484D01*
X12284348Y-12836484D02*
X12303396Y-12836484D01*
X12303396Y-12836484D02*
X12322444Y-12846008D01*
X12322444Y-12846008D02*
X12331967Y-12855531D01*
X12331967Y-12855531D02*
X12341491Y-12874579D01*
X12341491Y-12874579D02*
X12351015Y-12912674D01*
X12351015Y-12912674D02*
X12351015Y-12960293D01*
X12351015Y-12960293D02*
X12341491Y-12998388D01*
X12341491Y-12998388D02*
X12331967Y-13017436D01*
X12331967Y-13017436D02*
X12322444Y-13026960D01*
X12322444Y-13026960D02*
X12303396Y-13036484D01*
X12303396Y-13036484D02*
X12284348Y-13036484D01*
X12284348Y-13036484D02*
X12265301Y-13026960D01*
X12265301Y-13026960D02*
X12255777Y-13017436D01*
X12255777Y-13017436D02*
X12246253Y-12998388D01*
X12246253Y-12998388D02*
X12236729Y-12960293D01*
X12236729Y-12960293D02*
X12236729Y-12912674D01*
X12236729Y-12912674D02*
X12246253Y-12874579D01*
X12246253Y-12874579D02*
X12255777Y-12855531D01*
X12255777Y-12855531D02*
X12265301Y-12846008D01*
X12265301Y-12846008D02*
X12284348Y-12836484D01*
X12465301Y-12922198D02*
X12446253Y-12912674D01*
X12446253Y-12912674D02*
X12436729Y-12903150D01*
X12436729Y-12903150D02*
X12427206Y-12884103D01*
X12427206Y-12884103D02*
X12427206Y-12874579D01*
X12427206Y-12874579D02*
X12436729Y-12855531D01*
X12436729Y-12855531D02*
X12446253Y-12846008D01*
X12446253Y-12846008D02*
X12465301Y-12836484D01*
X12465301Y-12836484D02*
X12503396Y-12836484D01*
X12503396Y-12836484D02*
X12522444Y-12846008D01*
X12522444Y-12846008D02*
X12531967Y-12855531D01*
X12531967Y-12855531D02*
X12541491Y-12874579D01*
X12541491Y-12874579D02*
X12541491Y-12884103D01*
X12541491Y-12884103D02*
X12531967Y-12903150D01*
X12531967Y-12903150D02*
X12522444Y-12912674D01*
X12522444Y-12912674D02*
X12503396Y-12922198D01*
X12503396Y-12922198D02*
X12465301Y-12922198D01*
X12465301Y-12922198D02*
X12446253Y-12931722D01*
X12446253Y-12931722D02*
X12436729Y-12941246D01*
X12436729Y-12941246D02*
X12427206Y-12960293D01*
X12427206Y-12960293D02*
X12427206Y-12998388D01*
X12427206Y-12998388D02*
X12436729Y-13017436D01*
X12436729Y-13017436D02*
X12446253Y-13026960D01*
X12446253Y-13026960D02*
X12465301Y-13036484D01*
X12465301Y-13036484D02*
X12503396Y-13036484D01*
X12503396Y-13036484D02*
X12522444Y-13026960D01*
X12522444Y-13026960D02*
X12531967Y-13017436D01*
X12531967Y-13017436D02*
X12541491Y-12998388D01*
X12541491Y-12998388D02*
X12541491Y-12960293D01*
X12541491Y-12960293D02*
X12531967Y-12941246D01*
X12531967Y-12941246D02*
X12522444Y-12931722D01*
X12522444Y-12931722D02*
X12503396Y-12922198D01*
X12712920Y-12836484D02*
X12674825Y-12836484D01*
X12674825Y-12836484D02*
X12655777Y-12846008D01*
X12655777Y-12846008D02*
X12646253Y-12855531D01*
X12646253Y-12855531D02*
X12627206Y-12884103D01*
X12627206Y-12884103D02*
X12617682Y-12922198D01*
X12617682Y-12922198D02*
X12617682Y-12998388D01*
X12617682Y-12998388D02*
X12627206Y-13017436D01*
X12627206Y-13017436D02*
X12636729Y-13026960D01*
X12636729Y-13026960D02*
X12655777Y-13036484D01*
X12655777Y-13036484D02*
X12693872Y-13036484D01*
X12693872Y-13036484D02*
X12712920Y-13026960D01*
X12712920Y-13026960D02*
X12722444Y-13017436D01*
X12722444Y-13017436D02*
X12731967Y-12998388D01*
X12731967Y-12998388D02*
X12731967Y-12950769D01*
X12731967Y-12950769D02*
X12722444Y-12931722D01*
X12722444Y-12931722D02*
X12712920Y-12922198D01*
X12712920Y-12922198D02*
X12693872Y-12912674D01*
X12693872Y-12912674D02*
X12655777Y-12912674D01*
X12655777Y-12912674D02*
X12636729Y-12922198D01*
X12636729Y-12922198D02*
X12627206Y-12931722D01*
X12627206Y-12931722D02*
X12617682Y-12950769D01*
X12903396Y-12836484D02*
X12865301Y-12836484D01*
X12865301Y-12836484D02*
X12846253Y-12846008D01*
X12846253Y-12846008D02*
X12836729Y-12855531D01*
X12836729Y-12855531D02*
X12817682Y-12884103D01*
X12817682Y-12884103D02*
X12808158Y-12922198D01*
X12808158Y-12922198D02*
X12808158Y-12998388D01*
X12808158Y-12998388D02*
X12817682Y-13017436D01*
X12817682Y-13017436D02*
X12827206Y-13026960D01*
X12827206Y-13026960D02*
X12846253Y-13036484D01*
X12846253Y-13036484D02*
X12884348Y-13036484D01*
X12884348Y-13036484D02*
X12903396Y-13026960D01*
X12903396Y-13026960D02*
X12912920Y-13017436D01*
X12912920Y-13017436D02*
X12922444Y-12998388D01*
X12922444Y-12998388D02*
X12922444Y-12950769D01*
X12922444Y-12950769D02*
X12912920Y-12931722D01*
X12912920Y-12931722D02*
X12903396Y-12922198D01*
X12903396Y-12922198D02*
X12884348Y-12912674D01*
X12884348Y-12912674D02*
X12846253Y-12912674D01*
X12846253Y-12912674D02*
X12827206Y-12922198D01*
X12827206Y-12922198D02*
X12817682Y-12931722D01*
X12817682Y-12931722D02*
X12808158Y-12950769D01*
X12998634Y-12836484D02*
X12998634Y-12874579D01*
X13074825Y-12836484D02*
X13074825Y-12874579D01*
X13370063Y-13112674D02*
X13360539Y-13103150D01*
X13360539Y-13103150D02*
X13341491Y-13074579D01*
X13341491Y-13074579D02*
X13331968Y-13055531D01*
X13331968Y-13055531D02*
X13322444Y-13026960D01*
X13322444Y-13026960D02*
X13312920Y-12979341D01*
X13312920Y-12979341D02*
X13312920Y-12941246D01*
X13312920Y-12941246D02*
X13322444Y-12893627D01*
X13322444Y-12893627D02*
X13331968Y-12865055D01*
X13331968Y-12865055D02*
X13341491Y-12846008D01*
X13341491Y-12846008D02*
X13360539Y-12817436D01*
X13360539Y-12817436D02*
X13370063Y-12807912D01*
X13531968Y-12903150D02*
X13531968Y-13036484D01*
X13484348Y-12826960D02*
X13436729Y-12969817D01*
X13436729Y-12969817D02*
X13560539Y-12969817D01*
X13789110Y-13036484D02*
X13789110Y-12836484D01*
X13874825Y-13036484D02*
X13874825Y-12931722D01*
X13874825Y-12931722D02*
X13865301Y-12912674D01*
X13865301Y-12912674D02*
X13846253Y-12903150D01*
X13846253Y-12903150D02*
X13817682Y-12903150D01*
X13817682Y-12903150D02*
X13798634Y-12912674D01*
X13798634Y-12912674D02*
X13789110Y-12922198D01*
X13998634Y-13036484D02*
X13979587Y-13026960D01*
X13979587Y-13026960D02*
X13970063Y-13017436D01*
X13970063Y-13017436D02*
X13960539Y-12998388D01*
X13960539Y-12998388D02*
X13960539Y-12941246D01*
X13960539Y-12941246D02*
X13970063Y-12922198D01*
X13970063Y-12922198D02*
X13979587Y-12912674D01*
X13979587Y-12912674D02*
X13998634Y-12903150D01*
X13998634Y-12903150D02*
X14027206Y-12903150D01*
X14027206Y-12903150D02*
X14046253Y-12912674D01*
X14046253Y-12912674D02*
X14055777Y-12922198D01*
X14055777Y-12922198D02*
X14065301Y-12941246D01*
X14065301Y-12941246D02*
X14065301Y-12998388D01*
X14065301Y-12998388D02*
X14055777Y-13017436D01*
X14055777Y-13017436D02*
X14046253Y-13026960D01*
X14046253Y-13026960D02*
X14027206Y-13036484D01*
X14027206Y-13036484D02*
X13998634Y-13036484D01*
X14179587Y-13036484D02*
X14160539Y-13026960D01*
X14160539Y-13026960D02*
X14151015Y-13007912D01*
X14151015Y-13007912D02*
X14151015Y-12836484D01*
X14331968Y-13026960D02*
X14312920Y-13036484D01*
X14312920Y-13036484D02*
X14274825Y-13036484D01*
X14274825Y-13036484D02*
X14255777Y-13026960D01*
X14255777Y-13026960D02*
X14246253Y-13007912D01*
X14246253Y-13007912D02*
X14246253Y-12931722D01*
X14246253Y-12931722D02*
X14255777Y-12912674D01*
X14255777Y-12912674D02*
X14274825Y-12903150D01*
X14274825Y-12903150D02*
X14312920Y-12903150D01*
X14312920Y-12903150D02*
X14331968Y-12912674D01*
X14331968Y-12912674D02*
X14341491Y-12931722D01*
X14341491Y-12931722D02*
X14341491Y-12950769D01*
X14341491Y-12950769D02*
X14246253Y-12969817D01*
X14417682Y-13026960D02*
X14436730Y-13036484D01*
X14436730Y-13036484D02*
X14474825Y-13036484D01*
X14474825Y-13036484D02*
X14493872Y-13026960D01*
X14493872Y-13026960D02*
X14503396Y-13007912D01*
X14503396Y-13007912D02*
X14503396Y-12998388D01*
X14503396Y-12998388D02*
X14493872Y-12979341D01*
X14493872Y-12979341D02*
X14474825Y-12969817D01*
X14474825Y-12969817D02*
X14446253Y-12969817D01*
X14446253Y-12969817D02*
X14427206Y-12960293D01*
X14427206Y-12960293D02*
X14417682Y-12941246D01*
X14417682Y-12941246D02*
X14417682Y-12931722D01*
X14417682Y-12931722D02*
X14427206Y-12912674D01*
X14427206Y-12912674D02*
X14446253Y-12903150D01*
X14446253Y-12903150D02*
X14474825Y-12903150D01*
X14474825Y-12903150D02*
X14493872Y-12912674D01*
X14570063Y-13112674D02*
X14579587Y-13103150D01*
X14579587Y-13103150D02*
X14598634Y-13074579D01*
X14598634Y-13074579D02*
X14608158Y-13055531D01*
X14608158Y-13055531D02*
X14617682Y-13026960D01*
X14617682Y-13026960D02*
X14627206Y-12979341D01*
X14627206Y-12979341D02*
X14627206Y-12941246D01*
X14627206Y-12941246D02*
X14617682Y-12893627D01*
X14617682Y-12893627D02*
X14608158Y-12865055D01*
X14608158Y-12865055D02*
X14598634Y-12846008D01*
X14598634Y-12846008D02*
X14579587Y-12817436D01*
X14579587Y-12817436D02*
X14570063Y-12807912D01*
X14931968Y-13112674D02*
X14922444Y-13103150D01*
X14922444Y-13103150D02*
X14903396Y-13074579D01*
X14903396Y-13074579D02*
X14893872Y-13055531D01*
X14893872Y-13055531D02*
X14884349Y-13026960D01*
X14884349Y-13026960D02*
X14874825Y-12979341D01*
X14874825Y-12979341D02*
X14874825Y-12941246D01*
X14874825Y-12941246D02*
X14884349Y-12893627D01*
X14884349Y-12893627D02*
X14893872Y-12865055D01*
X14893872Y-12865055D02*
X14903396Y-12846008D01*
X14903396Y-12846008D02*
X14922444Y-12817436D01*
X14922444Y-12817436D02*
X14931968Y-12807912D01*
X15008158Y-12903150D02*
X15008158Y-13036484D01*
X15008158Y-12922198D02*
X15017682Y-12912674D01*
X15017682Y-12912674D02*
X15036730Y-12903150D01*
X15036730Y-12903150D02*
X15065301Y-12903150D01*
X15065301Y-12903150D02*
X15084349Y-12912674D01*
X15084349Y-12912674D02*
X15093872Y-12931722D01*
X15093872Y-12931722D02*
X15093872Y-13036484D01*
X15217682Y-13036484D02*
X15198634Y-13026960D01*
X15198634Y-13026960D02*
X15189111Y-13017436D01*
X15189111Y-13017436D02*
X15179587Y-12998388D01*
X15179587Y-12998388D02*
X15179587Y-12941246D01*
X15179587Y-12941246D02*
X15189111Y-12922198D01*
X15189111Y-12922198D02*
X15198634Y-12912674D01*
X15198634Y-12912674D02*
X15217682Y-12903150D01*
X15217682Y-12903150D02*
X15246253Y-12903150D01*
X15246253Y-12903150D02*
X15265301Y-12912674D01*
X15265301Y-12912674D02*
X15274825Y-12922198D01*
X15274825Y-12922198D02*
X15284349Y-12941246D01*
X15284349Y-12941246D02*
X15284349Y-12998388D01*
X15284349Y-12998388D02*
X15274825Y-13017436D01*
X15274825Y-13017436D02*
X15265301Y-13026960D01*
X15265301Y-13026960D02*
X15246253Y-13036484D01*
X15246253Y-13036484D02*
X15217682Y-13036484D01*
X15341492Y-12903150D02*
X15417682Y-12903150D01*
X15370063Y-12836484D02*
X15370063Y-13007912D01*
X15370063Y-13007912D02*
X15379587Y-13026960D01*
X15379587Y-13026960D02*
X15398634Y-13036484D01*
X15398634Y-13036484D02*
X15417682Y-13036484D01*
X15636730Y-12903150D02*
X15636730Y-13103150D01*
X15636730Y-12912674D02*
X15655777Y-12903150D01*
X15655777Y-12903150D02*
X15693873Y-12903150D01*
X15693873Y-12903150D02*
X15712920Y-12912674D01*
X15712920Y-12912674D02*
X15722444Y-12922198D01*
X15722444Y-12922198D02*
X15731968Y-12941246D01*
X15731968Y-12941246D02*
X15731968Y-12998388D01*
X15731968Y-12998388D02*
X15722444Y-13017436D01*
X15722444Y-13017436D02*
X15712920Y-13026960D01*
X15712920Y-13026960D02*
X15693873Y-13036484D01*
X15693873Y-13036484D02*
X15655777Y-13036484D01*
X15655777Y-13036484D02*
X15636730Y-13026960D01*
X15846253Y-13036484D02*
X15827206Y-13026960D01*
X15827206Y-13026960D02*
X15817682Y-13007912D01*
X15817682Y-13007912D02*
X15817682Y-12836484D01*
X16008158Y-13036484D02*
X16008158Y-12931722D01*
X16008158Y-12931722D02*
X15998634Y-12912674D01*
X15998634Y-12912674D02*
X15979587Y-12903150D01*
X15979587Y-12903150D02*
X15941492Y-12903150D01*
X15941492Y-12903150D02*
X15922444Y-12912674D01*
X16008158Y-13026960D02*
X15989111Y-13036484D01*
X15989111Y-13036484D02*
X15941492Y-13036484D01*
X15941492Y-13036484D02*
X15922444Y-13026960D01*
X15922444Y-13026960D02*
X15912920Y-13007912D01*
X15912920Y-13007912D02*
X15912920Y-12988865D01*
X15912920Y-12988865D02*
X15922444Y-12969817D01*
X15922444Y-12969817D02*
X15941492Y-12960293D01*
X15941492Y-12960293D02*
X15989111Y-12960293D01*
X15989111Y-12960293D02*
X16008158Y-12950769D01*
X16074825Y-12903150D02*
X16151015Y-12903150D01*
X16103396Y-12836484D02*
X16103396Y-13007912D01*
X16103396Y-13007912D02*
X16112920Y-13026960D01*
X16112920Y-13026960D02*
X16131968Y-13036484D01*
X16131968Y-13036484D02*
X16151015Y-13036484D01*
X16293873Y-13026960D02*
X16274825Y-13036484D01*
X16274825Y-13036484D02*
X16236730Y-13036484D01*
X16236730Y-13036484D02*
X16217682Y-13026960D01*
X16217682Y-13026960D02*
X16208158Y-13007912D01*
X16208158Y-13007912D02*
X16208158Y-12931722D01*
X16208158Y-12931722D02*
X16217682Y-12912674D01*
X16217682Y-12912674D02*
X16236730Y-12903150D01*
X16236730Y-12903150D02*
X16274825Y-12903150D01*
X16274825Y-12903150D02*
X16293873Y-12912674D01*
X16293873Y-12912674D02*
X16303396Y-12931722D01*
X16303396Y-12931722D02*
X16303396Y-12950769D01*
X16303396Y-12950769D02*
X16208158Y-12969817D01*
X16474825Y-13036484D02*
X16474825Y-12836484D01*
X16474825Y-13026960D02*
X16455777Y-13036484D01*
X16455777Y-13036484D02*
X16417682Y-13036484D01*
X16417682Y-13036484D02*
X16398634Y-13026960D01*
X16398634Y-13026960D02*
X16389111Y-13017436D01*
X16389111Y-13017436D02*
X16379587Y-12998388D01*
X16379587Y-12998388D02*
X16379587Y-12941246D01*
X16379587Y-12941246D02*
X16389111Y-12922198D01*
X16389111Y-12922198D02*
X16398634Y-12912674D01*
X16398634Y-12912674D02*
X16417682Y-12903150D01*
X16417682Y-12903150D02*
X16455777Y-12903150D01*
X16455777Y-12903150D02*
X16474825Y-12912674D01*
X16551015Y-13112674D02*
X16560539Y-13103150D01*
X16560539Y-13103150D02*
X16579587Y-13074579D01*
X16579587Y-13074579D02*
X16589111Y-13055531D01*
X16589111Y-13055531D02*
X16598634Y-13026960D01*
X16598634Y-13026960D02*
X16608158Y-12979341D01*
X16608158Y-12979341D02*
X16608158Y-12941246D01*
X16608158Y-12941246D02*
X16598634Y-12893627D01*
X16598634Y-12893627D02*
X16589111Y-12865055D01*
X16589111Y-12865055D02*
X16579587Y-12846008D01*
X16579587Y-12846008D02*
X16560539Y-12817436D01*
X16560539Y-12817436D02*
X16551015Y-12807912D01*
M02*
