M48
; DRILL file KiCad 10.0.3 date 2026-07-16T14:58:08
; FORMAT={-:-/ absolute / metric / decimal}
; #@! TF.CreationDate,2026-07-16T14:58:08-05:00
; #@! TF.GenerationSoftware,Kicad,Pcbnew,10.0.3
; #@! TF.FileFunction,Plated,1,4,PTH
FMAT,2
METRIC
; #@! TA.AperFunction,Plated,PTH,ViaDrill
T1C0.300
%
G90
G05
T1
X101.8Y-101.8
X101.8Y-122.2
X102.2Y-110.1
X103.5Y-108.0
X105.0Y-120.05
X105.3Y-110.9
X106.7Y-104.95
X106.75Y-118.5
X107.25Y-119.2
X108.75Y-118.5
X109.0Y-114.0
X109.8Y-113.4
X110.0Y-106.9
X110.25Y-119.2
X110.45Y-116.0
X110.5Y-112.6
X111.25Y-115.75
X111.3Y-112.0
X111.5Y-106.3
X111.7Y-111.2
X111.75Y-118.5
X112.5Y-110.6
X112.75Y-119.2
X113.0Y-106.9
X113.25Y-110.6
X114.05Y-111.2
X114.2Y-109.05
X114.25Y-118.5
X114.75Y-112.0
X115.0Y-109.35
X115.55Y-112.6
X116.25Y-113.4
X117.05Y-114.0
X117.25Y-119.2
X117.3Y-104.95
X118.3Y-108.0
X119.0Y-120.05
X120.5Y-110.1
X122.2Y-101.8
X122.2Y-122.2
M30
