%TF.GenerationSoftware,KiCad,Pcbnew,10.0.3*%
%TF.CreationDate,2026-07-16T14:07:11-05:00*%
%TF.ProjectId,chronos_helios_adapter,6368726f-6e6f-4735-9f68-656c696f735f,1*%
%TF.SameCoordinates,Original*%
%TF.FileFunction,Drillmap*%
%TF.FilePolarity,Positive*%
%FSLAX45Y45*%
G04 Gerber Fmt 4.5, Leading zero omitted, Abs format (unit mm)*
G04 Created by KiCad (PCBNEW 10.0.3) date 2026-07-16 14:07:11*
%MOMM*%
%LPD*%
G01*
G04 APERTURE LIST*
%ADD10C,0.100000*%
%ADD11C,0.200000*%
G04 APERTURE END LIST*
D10*
X9800000Y-9800000D02*
X12600000Y-9800000D01*
X12600000Y-12300000D01*
X9800000Y-12300000D01*
X9800000Y-9800000D01*
D11*
D10*
X10205000Y-10995000D02*
X10235000Y-11025000D01*
X10235000Y-10995000D02*
X10205000Y-11025000D01*
X10515000Y-11075000D02*
X10545000Y-11105000D01*
X10545000Y-11075000D02*
X10515000Y-11105000D01*
X10660000Y-11425000D02*
X10690000Y-11455000D01*
X10690000Y-11425000D02*
X10660000Y-11455000D01*
X10710000Y-11005000D02*
X10740000Y-11035000D01*
X10740000Y-11005000D02*
X10710000Y-11035000D01*
X10710000Y-11515000D02*
X10740000Y-11545000D01*
X10740000Y-11515000D02*
X10710000Y-11545000D01*
X10810000Y-10645000D02*
X10840000Y-10675000D01*
X10840000Y-10645000D02*
X10810000Y-10675000D01*
X10860000Y-11425000D02*
X10890000Y-11455000D01*
X10890000Y-11425000D02*
X10860000Y-11455000D01*
X10960000Y-10645000D02*
X10990000Y-10675000D01*
X10990000Y-10645000D02*
X10960000Y-10675000D01*
X11010000Y-11425000D02*
X11040000Y-11455000D01*
X11040000Y-11425000D02*
X11010000Y-11455000D01*
X11110000Y-10645000D02*
X11140000Y-10675000D01*
X11140000Y-10645000D02*
X11110000Y-10675000D01*
X11110000Y-11125000D02*
X11140000Y-11155000D01*
X11140000Y-11125000D02*
X11110000Y-11155000D01*
X11160000Y-11425000D02*
X11190000Y-11455000D01*
X11190000Y-11425000D02*
X11160000Y-11455000D01*
X11260000Y-10645000D02*
X11290000Y-10675000D01*
X11290000Y-10645000D02*
X11260000Y-10675000D01*
X11260000Y-11515000D02*
X11290000Y-11545000D01*
X11290000Y-11515000D02*
X11260000Y-11545000D01*
X11410000Y-10645000D02*
X11440000Y-10675000D01*
X11440000Y-10645000D02*
X11410000Y-10675000D01*
X11410000Y-11425000D02*
X11440000Y-11455000D01*
X11440000Y-11425000D02*
X11410000Y-11455000D01*
X11560000Y-10645000D02*
X11590000Y-10675000D01*
X11590000Y-10645000D02*
X11560000Y-10675000D01*
X11710000Y-11425000D02*
X11740000Y-11455000D01*
X11740000Y-11425000D02*
X11710000Y-11455000D01*
X11935000Y-10995000D02*
X11965000Y-11025000D01*
X11965000Y-10995000D02*
X11935000Y-11025000D01*
D11*
X10055777Y-12616484D02*
X10055777Y-12416484D01*
X10055777Y-12416484D02*
X10103396Y-12416484D01*
X10103396Y-12416484D02*
X10131967Y-12426008D01*
X10131967Y-12426008D02*
X10151015Y-12445055D01*
X10151015Y-12445055D02*
X10160539Y-12464103D01*
X10160539Y-12464103D02*
X10170063Y-12502198D01*
X10170063Y-12502198D02*
X10170063Y-12530769D01*
X10170063Y-12530769D02*
X10160539Y-12568865D01*
X10160539Y-12568865D02*
X10151015Y-12587912D01*
X10151015Y-12587912D02*
X10131967Y-12606960D01*
X10131967Y-12606960D02*
X10103396Y-12616484D01*
X10103396Y-12616484D02*
X10055777Y-12616484D01*
X10255777Y-12616484D02*
X10255777Y-12483150D01*
X10255777Y-12521246D02*
X10265301Y-12502198D01*
X10265301Y-12502198D02*
X10274824Y-12492674D01*
X10274824Y-12492674D02*
X10293872Y-12483150D01*
X10293872Y-12483150D02*
X10312920Y-12483150D01*
X10379586Y-12616484D02*
X10379586Y-12483150D01*
X10379586Y-12416484D02*
X10370063Y-12426008D01*
X10370063Y-12426008D02*
X10379586Y-12435531D01*
X10379586Y-12435531D02*
X10389110Y-12426008D01*
X10389110Y-12426008D02*
X10379586Y-12416484D01*
X10379586Y-12416484D02*
X10379586Y-12435531D01*
X10503396Y-12616484D02*
X10484348Y-12606960D01*
X10484348Y-12606960D02*
X10474824Y-12587912D01*
X10474824Y-12587912D02*
X10474824Y-12416484D01*
X10608158Y-12616484D02*
X10589110Y-12606960D01*
X10589110Y-12606960D02*
X10579586Y-12587912D01*
X10579586Y-12587912D02*
X10579586Y-12416484D01*
X10836729Y-12616484D02*
X10836729Y-12416484D01*
X10836729Y-12416484D02*
X10903396Y-12559341D01*
X10903396Y-12559341D02*
X10970063Y-12416484D01*
X10970063Y-12416484D02*
X10970063Y-12616484D01*
X11151015Y-12616484D02*
X11151015Y-12511722D01*
X11151015Y-12511722D02*
X11141491Y-12492674D01*
X11141491Y-12492674D02*
X11122444Y-12483150D01*
X11122444Y-12483150D02*
X11084348Y-12483150D01*
X11084348Y-12483150D02*
X11065301Y-12492674D01*
X11151015Y-12606960D02*
X11131967Y-12616484D01*
X11131967Y-12616484D02*
X11084348Y-12616484D01*
X11084348Y-12616484D02*
X11065301Y-12606960D01*
X11065301Y-12606960D02*
X11055777Y-12587912D01*
X11055777Y-12587912D02*
X11055777Y-12568865D01*
X11055777Y-12568865D02*
X11065301Y-12549817D01*
X11065301Y-12549817D02*
X11084348Y-12540293D01*
X11084348Y-12540293D02*
X11131967Y-12540293D01*
X11131967Y-12540293D02*
X11151015Y-12530769D01*
X11246253Y-12483150D02*
X11246253Y-12683150D01*
X11246253Y-12492674D02*
X11265301Y-12483150D01*
X11265301Y-12483150D02*
X11303396Y-12483150D01*
X11303396Y-12483150D02*
X11322443Y-12492674D01*
X11322443Y-12492674D02*
X11331967Y-12502198D01*
X11331967Y-12502198D02*
X11341491Y-12521246D01*
X11341491Y-12521246D02*
X11341491Y-12578388D01*
X11341491Y-12578388D02*
X11331967Y-12597436D01*
X11331967Y-12597436D02*
X11322443Y-12606960D01*
X11322443Y-12606960D02*
X11303396Y-12616484D01*
X11303396Y-12616484D02*
X11265301Y-12616484D01*
X11265301Y-12616484D02*
X11246253Y-12606960D01*
X11427205Y-12597436D02*
X11436729Y-12606960D01*
X11436729Y-12606960D02*
X11427205Y-12616484D01*
X11427205Y-12616484D02*
X11417682Y-12606960D01*
X11417682Y-12606960D02*
X11427205Y-12597436D01*
X11427205Y-12597436D02*
X11427205Y-12616484D01*
X11427205Y-12492674D02*
X11436729Y-12502198D01*
X11436729Y-12502198D02*
X11427205Y-12511722D01*
X11427205Y-12511722D02*
X11417682Y-12502198D01*
X11417682Y-12502198D02*
X11427205Y-12492674D01*
X11427205Y-12492674D02*
X11427205Y-12511722D01*
D10*
X9765000Y-12930000D02*
X9795000Y-12960000D01*
X9795000Y-12930000D02*
X9765000Y-12960000D01*
D11*
X10093872Y-12836484D02*
X10112920Y-12836484D01*
X10112920Y-12836484D02*
X10131967Y-12846008D01*
X10131967Y-12846008D02*
X10141491Y-12855531D01*
X10141491Y-12855531D02*
X10151015Y-12874579D01*
X10151015Y-12874579D02*
X10160539Y-12912674D01*
X10160539Y-12912674D02*
X10160539Y-12960293D01*
X10160539Y-12960293D02*
X10151015Y-12998388D01*
X10151015Y-12998388D02*
X10141491Y-13017436D01*
X10141491Y-13017436D02*
X10131967Y-13026960D01*
X10131967Y-13026960D02*
X10112920Y-13036484D01*
X10112920Y-13036484D02*
X10093872Y-13036484D01*
X10093872Y-13036484D02*
X10074824Y-13026960D01*
X10074824Y-13026960D02*
X10065301Y-13017436D01*
X10065301Y-13017436D02*
X10055777Y-12998388D01*
X10055777Y-12998388D02*
X10046253Y-12960293D01*
X10046253Y-12960293D02*
X10046253Y-12912674D01*
X10046253Y-12912674D02*
X10055777Y-12874579D01*
X10055777Y-12874579D02*
X10065301Y-12855531D01*
X10065301Y-12855531D02*
X10074824Y-12846008D01*
X10074824Y-12846008D02*
X10093872Y-12836484D01*
X10246253Y-13017436D02*
X10255777Y-13026960D01*
X10255777Y-13026960D02*
X10246253Y-13036484D01*
X10246253Y-13036484D02*
X10236729Y-13026960D01*
X10236729Y-13026960D02*
X10246253Y-13017436D01*
X10246253Y-13017436D02*
X10246253Y-13036484D01*
X10322444Y-12836484D02*
X10446253Y-12836484D01*
X10446253Y-12836484D02*
X10379586Y-12912674D01*
X10379586Y-12912674D02*
X10408158Y-12912674D01*
X10408158Y-12912674D02*
X10427205Y-12922198D01*
X10427205Y-12922198D02*
X10436729Y-12931722D01*
X10436729Y-12931722D02*
X10446253Y-12950769D01*
X10446253Y-12950769D02*
X10446253Y-12998388D01*
X10446253Y-12998388D02*
X10436729Y-13017436D01*
X10436729Y-13017436D02*
X10427205Y-13026960D01*
X10427205Y-13026960D02*
X10408158Y-13036484D01*
X10408158Y-13036484D02*
X10351015Y-13036484D01*
X10351015Y-13036484D02*
X10331967Y-13026960D01*
X10331967Y-13026960D02*
X10322444Y-13017436D01*
X10570063Y-12836484D02*
X10589110Y-12836484D01*
X10589110Y-12836484D02*
X10608158Y-12846008D01*
X10608158Y-12846008D02*
X10617682Y-12855531D01*
X10617682Y-12855531D02*
X10627205Y-12874579D01*
X10627205Y-12874579D02*
X10636729Y-12912674D01*
X10636729Y-12912674D02*
X10636729Y-12960293D01*
X10636729Y-12960293D02*
X10627205Y-12998388D01*
X10627205Y-12998388D02*
X10617682Y-13017436D01*
X10617682Y-13017436D02*
X10608158Y-13026960D01*
X10608158Y-13026960D02*
X10589110Y-13036484D01*
X10589110Y-13036484D02*
X10570063Y-13036484D01*
X10570063Y-13036484D02*
X10551015Y-13026960D01*
X10551015Y-13026960D02*
X10541491Y-13017436D01*
X10541491Y-13017436D02*
X10531967Y-12998388D01*
X10531967Y-12998388D02*
X10522444Y-12960293D01*
X10522444Y-12960293D02*
X10522444Y-12912674D01*
X10522444Y-12912674D02*
X10531967Y-12874579D01*
X10531967Y-12874579D02*
X10541491Y-12855531D01*
X10541491Y-12855531D02*
X10551015Y-12846008D01*
X10551015Y-12846008D02*
X10570063Y-12836484D01*
X10760539Y-12836484D02*
X10779586Y-12836484D01*
X10779586Y-12836484D02*
X10798634Y-12846008D01*
X10798634Y-12846008D02*
X10808158Y-12855531D01*
X10808158Y-12855531D02*
X10817682Y-12874579D01*
X10817682Y-12874579D02*
X10827205Y-12912674D01*
X10827205Y-12912674D02*
X10827205Y-12960293D01*
X10827205Y-12960293D02*
X10817682Y-12998388D01*
X10817682Y-12998388D02*
X10808158Y-13017436D01*
X10808158Y-13017436D02*
X10798634Y-13026960D01*
X10798634Y-13026960D02*
X10779586Y-13036484D01*
X10779586Y-13036484D02*
X10760539Y-13036484D01*
X10760539Y-13036484D02*
X10741491Y-13026960D01*
X10741491Y-13026960D02*
X10731967Y-13017436D01*
X10731967Y-13017436D02*
X10722444Y-12998388D01*
X10722444Y-12998388D02*
X10712920Y-12960293D01*
X10712920Y-12960293D02*
X10712920Y-12912674D01*
X10712920Y-12912674D02*
X10722444Y-12874579D01*
X10722444Y-12874579D02*
X10731967Y-12855531D01*
X10731967Y-12855531D02*
X10741491Y-12846008D01*
X10741491Y-12846008D02*
X10760539Y-12836484D01*
X10912920Y-13036484D02*
X10912920Y-12903150D01*
X10912920Y-12922198D02*
X10922444Y-12912674D01*
X10922444Y-12912674D02*
X10941491Y-12903150D01*
X10941491Y-12903150D02*
X10970063Y-12903150D01*
X10970063Y-12903150D02*
X10989110Y-12912674D01*
X10989110Y-12912674D02*
X10998634Y-12931722D01*
X10998634Y-12931722D02*
X10998634Y-13036484D01*
X10998634Y-12931722D02*
X11008158Y-12912674D01*
X11008158Y-12912674D02*
X11027205Y-12903150D01*
X11027205Y-12903150D02*
X11055777Y-12903150D01*
X11055777Y-12903150D02*
X11074825Y-12912674D01*
X11074825Y-12912674D02*
X11084348Y-12931722D01*
X11084348Y-12931722D02*
X11084348Y-13036484D01*
X11179586Y-13036484D02*
X11179586Y-12903150D01*
X11179586Y-12922198D02*
X11189110Y-12912674D01*
X11189110Y-12912674D02*
X11208158Y-12903150D01*
X11208158Y-12903150D02*
X11236729Y-12903150D01*
X11236729Y-12903150D02*
X11255777Y-12912674D01*
X11255777Y-12912674D02*
X11265301Y-12931722D01*
X11265301Y-12931722D02*
X11265301Y-13036484D01*
X11265301Y-12931722D02*
X11274824Y-12912674D01*
X11274824Y-12912674D02*
X11293872Y-12903150D01*
X11293872Y-12903150D02*
X11322443Y-12903150D01*
X11322443Y-12903150D02*
X11341491Y-12912674D01*
X11341491Y-12912674D02*
X11351015Y-12931722D01*
X11351015Y-12931722D02*
X11351015Y-13036484D01*
X11741491Y-12826960D02*
X11570063Y-13084103D01*
X11998634Y-12836484D02*
X12017682Y-12836484D01*
X12017682Y-12836484D02*
X12036729Y-12846008D01*
X12036729Y-12846008D02*
X12046253Y-12855531D01*
X12046253Y-12855531D02*
X12055777Y-12874579D01*
X12055777Y-12874579D02*
X12065301Y-12912674D01*
X12065301Y-12912674D02*
X12065301Y-12960293D01*
X12065301Y-12960293D02*
X12055777Y-12998388D01*
X12055777Y-12998388D02*
X12046253Y-13017436D01*
X12046253Y-13017436D02*
X12036729Y-13026960D01*
X12036729Y-13026960D02*
X12017682Y-13036484D01*
X12017682Y-13036484D02*
X11998634Y-13036484D01*
X11998634Y-13036484D02*
X11979586Y-13026960D01*
X11979586Y-13026960D02*
X11970063Y-13017436D01*
X11970063Y-13017436D02*
X11960539Y-12998388D01*
X11960539Y-12998388D02*
X11951015Y-12960293D01*
X11951015Y-12960293D02*
X11951015Y-12912674D01*
X11951015Y-12912674D02*
X11960539Y-12874579D01*
X11960539Y-12874579D02*
X11970063Y-12855531D01*
X11970063Y-12855531D02*
X11979586Y-12846008D01*
X11979586Y-12846008D02*
X11998634Y-12836484D01*
X12151015Y-13017436D02*
X12160539Y-13026960D01*
X12160539Y-13026960D02*
X12151015Y-13036484D01*
X12151015Y-13036484D02*
X12141491Y-13026960D01*
X12141491Y-13026960D02*
X12151015Y-13017436D01*
X12151015Y-13017436D02*
X12151015Y-13036484D01*
X12284348Y-12836484D02*
X12303396Y-12836484D01*
X12303396Y-12836484D02*
X12322444Y-12846008D01*
X12322444Y-12846008D02*
X12331967Y-12855531D01*
X12331967Y-12855531D02*
X12341491Y-12874579D01*
X12341491Y-12874579D02*
X12351015Y-12912674D01*
X12351015Y-12912674D02*
X12351015Y-12960293D01*
X12351015Y-12960293D02*
X12341491Y-12998388D01*
X12341491Y-12998388D02*
X12331967Y-13017436D01*
X12331967Y-13017436D02*
X12322444Y-13026960D01*
X12322444Y-13026960D02*
X12303396Y-13036484D01*
X12303396Y-13036484D02*
X12284348Y-13036484D01*
X12284348Y-13036484D02*
X12265301Y-13026960D01*
X12265301Y-13026960D02*
X12255777Y-13017436D01*
X12255777Y-13017436D02*
X12246253Y-12998388D01*
X12246253Y-12998388D02*
X12236729Y-12960293D01*
X12236729Y-12960293D02*
X12236729Y-12912674D01*
X12236729Y-12912674D02*
X12246253Y-12874579D01*
X12246253Y-12874579D02*
X12255777Y-12855531D01*
X12255777Y-12855531D02*
X12265301Y-12846008D01*
X12265301Y-12846008D02*
X12284348Y-12836484D01*
X12541491Y-13036484D02*
X12427206Y-13036484D01*
X12484348Y-13036484D02*
X12484348Y-12836484D01*
X12484348Y-12836484D02*
X12465301Y-12865055D01*
X12465301Y-12865055D02*
X12446253Y-12884103D01*
X12446253Y-12884103D02*
X12427206Y-12893627D01*
X12731967Y-13036484D02*
X12617682Y-13036484D01*
X12674825Y-13036484D02*
X12674825Y-12836484D01*
X12674825Y-12836484D02*
X12655777Y-12865055D01*
X12655777Y-12865055D02*
X12636729Y-12884103D01*
X12636729Y-12884103D02*
X12617682Y-12893627D01*
X12846253Y-12922198D02*
X12827206Y-12912674D01*
X12827206Y-12912674D02*
X12817682Y-12903150D01*
X12817682Y-12903150D02*
X12808158Y-12884103D01*
X12808158Y-12884103D02*
X12808158Y-12874579D01*
X12808158Y-12874579D02*
X12817682Y-12855531D01*
X12817682Y-12855531D02*
X12827206Y-12846008D01*
X12827206Y-12846008D02*
X12846253Y-12836484D01*
X12846253Y-12836484D02*
X12884348Y-12836484D01*
X12884348Y-12836484D02*
X12903396Y-12846008D01*
X12903396Y-12846008D02*
X12912920Y-12855531D01*
X12912920Y-12855531D02*
X12922444Y-12874579D01*
X12922444Y-12874579D02*
X12922444Y-12884103D01*
X12922444Y-12884103D02*
X12912920Y-12903150D01*
X12912920Y-12903150D02*
X12903396Y-12912674D01*
X12903396Y-12912674D02*
X12884348Y-12922198D01*
X12884348Y-12922198D02*
X12846253Y-12922198D01*
X12846253Y-12922198D02*
X12827206Y-12931722D01*
X12827206Y-12931722D02*
X12817682Y-12941246D01*
X12817682Y-12941246D02*
X12808158Y-12960293D01*
X12808158Y-12960293D02*
X12808158Y-12998388D01*
X12808158Y-12998388D02*
X12817682Y-13017436D01*
X12817682Y-13017436D02*
X12827206Y-13026960D01*
X12827206Y-13026960D02*
X12846253Y-13036484D01*
X12846253Y-13036484D02*
X12884348Y-13036484D01*
X12884348Y-13036484D02*
X12903396Y-13026960D01*
X12903396Y-13026960D02*
X12912920Y-13017436D01*
X12912920Y-13017436D02*
X12922444Y-12998388D01*
X12922444Y-12998388D02*
X12922444Y-12960293D01*
X12922444Y-12960293D02*
X12912920Y-12941246D01*
X12912920Y-12941246D02*
X12903396Y-12931722D01*
X12903396Y-12931722D02*
X12884348Y-12922198D01*
X12998634Y-12836484D02*
X12998634Y-12874579D01*
X13074825Y-12836484D02*
X13074825Y-12874579D01*
X13370063Y-13112674D02*
X13360539Y-13103150D01*
X13360539Y-13103150D02*
X13341491Y-13074579D01*
X13341491Y-13074579D02*
X13331968Y-13055531D01*
X13331968Y-13055531D02*
X13322444Y-13026960D01*
X13322444Y-13026960D02*
X13312920Y-12979341D01*
X13312920Y-12979341D02*
X13312920Y-12941246D01*
X13312920Y-12941246D02*
X13322444Y-12893627D01*
X13322444Y-12893627D02*
X13331968Y-12865055D01*
X13331968Y-12865055D02*
X13341491Y-12846008D01*
X13341491Y-12846008D02*
X13360539Y-12817436D01*
X13360539Y-12817436D02*
X13370063Y-12807912D01*
X13551015Y-13036484D02*
X13436729Y-13036484D01*
X13493872Y-13036484D02*
X13493872Y-12836484D01*
X13493872Y-12836484D02*
X13474825Y-12865055D01*
X13474825Y-12865055D02*
X13455777Y-12884103D01*
X13455777Y-12884103D02*
X13436729Y-12893627D01*
X13646253Y-13036484D02*
X13684348Y-13036484D01*
X13684348Y-13036484D02*
X13703396Y-13026960D01*
X13703396Y-13026960D02*
X13712920Y-13017436D01*
X13712920Y-13017436D02*
X13731968Y-12988865D01*
X13731968Y-12988865D02*
X13741491Y-12950769D01*
X13741491Y-12950769D02*
X13741491Y-12874579D01*
X13741491Y-12874579D02*
X13731968Y-12855531D01*
X13731968Y-12855531D02*
X13722444Y-12846008D01*
X13722444Y-12846008D02*
X13703396Y-12836484D01*
X13703396Y-12836484D02*
X13665301Y-12836484D01*
X13665301Y-12836484D02*
X13646253Y-12846008D01*
X13646253Y-12846008D02*
X13636729Y-12855531D01*
X13636729Y-12855531D02*
X13627206Y-12874579D01*
X13627206Y-12874579D02*
X13627206Y-12922198D01*
X13627206Y-12922198D02*
X13636729Y-12941246D01*
X13636729Y-12941246D02*
X13646253Y-12950769D01*
X13646253Y-12950769D02*
X13665301Y-12960293D01*
X13665301Y-12960293D02*
X13703396Y-12960293D01*
X13703396Y-12960293D02*
X13722444Y-12950769D01*
X13722444Y-12950769D02*
X13731968Y-12941246D01*
X13731968Y-12941246D02*
X13741491Y-12922198D01*
X13979587Y-13036484D02*
X13979587Y-12836484D01*
X14065301Y-13036484D02*
X14065301Y-12931722D01*
X14065301Y-12931722D02*
X14055777Y-12912674D01*
X14055777Y-12912674D02*
X14036730Y-12903150D01*
X14036730Y-12903150D02*
X14008158Y-12903150D01*
X14008158Y-12903150D02*
X13989110Y-12912674D01*
X13989110Y-12912674D02*
X13979587Y-12922198D01*
X14189110Y-13036484D02*
X14170063Y-13026960D01*
X14170063Y-13026960D02*
X14160539Y-13017436D01*
X14160539Y-13017436D02*
X14151015Y-12998388D01*
X14151015Y-12998388D02*
X14151015Y-12941246D01*
X14151015Y-12941246D02*
X14160539Y-12922198D01*
X14160539Y-12922198D02*
X14170063Y-12912674D01*
X14170063Y-12912674D02*
X14189110Y-12903150D01*
X14189110Y-12903150D02*
X14217682Y-12903150D01*
X14217682Y-12903150D02*
X14236730Y-12912674D01*
X14236730Y-12912674D02*
X14246253Y-12922198D01*
X14246253Y-12922198D02*
X14255777Y-12941246D01*
X14255777Y-12941246D02*
X14255777Y-12998388D01*
X14255777Y-12998388D02*
X14246253Y-13017436D01*
X14246253Y-13017436D02*
X14236730Y-13026960D01*
X14236730Y-13026960D02*
X14217682Y-13036484D01*
X14217682Y-13036484D02*
X14189110Y-13036484D01*
X14370063Y-13036484D02*
X14351015Y-13026960D01*
X14351015Y-13026960D02*
X14341491Y-13007912D01*
X14341491Y-13007912D02*
X14341491Y-12836484D01*
X14522444Y-13026960D02*
X14503396Y-13036484D01*
X14503396Y-13036484D02*
X14465301Y-13036484D01*
X14465301Y-13036484D02*
X14446253Y-13026960D01*
X14446253Y-13026960D02*
X14436730Y-13007912D01*
X14436730Y-13007912D02*
X14436730Y-12931722D01*
X14436730Y-12931722D02*
X14446253Y-12912674D01*
X14446253Y-12912674D02*
X14465301Y-12903150D01*
X14465301Y-12903150D02*
X14503396Y-12903150D01*
X14503396Y-12903150D02*
X14522444Y-12912674D01*
X14522444Y-12912674D02*
X14531968Y-12931722D01*
X14531968Y-12931722D02*
X14531968Y-12950769D01*
X14531968Y-12950769D02*
X14436730Y-12969817D01*
X14608158Y-13026960D02*
X14627206Y-13036484D01*
X14627206Y-13036484D02*
X14665301Y-13036484D01*
X14665301Y-13036484D02*
X14684349Y-13026960D01*
X14684349Y-13026960D02*
X14693872Y-13007912D01*
X14693872Y-13007912D02*
X14693872Y-12998388D01*
X14693872Y-12998388D02*
X14684349Y-12979341D01*
X14684349Y-12979341D02*
X14665301Y-12969817D01*
X14665301Y-12969817D02*
X14636730Y-12969817D01*
X14636730Y-12969817D02*
X14617682Y-12960293D01*
X14617682Y-12960293D02*
X14608158Y-12941246D01*
X14608158Y-12941246D02*
X14608158Y-12931722D01*
X14608158Y-12931722D02*
X14617682Y-12912674D01*
X14617682Y-12912674D02*
X14636730Y-12903150D01*
X14636730Y-12903150D02*
X14665301Y-12903150D01*
X14665301Y-12903150D02*
X14684349Y-12912674D01*
X14760539Y-13112674D02*
X14770063Y-13103150D01*
X14770063Y-13103150D02*
X14789111Y-13074579D01*
X14789111Y-13074579D02*
X14798634Y-13055531D01*
X14798634Y-13055531D02*
X14808158Y-13026960D01*
X14808158Y-13026960D02*
X14817682Y-12979341D01*
X14817682Y-12979341D02*
X14817682Y-12941246D01*
X14817682Y-12941246D02*
X14808158Y-12893627D01*
X14808158Y-12893627D02*
X14798634Y-12865055D01*
X14798634Y-12865055D02*
X14789111Y-12846008D01*
X14789111Y-12846008D02*
X14770063Y-12817436D01*
X14770063Y-12817436D02*
X14760539Y-12807912D01*
M02*
