%TF.GenerationSoftware,KiCad,Pcbnew,10.0.3*%
%TF.CreationDate,2026-07-16T14:58:08-05:00*%
%TF.ProjectId,chronos_helios_adapter,6368726f-6e6f-4735-9f68-656c696f735f,2*%
%TF.SameCoordinates,Original*%
%TF.FileFunction,Copper,L4,Bot*%
%TF.FilePolarity,Positive*%
%FSLAX46Y46*%
G04 Gerber Fmt 4.6, Leading zero omitted, Abs format (unit mm)*
G04 Created by KiCad (PCBNEW 10.0.3) date 2026-07-16 14:58:08*
%MOMM*%
%LPD*%
G01*
G04 APERTURE LIST*
%TA.AperFunction,ViaPad*%
%ADD10C,0.600000*%
%TD*%
%TA.AperFunction,ViaPad*%
%ADD11C,0.500000*%
%TD*%
G04 APERTURE END LIST*
D10*
%TO.N,GND*%
X122200000Y-122200000D03*
X107250000Y-119200000D03*
X110250000Y-119200000D03*
X101800000Y-101800000D03*
X102200000Y-110100000D03*
X114250000Y-118500000D03*
X110000000Y-106900000D03*
X111750000Y-118500000D03*
X112750000Y-119200000D03*
X105000000Y-120050000D03*
X117300000Y-104950000D03*
X113000000Y-106900000D03*
X117250000Y-119200000D03*
X120500000Y-110100000D03*
X119000000Y-120050000D03*
X105300000Y-110900000D03*
X101800000Y-122200000D03*
X106700000Y-104950000D03*
X106750000Y-118500000D03*
X108750000Y-118500000D03*
X111500000Y-106300000D03*
X122200000Y-101800000D03*
D11*
%TO.N,I2C_SCL*%
X114200000Y-109050000D03*
X110450000Y-116000000D03*
%TO.N,I2C_SDA*%
X115000000Y-109350000D03*
X111250000Y-115750000D03*
%TO.N,CSI_CLK_P*%
X112500000Y-110600000D03*
X113250000Y-110600000D03*
%TO.N,CSI_CLK_N*%
X114050000Y-111200000D03*
X111700000Y-111200000D03*
%TO.N,CSI_D1_P*%
X114750000Y-112000000D03*
X111300000Y-112000000D03*
%TO.N,CSI_D1_N*%
X110500000Y-112600000D03*
X115550000Y-112600000D03*
%TO.N,CSI_D0_P*%
X109800000Y-113400000D03*
X116250000Y-113400000D03*
%TO.N,CSI_D0_N*%
X109000000Y-114000000D03*
X117050000Y-114000000D03*
D10*
%TO.N,V33_HELIOS*%
X118300000Y-108000000D03*
X103500000Y-108000000D03*
%TD*%
%TA.AperFunction,Conductor*%
%TO.N,GND*%
G36*
X125643039Y-98319685D02*
G01*
X125688794Y-98372489D01*
X125700000Y-98424000D01*
X125700000Y-125576000D01*
X125680315Y-125643039D01*
X125627511Y-125688794D01*
X125576000Y-125700000D01*
X98424000Y-125700000D01*
X98356961Y-125680315D01*
X98311206Y-125627511D01*
X98300000Y-125576000D01*
X98300000Y-123593713D01*
X98949500Y-123593713D01*
X98949500Y-123806286D01*
X98982753Y-124016239D01*
X99048444Y-124218414D01*
X99144951Y-124407820D01*
X99269890Y-124579786D01*
X99420213Y-124730109D01*
X99592179Y-124855048D01*
X99592181Y-124855049D01*
X99592184Y-124855051D01*
X99781588Y-124951557D01*
X99983757Y-125017246D01*
X100193713Y-125050500D01*
X100193714Y-125050500D01*
X100406286Y-125050500D01*
X100406287Y-125050500D01*
X100616243Y-125017246D01*
X100818412Y-124951557D01*
X101007816Y-124855051D01*
X101029789Y-124839086D01*
X101179786Y-124730109D01*
X101179788Y-124730106D01*
X101179792Y-124730104D01*
X101330104Y-124579792D01*
X101330106Y-124579788D01*
X101330109Y-124579786D01*
X101455048Y-124407820D01*
X101455047Y-124407820D01*
X101455051Y-124407816D01*
X101551557Y-124218412D01*
X101617246Y-124016243D01*
X101650500Y-123806287D01*
X101650500Y-123593713D01*
X122349500Y-123593713D01*
X122349500Y-123806286D01*
X122382753Y-124016239D01*
X122448444Y-124218414D01*
X122544951Y-124407820D01*
X122669890Y-124579786D01*
X122820213Y-124730109D01*
X122992179Y-124855048D01*
X122992181Y-124855049D01*
X122992184Y-124855051D01*
X123181588Y-124951557D01*
X123383757Y-125017246D01*
X123593713Y-125050500D01*
X123593714Y-125050500D01*
X123806286Y-125050500D01*
X123806287Y-125050500D01*
X124016243Y-125017246D01*
X124218412Y-124951557D01*
X124407816Y-124855051D01*
X124429789Y-124839086D01*
X124579786Y-124730109D01*
X124579788Y-124730106D01*
X124579792Y-124730104D01*
X124730104Y-124579792D01*
X124730106Y-124579788D01*
X124730109Y-124579786D01*
X124855048Y-124407820D01*
X124855047Y-124407820D01*
X124855051Y-124407816D01*
X124951557Y-124218412D01*
X125017246Y-124016243D01*
X125050500Y-123806287D01*
X125050500Y-123593713D01*
X125017246Y-123383757D01*
X124951557Y-123181588D01*
X124855051Y-122992184D01*
X124855049Y-122992181D01*
X124855048Y-122992179D01*
X124730109Y-122820213D01*
X124579786Y-122669890D01*
X124407820Y-122544951D01*
X124218414Y-122448444D01*
X124218413Y-122448443D01*
X124218412Y-122448443D01*
X124016243Y-122382754D01*
X124016241Y-122382753D01*
X124016240Y-122382753D01*
X123854957Y-122357208D01*
X123806287Y-122349500D01*
X123593713Y-122349500D01*
X123545042Y-122357208D01*
X123383760Y-122382753D01*
X123181585Y-122448444D01*
X122992179Y-122544951D01*
X122820213Y-122669890D01*
X122669890Y-122820213D01*
X122544951Y-122992179D01*
X122448444Y-123181585D01*
X122382753Y-123383760D01*
X122349500Y-123593713D01*
X101650500Y-123593713D01*
X101617246Y-123383757D01*
X101551557Y-123181588D01*
X101455051Y-122992184D01*
X101455049Y-122992181D01*
X101455048Y-122992179D01*
X101330109Y-122820213D01*
X101179786Y-122669890D01*
X101007820Y-122544951D01*
X100818414Y-122448444D01*
X100818413Y-122448443D01*
X100818412Y-122448443D01*
X100616243Y-122382754D01*
X100616241Y-122382753D01*
X100616240Y-122382753D01*
X100454957Y-122357208D01*
X100406287Y-122349500D01*
X100193713Y-122349500D01*
X100145042Y-122357208D01*
X99983760Y-122382753D01*
X99781585Y-122448444D01*
X99592179Y-122544951D01*
X99420213Y-122669890D01*
X99269890Y-122820213D01*
X99144951Y-122992179D01*
X99048444Y-123181585D01*
X98982753Y-123383760D01*
X98949500Y-123593713D01*
X98300000Y-123593713D01*
X98300000Y-115934108D01*
X109949500Y-115934108D01*
X109949500Y-116065891D01*
X109983608Y-116193187D01*
X109997005Y-116216390D01*
X110049500Y-116307314D01*
X110142686Y-116400500D01*
X110256814Y-116466392D01*
X110384108Y-116500500D01*
X110384110Y-116500500D01*
X110515890Y-116500500D01*
X110515892Y-116500500D01*
X110643186Y-116466392D01*
X110757314Y-116400500D01*
X110850500Y-116307314D01*
X110879450Y-116257170D01*
X110930014Y-116208958D01*
X110998621Y-116195734D01*
X111048835Y-116211786D01*
X111056810Y-116216390D01*
X111056811Y-116216390D01*
X111056814Y-116216392D01*
X111184108Y-116250500D01*
X111184110Y-116250500D01*
X111315890Y-116250500D01*
X111315892Y-116250500D01*
X111443186Y-116216392D01*
X111557314Y-116150500D01*
X111650500Y-116057314D01*
X111716392Y-115943186D01*
X111750500Y-115815892D01*
X111750500Y-115684108D01*
X111716392Y-115556814D01*
X111650500Y-115442686D01*
X111557314Y-115349500D01*
X111500250Y-115316554D01*
X111443187Y-115283608D01*
X111379539Y-115266554D01*
X111315892Y-115249500D01*
X111184108Y-115249500D01*
X111056812Y-115283608D01*
X110942686Y-115349500D01*
X110942683Y-115349502D01*
X110849502Y-115442683D01*
X110849497Y-115442689D01*
X110820549Y-115492828D01*
X110769981Y-115541043D01*
X110701373Y-115554264D01*
X110651163Y-115538213D01*
X110643188Y-115533609D01*
X110643187Y-115533608D01*
X110643186Y-115533608D01*
X110515892Y-115499500D01*
X110384108Y-115499500D01*
X110256812Y-115533608D01*
X110142686Y-115599500D01*
X110142683Y-115599502D01*
X110049502Y-115692683D01*
X110049500Y-115692686D01*
X109983608Y-115806812D01*
X109949500Y-115934108D01*
X98300000Y-115934108D01*
X98300000Y-113934108D01*
X108499500Y-113934108D01*
X108499500Y-114065891D01*
X108533608Y-114193187D01*
X108566554Y-114250250D01*
X108599500Y-114307314D01*
X108692686Y-114400500D01*
X108806814Y-114466392D01*
X108934108Y-114500500D01*
X108934110Y-114500500D01*
X109065890Y-114500500D01*
X109065892Y-114500500D01*
X109193186Y-114466392D01*
X109307314Y-114400500D01*
X109400500Y-114307314D01*
X109466392Y-114193186D01*
X109500500Y-114065892D01*
X109500500Y-113999504D01*
X109520185Y-113932465D01*
X109572989Y-113886710D01*
X109642147Y-113876766D01*
X109656571Y-113879724D01*
X109734108Y-113900500D01*
X109734111Y-113900500D01*
X109865890Y-113900500D01*
X109865892Y-113900500D01*
X109993186Y-113866392D01*
X110107314Y-113800500D01*
X110200500Y-113707314D01*
X110266392Y-113593186D01*
X110300500Y-113465892D01*
X110300500Y-113334108D01*
X110278315Y-113251312D01*
X110279978Y-113181467D01*
X110319140Y-113123605D01*
X110383368Y-113096100D01*
X110430181Y-113099447D01*
X110434108Y-113100500D01*
X110434110Y-113100500D01*
X110565890Y-113100500D01*
X110565892Y-113100500D01*
X110693186Y-113066392D01*
X110807314Y-113000500D01*
X110900500Y-112907314D01*
X110966392Y-112793186D01*
X111000500Y-112665892D01*
X111000500Y-112599504D01*
X111020185Y-112532465D01*
X111072989Y-112486710D01*
X111142147Y-112476766D01*
X111156571Y-112479724D01*
X111234108Y-112500500D01*
X111234111Y-112500500D01*
X111365890Y-112500500D01*
X111365892Y-112500500D01*
X111493186Y-112466392D01*
X111607314Y-112400500D01*
X111700500Y-112307314D01*
X111766392Y-112193186D01*
X111800500Y-112065892D01*
X111800500Y-111934108D01*
X111771873Y-111827269D01*
X111773536Y-111757420D01*
X111812699Y-111699558D01*
X111859549Y-111675404D01*
X111893186Y-111666392D01*
X112007314Y-111600500D01*
X112100500Y-111507314D01*
X112166392Y-111393186D01*
X112200500Y-111265892D01*
X112200500Y-111199504D01*
X112220185Y-111132465D01*
X112272989Y-111086710D01*
X112342147Y-111076766D01*
X112356571Y-111079724D01*
X112434108Y-111100500D01*
X112434111Y-111100500D01*
X112565890Y-111100500D01*
X112565892Y-111100500D01*
X112693186Y-111066392D01*
X112807314Y-111000500D01*
X112807315Y-111000498D01*
X112812999Y-110997217D01*
X112880899Y-110980744D01*
X112937001Y-110997217D01*
X112942684Y-111000498D01*
X112942686Y-111000500D01*
X113056814Y-111066392D01*
X113184108Y-111100500D01*
X113184110Y-111100500D01*
X113315889Y-111100500D01*
X113315892Y-111100500D01*
X113393410Y-111079729D01*
X113463256Y-111081392D01*
X113521118Y-111120554D01*
X113548623Y-111184782D01*
X113549500Y-111199504D01*
X113549500Y-111265892D01*
X113566554Y-111329539D01*
X113583608Y-111393187D01*
X113612126Y-111442580D01*
X113649500Y-111507314D01*
X113742686Y-111600500D01*
X113841521Y-111657563D01*
X113856810Y-111666390D01*
X113856814Y-111666392D01*
X113984108Y-111700500D01*
X113984110Y-111700500D01*
X114115890Y-111700500D01*
X114115892Y-111700500D01*
X114119814Y-111699449D01*
X114123251Y-111699530D01*
X114123948Y-111699439D01*
X114123962Y-111699547D01*
X114189664Y-111701110D01*
X114247527Y-111740272D01*
X114275032Y-111804500D01*
X114271684Y-111851316D01*
X114249500Y-111934108D01*
X114249500Y-112065891D01*
X114283608Y-112193187D01*
X114316554Y-112250250D01*
X114349500Y-112307314D01*
X114442686Y-112400500D01*
X114556814Y-112466392D01*
X114684108Y-112500500D01*
X114684110Y-112500500D01*
X114815889Y-112500500D01*
X114815892Y-112500500D01*
X114893410Y-112479729D01*
X114963256Y-112481392D01*
X115021118Y-112520554D01*
X115048623Y-112584782D01*
X115049500Y-112599504D01*
X115049500Y-112665891D01*
X115083608Y-112793187D01*
X115098242Y-112818533D01*
X115149500Y-112907314D01*
X115242686Y-113000500D01*
X115356814Y-113066392D01*
X115484108Y-113100500D01*
X115484110Y-113100500D01*
X115615890Y-113100500D01*
X115615892Y-113100500D01*
X115619814Y-113099449D01*
X115623251Y-113099530D01*
X115623948Y-113099439D01*
X115623962Y-113099547D01*
X115689664Y-113101110D01*
X115747527Y-113140272D01*
X115775032Y-113204500D01*
X115771684Y-113251316D01*
X115749500Y-113334108D01*
X115749500Y-113465891D01*
X115783608Y-113593187D01*
X115816554Y-113650250D01*
X115849500Y-113707314D01*
X115942686Y-113800500D01*
X116056814Y-113866392D01*
X116184108Y-113900500D01*
X116184110Y-113900500D01*
X116315889Y-113900500D01*
X116315892Y-113900500D01*
X116393410Y-113879729D01*
X116463256Y-113881392D01*
X116521118Y-113920554D01*
X116548623Y-113984782D01*
X116549500Y-113999504D01*
X116549500Y-114065891D01*
X116583608Y-114193187D01*
X116616554Y-114250250D01*
X116649500Y-114307314D01*
X116742686Y-114400500D01*
X116856814Y-114466392D01*
X116984108Y-114500500D01*
X116984110Y-114500500D01*
X117115890Y-114500500D01*
X117115892Y-114500500D01*
X117243186Y-114466392D01*
X117357314Y-114400500D01*
X117450500Y-114307314D01*
X117516392Y-114193186D01*
X117550500Y-114065892D01*
X117550500Y-113934108D01*
X117516392Y-113806814D01*
X117450500Y-113692686D01*
X117357314Y-113599500D01*
X117300250Y-113566554D01*
X117243187Y-113533608D01*
X117167354Y-113513289D01*
X117115892Y-113499500D01*
X116984108Y-113499500D01*
X116932647Y-113513289D01*
X116906593Y-113520270D01*
X116836743Y-113518607D01*
X116778881Y-113479444D01*
X116751377Y-113415216D01*
X116750500Y-113400495D01*
X116750500Y-113334110D01*
X116750500Y-113334108D01*
X116716392Y-113206814D01*
X116650500Y-113092686D01*
X116557314Y-112999500D01*
X116500250Y-112966554D01*
X116443187Y-112933608D01*
X116379539Y-112916554D01*
X116315892Y-112899500D01*
X116184108Y-112899500D01*
X116184105Y-112899500D01*
X116180173Y-112900554D01*
X116176729Y-112900471D01*
X116176052Y-112900561D01*
X116176038Y-112900455D01*
X116110323Y-112898885D01*
X116052464Y-112859717D01*
X116024966Y-112795486D01*
X116028314Y-112748691D01*
X116050500Y-112665892D01*
X116050500Y-112534108D01*
X116016392Y-112406814D01*
X115950500Y-112292686D01*
X115857314Y-112199500D01*
X115800250Y-112166554D01*
X115743187Y-112133608D01*
X115667354Y-112113289D01*
X115615892Y-112099500D01*
X115484108Y-112099500D01*
X115432647Y-112113289D01*
X115406593Y-112120270D01*
X115336743Y-112118607D01*
X115278881Y-112079444D01*
X115251377Y-112015216D01*
X115250500Y-112000495D01*
X115250500Y-111934110D01*
X115250500Y-111934108D01*
X115216392Y-111806814D01*
X115150500Y-111692686D01*
X115057314Y-111599500D01*
X115000250Y-111566554D01*
X114943187Y-111533608D01*
X114879539Y-111516554D01*
X114815892Y-111499500D01*
X114684108Y-111499500D01*
X114684105Y-111499500D01*
X114680173Y-111500554D01*
X114676729Y-111500471D01*
X114676052Y-111500561D01*
X114676038Y-111500455D01*
X114610323Y-111498885D01*
X114552464Y-111459717D01*
X114524966Y-111395486D01*
X114528314Y-111348691D01*
X114550500Y-111265892D01*
X114550500Y-111134108D01*
X114516392Y-111006814D01*
X114450500Y-110892686D01*
X114357314Y-110799500D01*
X114300250Y-110766554D01*
X114243187Y-110733608D01*
X114167354Y-110713289D01*
X114115892Y-110699500D01*
X113984108Y-110699500D01*
X113932647Y-110713289D01*
X113906593Y-110720270D01*
X113836743Y-110718607D01*
X113778881Y-110679444D01*
X113751377Y-110615216D01*
X113750500Y-110600495D01*
X113750500Y-110534110D01*
X113750500Y-110534108D01*
X113716392Y-110406814D01*
X113650500Y-110292686D01*
X113557314Y-110199500D01*
X113500250Y-110166554D01*
X113443187Y-110133608D01*
X113379539Y-110116554D01*
X113315892Y-110099500D01*
X113184108Y-110099500D01*
X113056814Y-110133608D01*
X113056813Y-110133608D01*
X113056811Y-110133609D01*
X113056810Y-110133609D01*
X112937000Y-110202782D01*
X112869100Y-110219255D01*
X112813000Y-110202782D01*
X112693189Y-110133609D01*
X112693186Y-110133608D01*
X112565892Y-110099500D01*
X112434108Y-110099500D01*
X112306812Y-110133608D01*
X112192686Y-110199500D01*
X112192683Y-110199502D01*
X112099502Y-110292683D01*
X112099500Y-110292686D01*
X112033608Y-110406812D01*
X111999500Y-110534108D01*
X111999500Y-110600495D01*
X111979815Y-110667534D01*
X111927011Y-110713289D01*
X111857853Y-110723233D01*
X111843407Y-110720270D01*
X111765892Y-110699500D01*
X111634108Y-110699500D01*
X111506812Y-110733608D01*
X111392686Y-110799500D01*
X111392683Y-110799502D01*
X111299502Y-110892683D01*
X111299500Y-110892686D01*
X111233608Y-111006812D01*
X111199500Y-111134108D01*
X111199500Y-111265893D01*
X111228126Y-111372730D01*
X111226463Y-111442580D01*
X111187300Y-111500442D01*
X111140446Y-111524596D01*
X111106814Y-111533608D01*
X111106812Y-111533608D01*
X111106812Y-111533609D01*
X110992686Y-111599500D01*
X110992683Y-111599502D01*
X110899502Y-111692683D01*
X110899500Y-111692686D01*
X110833608Y-111806812D01*
X110799500Y-111934108D01*
X110799500Y-112000495D01*
X110779815Y-112067534D01*
X110727011Y-112113289D01*
X110657853Y-112123233D01*
X110643407Y-112120270D01*
X110565892Y-112099500D01*
X110434108Y-112099500D01*
X110306812Y-112133608D01*
X110192686Y-112199500D01*
X110192683Y-112199502D01*
X110099502Y-112292683D01*
X110099500Y-112292686D01*
X110033608Y-112406812D01*
X109999500Y-112534108D01*
X109999500Y-112665891D01*
X110021684Y-112748683D01*
X110020021Y-112818533D01*
X109980858Y-112876395D01*
X109916630Y-112903899D01*
X109869823Y-112900553D01*
X109865894Y-112899500D01*
X109865892Y-112899500D01*
X109734108Y-112899500D01*
X109606812Y-112933608D01*
X109492686Y-112999500D01*
X109492683Y-112999502D01*
X109399502Y-113092683D01*
X109399500Y-113092686D01*
X109333608Y-113206812D01*
X109299500Y-113334108D01*
X109299500Y-113400495D01*
X109279815Y-113467534D01*
X109227011Y-113513289D01*
X109157853Y-113523233D01*
X109143407Y-113520270D01*
X109065892Y-113499500D01*
X108934108Y-113499500D01*
X108806812Y-113533608D01*
X108692686Y-113599500D01*
X108692683Y-113599502D01*
X108599502Y-113692683D01*
X108599500Y-113692686D01*
X108533608Y-113806812D01*
X108499500Y-113934108D01*
X98300000Y-113934108D01*
X98300000Y-108984108D01*
X113699500Y-108984108D01*
X113699500Y-109115891D01*
X113733608Y-109243187D01*
X113766554Y-109300250D01*
X113799500Y-109357314D01*
X113892686Y-109450500D01*
X114006814Y-109516392D01*
X114134108Y-109550500D01*
X114134110Y-109550500D01*
X114265890Y-109550500D01*
X114265892Y-109550500D01*
X114393186Y-109516392D01*
X114393197Y-109516385D01*
X114393545Y-109516242D01*
X114393878Y-109516206D01*
X114401037Y-109514288D01*
X114401335Y-109515403D01*
X114463014Y-109508767D01*
X114525496Y-109540037D01*
X114548395Y-109568798D01*
X114599500Y-109657314D01*
X114692686Y-109750500D01*
X114806814Y-109816392D01*
X114934108Y-109850500D01*
X114934110Y-109850500D01*
X115065890Y-109850500D01*
X115065892Y-109850500D01*
X115193186Y-109816392D01*
X115307314Y-109750500D01*
X115400500Y-109657314D01*
X115466392Y-109543186D01*
X115500500Y-109415892D01*
X115500500Y-109284108D01*
X115466392Y-109156814D01*
X115400500Y-109042686D01*
X115307314Y-108949500D01*
X115250250Y-108916554D01*
X115193187Y-108883608D01*
X115093188Y-108856814D01*
X115065892Y-108849500D01*
X114934108Y-108849500D01*
X114806804Y-108883610D01*
X114806430Y-108883766D01*
X114806088Y-108883802D01*
X114798963Y-108885712D01*
X114798665Y-108884599D01*
X114736960Y-108891227D01*
X114674484Y-108859946D01*
X114651605Y-108831203D01*
X114600500Y-108742686D01*
X114507314Y-108649500D01*
X114450250Y-108616554D01*
X114393187Y-108583608D01*
X114329539Y-108566554D01*
X114265892Y-108549500D01*
X114134108Y-108549500D01*
X114006812Y-108583608D01*
X113892686Y-108649500D01*
X113892683Y-108649502D01*
X113799502Y-108742683D01*
X113799500Y-108742686D01*
X113733608Y-108856812D01*
X113699500Y-108984108D01*
X98300000Y-108984108D01*
X98300000Y-107927525D01*
X102949500Y-107927525D01*
X102949500Y-108072475D01*
X102987016Y-108212485D01*
X102987017Y-108212488D01*
X103059488Y-108338011D01*
X103059490Y-108338013D01*
X103059491Y-108338015D01*
X103161985Y-108440509D01*
X103161986Y-108440510D01*
X103161988Y-108440511D01*
X103287511Y-108512982D01*
X103287512Y-108512982D01*
X103287515Y-108512984D01*
X103427525Y-108550500D01*
X103427528Y-108550500D01*
X103572472Y-108550500D01*
X103572475Y-108550500D01*
X103712485Y-108512984D01*
X103838015Y-108440509D01*
X103940509Y-108338015D01*
X104012984Y-108212485D01*
X104050500Y-108072475D01*
X104050500Y-107927525D01*
X117749500Y-107927525D01*
X117749500Y-108072475D01*
X117787016Y-108212485D01*
X117787017Y-108212488D01*
X117859488Y-108338011D01*
X117859490Y-108338013D01*
X117859491Y-108338015D01*
X117961985Y-108440509D01*
X117961986Y-108440510D01*
X117961988Y-108440511D01*
X118087511Y-108512982D01*
X118087512Y-108512982D01*
X118087515Y-108512984D01*
X118227525Y-108550500D01*
X118227528Y-108550500D01*
X118372472Y-108550500D01*
X118372475Y-108550500D01*
X118512485Y-108512984D01*
X118638015Y-108440509D01*
X118740509Y-108338015D01*
X118812984Y-108212485D01*
X118850500Y-108072475D01*
X118850500Y-107927525D01*
X118812984Y-107787515D01*
X118740509Y-107661985D01*
X118638015Y-107559491D01*
X118638013Y-107559490D01*
X118638011Y-107559488D01*
X118512488Y-107487017D01*
X118512489Y-107487017D01*
X118501006Y-107483940D01*
X118372475Y-107449500D01*
X118227525Y-107449500D01*
X118098993Y-107483940D01*
X118087511Y-107487017D01*
X117961988Y-107559488D01*
X117961982Y-107559493D01*
X117859493Y-107661982D01*
X117859488Y-107661988D01*
X117787017Y-107787511D01*
X117787016Y-107787515D01*
X117749500Y-107927525D01*
X104050500Y-107927525D01*
X104012984Y-107787515D01*
X103940509Y-107661985D01*
X103838015Y-107559491D01*
X103838013Y-107559490D01*
X103838011Y-107559488D01*
X103712488Y-107487017D01*
X103712489Y-107487017D01*
X103701006Y-107483940D01*
X103572475Y-107449500D01*
X103427525Y-107449500D01*
X103298993Y-107483940D01*
X103287511Y-107487017D01*
X103161988Y-107559488D01*
X103161982Y-107559493D01*
X103059493Y-107661982D01*
X103059488Y-107661988D01*
X102987017Y-107787511D01*
X102987016Y-107787515D01*
X102949500Y-107927525D01*
X98300000Y-107927525D01*
X98300000Y-100193713D01*
X98949500Y-100193713D01*
X98949500Y-100406286D01*
X98982753Y-100616239D01*
X99048444Y-100818414D01*
X99144951Y-101007820D01*
X99269890Y-101179786D01*
X99420213Y-101330109D01*
X99592179Y-101455048D01*
X99592181Y-101455049D01*
X99592184Y-101455051D01*
X99781588Y-101551557D01*
X99983757Y-101617246D01*
X100193713Y-101650500D01*
X100193714Y-101650500D01*
X100406286Y-101650500D01*
X100406287Y-101650500D01*
X100616243Y-101617246D01*
X100818412Y-101551557D01*
X101007816Y-101455051D01*
X101029789Y-101439086D01*
X101179786Y-101330109D01*
X101179788Y-101330106D01*
X101179792Y-101330104D01*
X101330104Y-101179792D01*
X101330106Y-101179788D01*
X101330109Y-101179786D01*
X101455048Y-101007820D01*
X101455047Y-101007820D01*
X101455051Y-101007816D01*
X101551557Y-100818412D01*
X101617246Y-100616243D01*
X101650500Y-100406287D01*
X101650500Y-100193713D01*
X122349500Y-100193713D01*
X122349500Y-100406286D01*
X122382753Y-100616239D01*
X122448444Y-100818414D01*
X122544951Y-101007820D01*
X122669890Y-101179786D01*
X122820213Y-101330109D01*
X122992179Y-101455048D01*
X122992181Y-101455049D01*
X122992184Y-101455051D01*
X123181588Y-101551557D01*
X123383757Y-101617246D01*
X123593713Y-101650500D01*
X123593714Y-101650500D01*
X123806286Y-101650500D01*
X123806287Y-101650500D01*
X124016243Y-101617246D01*
X124218412Y-101551557D01*
X124407816Y-101455051D01*
X124429789Y-101439086D01*
X124579786Y-101330109D01*
X124579788Y-101330106D01*
X124579792Y-101330104D01*
X124730104Y-101179792D01*
X124730106Y-101179788D01*
X124730109Y-101179786D01*
X124855048Y-101007820D01*
X124855047Y-101007820D01*
X124855051Y-101007816D01*
X124951557Y-100818412D01*
X125017246Y-100616243D01*
X125050500Y-100406287D01*
X125050500Y-100193713D01*
X125017246Y-99983757D01*
X124951557Y-99781588D01*
X124855051Y-99592184D01*
X124855049Y-99592181D01*
X124855048Y-99592179D01*
X124730109Y-99420213D01*
X124579786Y-99269890D01*
X124407820Y-99144951D01*
X124218414Y-99048444D01*
X124218413Y-99048443D01*
X124218412Y-99048443D01*
X124016243Y-98982754D01*
X124016241Y-98982753D01*
X124016240Y-98982753D01*
X123854957Y-98957208D01*
X123806287Y-98949500D01*
X123593713Y-98949500D01*
X123545042Y-98957208D01*
X123383760Y-98982753D01*
X123181585Y-99048444D01*
X122992179Y-99144951D01*
X122820213Y-99269890D01*
X122669890Y-99420213D01*
X122544951Y-99592179D01*
X122448444Y-99781585D01*
X122382753Y-99983760D01*
X122349500Y-100193713D01*
X101650500Y-100193713D01*
X101617246Y-99983757D01*
X101551557Y-99781588D01*
X101455051Y-99592184D01*
X101455049Y-99592181D01*
X101455048Y-99592179D01*
X101330109Y-99420213D01*
X101179786Y-99269890D01*
X101007820Y-99144951D01*
X100818414Y-99048444D01*
X100818413Y-99048443D01*
X100818412Y-99048443D01*
X100616243Y-98982754D01*
X100616241Y-98982753D01*
X100616240Y-98982753D01*
X100454957Y-98957208D01*
X100406287Y-98949500D01*
X100193713Y-98949500D01*
X100145042Y-98957208D01*
X99983760Y-98982753D01*
X99781585Y-99048444D01*
X99592179Y-99144951D01*
X99420213Y-99269890D01*
X99269890Y-99420213D01*
X99144951Y-99592179D01*
X99048444Y-99781585D01*
X98982753Y-99983760D01*
X98949500Y-100193713D01*
X98300000Y-100193713D01*
X98300000Y-98424000D01*
X98319685Y-98356961D01*
X98372489Y-98311206D01*
X98424000Y-98300000D01*
X125576000Y-98300000D01*
X125643039Y-98319685D01*
G37*
%TD.AperFunction*%
%TD*%
M02*
